<mxfile host="65bd71144e">
    <diagram id="sX54SFuC1N5iIRcNMO8m" name="Page-1">
        <mxGraphModel dx="1825" dy="983" grid="1" gridSize="10" guides="1" tooltips="1" connect="1" arrows="1" fold="1" page="1" pageScale="1" pageWidth="827" pageHeight="1169" math="0" shadow="0">
            <root>
                <mxCell id="0"/>
                <mxCell id="1" parent="0"/>
                <mxCell id="2" value="&lt;font style=&quot;font-size: 20px&quot;&gt;区分三极管的方法:&lt;br&gt;&lt;span style=&quot;color: rgb(102, 102, 102); font-family: &amp;quot;microsoft yahei&amp;quot;; background-color: rgb(255, 255, 255);&quot;&gt;1. 根据电流的方向&lt;br&gt;2.根据&lt;/span&gt;&lt;span style=&quot;color: rgb(102, 102, 102); font-family: &amp;quot;microsoft yahei&amp;quot;; background-color: rgb(255, 255, 255);&quot;&gt;衬底PN结的方向&lt;/span&gt;&lt;/font&gt;&lt;span style=&quot;color: rgb(102, 102, 102); font-family: &amp;quot;microsoft yahei&amp;quot;; font-size: 20px; background-color: rgb(255, 255, 255);&quot;&gt;&lt;br&gt;&lt;/span&gt;" style="text;html=1;strokeColor=none;fillColor=none;align=left;verticalAlign=middle;whiteSpace=wrap;rounded=0;fontSize=20;" vertex="1" parent="1">
                    <mxGeometry x="140" y="90" width="260" height="60" as="geometry"/>
                </mxCell>
                <mxCell id="3" value="&lt;span style=&quot;color: rgb(102, 102, 102); font-family: &amp;quot;microsoft yahei&amp;quot;; font-size: 20px; text-align: left; background-color: rgb(255, 255, 255);&quot;&gt;电流流出为N管&lt;br style=&quot;font-size: 20px;&quot;&gt;&lt;/span&gt;" style="text;html=1;strokeColor=none;fillColor=none;align=center;verticalAlign=middle;whiteSpace=wrap;rounded=0;fontSize=20;" vertex="1" parent="1">
                    <mxGeometry x="170" y="225" width="150" height="40" as="geometry"/>
                </mxCell>
                <mxCell id="4" value="" style="shape=image;verticalLabelPosition=bottom;labelBackgroundColor=#ffffff;verticalAlign=top;aspect=fixed;imageAspect=0;image=data:image/png,iVBORw0KGgoAAAANSUhEUgAAALYAAADDCAYAAAAvH+t2AAAgAElEQVR4nOy9a4wsy5aQ98UjM+vRXf3Yj3POfcy5DwYznmFAYKFBgxCvGSxjISMeEjOSJY+QLMuSjf/gH/ywsISE7Z8WtpBt5B8GjfwABPgPAv/wW0hY4/nB2DOXmTn33HvPPnvv7qrq7uqqysyI8I+syIqKzqzM7H0ud2a7l7R3V2VFrFgrYuWKFStWrMBa60L47LPPXB/w9a6vrw++h/jiz/77L//yL/dqw4NvI8Z5DF69enXw3RjzoEyIK2yjL3zrW986SlfcJ3Ff9YFXr14dxR0/u76+HoTfuUM+2toZ2ldxvb5y1dRGEw1Nbf3Kr/xK/Uw65wAI//rPfaCtvH8+BNexNsK/70rXu+Juqus/W2sH0dMHf9v3d4VwjKy1vWj8osa0L23Hfo/B971zDi2EOPhRCEH8rAl8mbh8+Lzpb/y5DzTh6FMnLC+lPErHUJritpo6uk9fdOFtq9eEw/P8rrx00TBUPtro7ar/Ljj0oNYCsNYipTx4s/wAtxEQarWut97jCLWJ/+7b7aIvpCukN3zm2/Hl+3ZeqO3CQfAvkC8TCn3If1iuDX/YTogn7uewL6y1vfB7POHnJt49rrCv+mrtsI9DbdqmCEII2/BjPoQvHb4NHkEfCMu1aZJwIOK/Q7RWU/mu+l0zSVzmMZquqU7Y+W2apu/gxC9a12c/fn3HMBSueNxi2j3OeEz78PEu2repbsxDqLg8yJBYrx3b7MQYYWyfAQf144EPy/fBf6ydPvVjTR/ii8vEz4fwH0I4A4RaqqmdPvhjHppojfuoT/82tfcuv7eVj+l7l7XMkLIPTBEhxKBpLNYQxzSff66U6o3f0+Px9mWyia7wb0yrbyMucwy/UuqoVg61W8hHHwjrNK0PYr7Cdvtq7LbZ6hiNj1kfDOV9CB3x+PnvGg6nniFvlRe02PaLPx+r04exY/ZmG7TZ/n1o7ct/l+3fZmM/Rvv1tbGH9G08y8ZmaRsPj2mjDd8xnj1NTXV8fxtjUEo9oEuHdrWXemttL60a1gmZaVtIxcz1hTZtO5SuJhyPwQ0PF8BNPLf9NpT3Pny0le/C7enqaiekPZyp2sD3Tdt6o6u+UupB3WN9G88KGjiQeo/0MW99k7eiqdO11o+ym4ZqbP83fFmPaewhNPkpP7Spw0VMSGvcN0N5P6axY1xD+YjXQE1rotgj0aeNd+U9LBd7ZmIam+rqt2/fkud5raGvrq5IkoSiKDobl1Iyn88piuIBI8aYukz4VimluLq6YjqdduL39ebzOcaYenrq4+578+bNQQcYY9BaP3Dxefqur68py7LumC5I05SrqyvOzs4OpnJjTC30Ia1CCBaLBWVZ9l7cCSEO+PBtNLnfvJAvl8t6PPrgl1Ly9u1bTk9PH/zu+1spVfMFsFgsyPP8KG7nHEqpms43b97U3/tA2EZMg+c1NEWgGvPT01Ostejnz5/XhaDS1peXl50N+85MkoTz8/MHgh2WCd9w/zJ88MEHvfADJEnCxcVFzWTfxe3Lly/r7+GsFAs2gNa6bqOvqfTs2TOePXtW14k1WyzYaZoe9FUf/oUQvHjxosbnn8U2tv+cZRnn5+edtIdCcnNzw8uXLxtNq3AMh7QR8+6c48WLFwezzjEI22iiIVSgXrBvb2958eJFJdjAAQFe03ZB2EAXoeFgAL3aCPGFb3nfFX+sGZrs2xBXWL6PUIcmQhvd8bM+fdVUx7fTtXcwxAwJF1zNm1NbYIsoTsk1GLnFoZFoZL5hBRhKZhjYaJCKMgXtLNgSqdKD9obwHpYPoWnsQmXlZ1whxON3Hp/gPQebYWSCSgSpBawBJyiMJkvHZAZyY0ErGAlWQAJQOkwi6ed6+P5BP/X3BP//gwJKJFsB5BaMBJFQGrixEhykMgU0dybHAso4MI7yB0w6vEOsyBO856ALcrfBCk2WjEGNWQmYjiAREliy0Wc4ByciBVeCVaA0guE7n180PGnsJ2gGtWUqMkaMwcC9AMsdfPoL/JP/7C/C618jz+esBZU2X61ACZAgenjUvt/wJNhP0AiGEdKkyAIQkAKn5pa//Wf/COP/47/jb/zxn2bmSjLAYuBkxEo6cgVJ8oO2sJ8E+wlawKChBJ0AyuJMzq/+/b/H75qdkJZ3/L6vTPnsH/w9RkApIceQITA59POrfX/hSbCfoBEEW5Cw5hajljglmGQTVhtYnD3n9eYTErlFOVAOUhL0FsYCtr8Blo+1YA+JXwgh9KHGeNpw9vVFN5Xv66eN227ben0sTUNo6Lsp0YUnhKGBVG1422JLlMsgKRmXpyh7ToKA9Zpics9oA0q9ILcGMCihAIXLLGgYM3pA39D+7eK5aTMp/K6bAuP77IzFMRHx7lC4WRDj6rMl3sTQ0FiRprgQ7/iPw0rjzY0u/ptiFsKd16Z4jjiupg/fbTwf47/vzqbnI/z78Pm+jg/VRWtckqC1rgrY3fY7DoXEWhC8W2Rjm0w18eB3fUMe9HK5rAdJKcVyuWQ0GnXu6XtEy+WyFpI4PiKMZ/CdpbXm5uaG5XLZyVwY/xDulPV5MW5ubhiPx/V3v/UaCna4Re358G128Z8kCTc3N9zc3BzEsIRb1XHwTshHF35fzo+Hx+Oh7eW4ubk5iNVpgzCiM+TD92tRWpQowI5R2qIywXq9ZrvdIouC7WrF3d0dk9tbbJlgxQaLIxEZpbPgTB3f4Xkfj8e9BTscj6bjabEySpKE29tbbm9vq7ig2WxWC4pSirOzM87OznppbL+NOZvN6k4KhSWMpw07dDqdcnZ2dhR/qHWMMcxmswPB7oLNZlPT5ekNBTukz/PhaerThnOO09PTOnio6cUOn8V89MHvnKv5CPF0xeTMZrNe4+dxzWazgyAo5xxCSgQlGA3C4aThfjwmTVPQGj2dcnJywsnpKa6UOJniBCh05cV2h8K4Xq9r3vuYZL6v4oCnppnSy64fD2stWmtdF/CM9pnqwzf+4KxZw+dj8RNtEP7u43+H2Khx+ZDeEG/chq/bxX88hfu/Ic/xsyEngXy5sH/baA9pGDp+bTzVtQW1PeKcq6IsyxIZHgGUIKSs6riquBCHNDfFfB+DpnjspjMCTfiklPudx9gG7WOjNdnS8fN44den08OyIU1DNHYbXSHEs0tT28fwx3+b4pbb7My+gVZhgFLXItSXH2LDw+HJdo+7KAxaGrAaqRyIfdixU4rSmKrPnMO/BQ6HAKwFKZrt4768x3zHY9j02Yc2O+f2gt20gDwGsZZo+73pWd+w06a2+kJMVxs9TbiHaNQ+NDVp98fg79vWEPz+c3ziKEkUAtessUOTQIiqTA+6+vIQ03cMXwjhrKub3qC+GqtJYx8r78sM8YiEdYfWi3E0ae62WaSvRo2hqd67aOxjnpA2HH2Fx9NxVIhq++JQY5s9kn277D0pTf0c/u0jX33l0JcLZ0opordxyBsF7bZTKDBhnOxjoM803JfeJlxNHbhiS1lsoYQS2EA1yCWURfV36xxbLFAiMOTASogHO2+hvTyEhzatHT+L10d9IPSaHH2BGtAd9F/jTNiuoYfQeEzLxwLtzSnvldIhkqEbId42bdLGoTbwC9QQb5+psslW7Ku1mzJB+cXHsVnDt5ltLHo0Bgs6dwhhqiAfLVgDzlrkZAJIsBJKSDWksnJ1OfSD2SBcK3RBOBvGx+Ga1jJh//TB7/sitMvD/jEWlKR6mcW+b4wxmLJENvDhbeyytEjhHpxYGjprN9nYvn6MI352kH6haaruA2H5cDpoK/sY23QoTW2n1Lu+1zaaGGMAURZIpXAKHBaxLRAJnMoN87vPyexLbO6Qye7EiDU4USJEclRr9YG4r5pO0MR/Y76HtHP4zH/Yf9FakyQJKk0xm231e4MpIqWsQ1fbxrCLxngN0IUjXifUp9S11vWqsqK3v2aMPQEevPbo68mIocvz0lU3/h7S0umxSKHAkgmDU4JrDM/IUC7hxAJ2woZbcplgs2rsDZAi0Ebj5KG54/upb7+GfLfZq00au28bYd14trbWIsLZ21qstBRFQZ7n2Dw/PCGza846i0IiJeD2fMc71EO9Wp7ekPeYl/h4mwZqUyH0mfZ962M/dtNb9phZwONugr7aPmw33FU8hsO3WQpIcYhEsUUwIkMVgIOVhunaMJ5Jtpslp+kIcFwLB4zROYjxQ7xDtGk4ix7jv0+ZNoht/5DWUHyElEghSZKEJEmwSYLb5lU9sfeKCCFqIX8X2zqsP2R9FfJycIIm9AcOccnFtmzIRGxjeTutj40datGmBd8x8G01DVxcrqkN7QBrMMKihSIrAAN3YssdEjtOWL7Z8EOjj+C+AAlno6wa1+TQ5940e3RB7FeO+/FYPwzV2MaYejHp+6ssLYl6SLefecqd9nbWIjicrZ3bmzJN+Uj62ti+fkhvk6B7mhoXj56ANE0PKnWB1rpRgzRpHOeqBcV4PB5kY2utHwhnV/00TR9socPDWSBMv3CA0wFOgZIoJ8HAhpJ0VPDh3TXbk69wunRwp3FTzVbAyIFbb3GJQ4hRIx99aPd0CSE6eY9xhTt2x8ALh5QSrfWDnB9aS6ropsoUccodKK2TkxOyLHuopQOh9vg970NsbF++SZCbFKrW+mDM9be+9S0AiqIgyzJub2+ZTqe93iitNfP5nPPz8/qN98IbJ6bxMBqN+Oyzz9hut534oRqoxWJR5+MINfExuL29rRPUhDuC/o322tR3nm/D81GmI9TqDpNJUlLMfcn8Q/jG7S2//DP/HuP0f+b0fszfty/5yb/2X/Aro2c8K8+ZyIzvqTXnRhy4Tz0fFxcXtfvzGDjnSJKEt2/fMp/PH9iQsXnnBWi5XB7w0QbeC5KmKZ9++ilKKYqiqPvHOoEkx5YZUhmyacL9LolNIkQVbPTmDetPPqHMFU5uMc6iXILBIcV+JkzTlNevX7NYLHq7lFerFWdnZ5jdDmf44vmx89+VUiRJwqeffoq11VpAf/Ob3zzQsK9eveLDDz/sbNjD2dnZQYKdpi1lD/77drvlh3/4h3u3cXV1VSem6Quff/75QVKerm3mB204MKJAuQSobG7tLAjJ9778FrH+mO1M8tH1dzj9kZ/i9zhwIkfYlBfSoXnorry+vu6VjCiEyWTCy5cvewmDc65+efqAV155nvPVr371oA2LQ2LAaRAWh+HN5RnbVPkgI549e8aHX/ta5e6UtqrjFBYOwlaFEIzH484kSSGEfdW0Rmt6yTebDV/72teApxM0T/CewpNgP8F7CU+C/QTvJTwJ9hO8l/Ak2E/wXsKTYD/BewlPgv0E7yXIpt2cviGFcb3w+xcJQ2lrKttEV9NW/f5HsLudtz2SPS7DPpx0HwgnDsq39U1fHh4LQwKt2sbLWVHtjVvASUBUf113LJG1zVd+DIHHxJWEUJ+gCbfAhyBtigc+JkRDBrcppmBorMGxmN62DaQ64g35INA+vJbDh2k6t/vPCz6HGwch/0OgqW9DeNcXpS2GpYoXARAH/B9EKO52gHFuv6WO32VtPqfo2+gzfiHvvk4chxTjDL/XCXPCQPM+EEfNeWiK9POfw+3lvi9PGMQU4uiq3xaP3UZrWF4IgTNglUXtjka5gN80TSnydRVH4RyuQauH+OM4laG8d/Ec8zQEf1ud6j11WANCWlBVuSRJIE2x27xOmON28SQWhxZVwhwlD3mOeR8yfuHfpvqhXPnv2idY8TEePlak6/Ic38j19XVjEpowpiMkRinFfD7n+vr6KP6Q4Pl8DuxjjZsi5mKYz+fVIOwgvhkt1ABSSq6vrw80hBIppVqjTYZzhkJJxhKUTqukMTt6iqJgvc7Z5PcUbBG5ZqssmdIPYhrm83mtibro9zxeX1/XgVBNOVHCvnKuSrDjNWufvvVjGN6/U/2gUKLAmRFSGWQK6/WazWaDyDKK+3tWqxWruztsmWBYV4JNSukszpYHMUPX19ckSdJ7dlksFq0aO+TXl/FxS4vFotryPz09fSDYk8mk8RapNmiLTWgzSy4vLwfFTAghHly00wXGmAO62o6ZhbgOLgyyUMoUbVOsNeRSkDqDVAlZlrHZrFBUUWXjcUoyTkCWYBOMpPGqCiFE7zgOD2VZNvZVWz/4pEdD4NmzZw/oMhYkOc6kO41t9wlzkgSZZYxGoypgziicTHYaO6G0DiUPtWpRFIN478tHqKguLy/rMdTheUSPsI9JEtpKYexxmwCFBPS9rs1DnFekD4Qx36FN12Szem0QLzbFzsaUSqHF3oVkjCFJEqQDkSQHJ0Zw4HYHBePUXLEGOga+bHhC6Zi97SGOAuzCH/eVBykFgt3CWEjc7qiXtRYXxG4jRJ0wR+z4V0pUcdqBlh1y3tO3E9Ia29hN6zof0Witfbh47NsxHprsoKbf3mWBGrc3lLY2+o6Vr23sqIw3sYrtFi0kpigqm7LOwbFfRB3rmz60h/11jKeQtiH448/hM+vjqndrDETzTV7gyxAlzHloFzfRPAT64hKi4dawpjfiGLSVC7V4TMi7MNcXYi/M0DaFpPKKRItHjytNU6QDlHqgsY/R1PS5sf0Oeodo5K76TWXrn8X+iz/e5qTE+NkznAl3daTcv9x9aGmjv+8M538L22ndoAk1a9u/uGyIvEmzNpkDfZlsw9kGqbCIPKcAKHYdvQWDpbRFK90PQADCVh3lKjzOluRbw12WMtlYlFtzK+7AJDh1hyocYBHCYW2JEK7+7J93/fP1/F+wlGUOWIwpAItzhsrRbGu8ZZn3wu/rlGW+c8/tcTlnwMHK7vI6CiisYMYGbcHmBToxlC6rXngFlA5pDbgCYQ/7811n5y7l1OQGfW9vDTOkkCo2lIik4J6ckyTBkaJk0o3gCAghOBOS1WaDEynWjMi0oHSgySgTgbK7wUDibKX0tJpgze4UdwdIUdXDpftNEbJqRnC739hN+zt8zkGip3X5Y2AMKAWCFFMqpNA792X1T5YLptkJWENpFFJp7oVm6Rw6U4jvbDmXE0zuqgtqEo0lJ8VS2B/8dXQ/6Pa/b5DbnFJoMkAXmplO2EkeZnfC5V2gHFmsEHxbFfxWZUmcwmi4X96yPbvkQkY3ZznHyQSk2FZ2TtesJQQCx2RkQVS49O59VMGoCbc/ZCgEnEyoynfgV8JWLj0NWVLUbYjdnoxR55RAYhVaCwQFUjnkWCP1ivHFBQWWU6UwOcgEhEjZlrcInR01yf55wHsr2FmSIoD1d/9f7r/zCjMqmKxLxj/ye5Bn5zBEsBtMqvV9zsn4Oe7Fmu/9538RXMlUZ+jyjs204NP8/MArEp657ON5cq5KDVcUBQt/aHb33OPUWldnEJOEoigOFpyxtyuGMBH+1dUV5uLiwO0rneN+UzCRGSIbce8Kyv/nF5nkCcqkfLp9w1QWIEqU0FCAEg6VjDB2WPd+P+C9FWzrFOp2Qf7f/1Wu/85/yzq7J3dTfvwv/Q2Sn/hDj78SebeoUYnArAX2THHzP/511pllVJxxLySF/IyJPHvg5lNK9TrIC3t7UmvNXVHUCY28MFprSZKkFuyyLDsXhCH42wa01kjnuCrLegNLSokTG5SwOCMonGOdKiZMybRgld/zYnqK3d6B2GLMFpVMcUpgtwVKJ/Va+gcF761gq00JL8/YznLuLnOKM8fqe5+TphJZFvt5fSDUq/VJitlKcusYjRz32jAapdzblBN1jrFJ9RJ4enxagFHW65R97QmQEqFVZRDvDGO7ezmc1gglcUohEl2fNE/TtHPn0TmHKQqS0YhEa+xmg9wJuwU26oxJYrlZrhAqJxknrLcZVmfo6Rj53RVjNwEBbqSZY9FITrMRFPzA40bfW8GWymLIKO5H2M1zkplhmsyRKsNp984z5Wa+4dm45GLp+DybslpvuVt/i4vpB9ytXzPWsvblOueQWnN/t+LkZIoLEtS0gTclVvdrptNJZcpQma7Sa2MpUd6tKgRSKfLbFaPZCUVHegspJdo53FaxvF8zmVSpq8TuhTjZ2OpFLQQkgrJYsFpNmehzRtsr/sn6GT/2L/8JCjLAMEFyW2yYJgqpfvDR0O+tYG+QnAAnwmFMTr65JzNb8u0WhyTrQuDAiSb/buV+Oj3RbN2c7TbhJ/7Tn4fpN0C+gttT7OkpNl+jtd7785Xi7Zs3PHv2rNeNA34j6M2bN3z05S9TbLe1LR3HXJQ7M0JKydu3b3n+/HmnKeKD3oqi4Dvf+Q4ff/zx4QaalaAc9yZDpYbEvkaaCfbTT/m//sFf42d/7i9Qjs/YojgxElZbspMRUFROmR/04vHzzz+v7TXnHFdXV7U91wU+uMVvkTdtH/sp1z9P05Sbmxs+//zzo7jDFF8+YcxByGjHVL64vWY6H7EoHIv0jok9Z2WXXN3PUW/n2NLUNPsgKL+1XGnHBKM3JHaEtSW5FIwljMZTHJJtqUilwOWf8mb2Y1CsEfojkknCOi9I0mklPHqf6GWRTJC6ujnLdnSvVFXAyUKvSV0G6c6ESUbVDjGBTZ3uF5fLdIqQWSd+VNWPajzmWo0439Hrx8143AqkS7DuI6SWyG8+49nP/ke8JoXXVzjnWO1QuvvDEIUwjfCbN28eBHIdg/l8Xq9HmkIT4rRpo9GIm5sb5vM5m80G/fLly3ol7AWnb3Iav/r2wS3hfr7vIL/SDrP2zOdzXr58eRR3qD2SJOHi4uLBbuIxkFpxdj7jZjSqtVmWZZydnTF+/qJeBPo2PB+1hkVSyhztUnCOXAoSWyJklUqrNFuUFGRZxunpCdqNEBqU1ZxWIRS7LWaBt7SllFyc+yi6rr6t/lZBUFVgj935w4WoMpvK3QVGvh3fxvnZeSd+xz6m/Pz8/CDgSCAO6gtx6C/XQnI2O9njamgsjML08uBlrQ8kSVIHf4WxMh5XuE7x8nt+fl5n2tJxTPLQ/Mpt8djxzmTo3uojnMdiTvpAFQS/b8+nymrbxXzQhgu2hUWVdtGn1i3LcueFqOKQpQSFwuKDg3bVfMxIFDsSlukCIYNt4sB68UId4j+o14FfBKu7uk8CPDKqH5rNLlqYNo1JW5xM3/GL5TLG0RxDvg9hPUj8XpZlrVm7VtW+gVBgvAspTnEWE+Dr9MHv/blx3rauN78sS6q9i/2Vcv5Nt84iOYzv9W3UU52QWCzCVFvQTh1mFJVSgtvFh+8CnxwOTBVXInh4z6MzdhckZBGia4G1i+4rze7leTiNxzE9zjmcsbvIuuP4hQg0rXW7qKcw7oL6r5T72cK5w2jAY+Pg/fZetsIZt2v8wjaaNHbYD37cwjoHi8cwU2ffRO1xds8+Ia9xTu1j4LX90GyrWusqnDKYump6RRViGd/zeKAZXBUEJdUuZA92ox3EL0RjIxCgxG73rvmex/BvB+d12WP14llnaN/GbRy2vo/w8xpcVCz21sC+j+O7OrvqhRo5TB7aVNf/9uDWsFCz+mm7z86Yt6nDN6jJzIgDYoYEQcVRXk2MNYE3RTx9/l8c5xvSFNLuLLim/NBun4eZ3edK4dnqFgNL7cONNcyQmOTwhey7rgj57APxGIb94DVkuFCr+4CH/eJpbsI9dMxDnCGuuB9CXsM2nHPoJunv+8Z3QdtgDLHhh5RtAqVUfXeKiXNgd7TlggEUVDa2osonjVJoJFZrpNgFLWFhFwYiGrTaMDvT7nD4aLxYMJq195B1SCgsTeuYY7Zz17OYpi8C2jR1/LvYrYkOXGldhPaFWDv6Z4+BoQsP2E/bxph6sddk17dOb2E8tnMHYuU1dq0hiDWM/7vXIE0zTxeEGjt+3uaJeEwfH6sX0/zYNr4o4T4GYV9pv+gLpw54vBAeg8cIaEjLEJrClzQ0s5qEZMhU6cslSiMcGFHpToGoTtE4mg88tuBpg2rx55BS41vYa9d3w13h7zcWoUstftannq/72Bcu/h7S06bBnXMPdx77+oq77N2mKWioEH0R4BdGQ12Zzu6OhgmIHWrOOYo8r46GGfPgaFgbNE2bj4WuMfqizb0hC7+YvsfwOsSEafK+6bjxoX7sUJvGBn68IAnrPFa4+9bzNHhTRMnygZuqaTFS15e7hDkNeP1mj3Qgjxzmjftk6KK5ic7HzF7H8LfhbFpQt9Vvw9/E87vQHSvTWPbCctrf0eJNEn+DVJdXJF5sxK6tuGzYcJIkg16eoclW9g3vF49aa8rYpceRF9ruYkUcWGsopUA6g1QSpRSbokAhKI8c5n1sspiYrrZEO014+iqmsExbAqM2LT1E+bX1Qd96YZ2mZ6FQe5mVUqJvb28PBHu1WnF/fz8oYY5/c/omzLm+vu6VM8LXe0zCnJubG2aTGdvtttbY2+2Wu7s7yrtbTLHfkHlMwhylFBhLWZaDEuZ4/F30//NMmHN1dXWQtyWEsL/D8eiKJfLy9C4Jc8L1XsxzbAloret7a6y16NlsVneaF+whyXKEEIeJZnrAxcXFoxPm9IVNvmW8S/DiNXaapkwmEyYnJ8gGYzhswxkoVUJiM8BRSEGyc1JnWUZRbOqUX30T5kgpB/PRljCnDR6TMOfy8nJQ0qPHjMfQhDlNfdW1rri4uNgnzPHTylDfdezch70mibfU/Wf/9ve5wNTjC92GIY6u+mmaIuQ+DZkURa1FvKkQzijxJkVtY0eLR2ttNZu5cBeSvZs5ICtOdBNroC4I3X1N9mqTx2Lohk5Ypwlvk7ZsckE2QVgv5r2rfthGPOZta7nwSsYHi8e+XpGQ+JDQY16SY9+P4W/63lW/ujW2Klfb2DvmfTTcUdwWrNglpQyKeZvXuL1vW+yE34NfPMamwlDvQFynq2+HLsy6xiQ2I5s+P7aNrvpNbbQp36Y2ZLwi7kt03JlDOnfoAAylDUCyPyXj3H4bWDqJdA8H6AFNgodphIONF4WoTbi9snYH5dv6ZqiAD4W++L8o/3Ifeh475sdwtpV1zv2gT6Y9wRN8f+BJsJ/gvYQnwX6C9xKeBMJQjSEAACAASURBVPsJ3kt4EuwneC/hSbCf4L2EJ8F+gvcSdLwZk2VZnYClC/zmBzwMHWyKTvPBVWma9vJT+nrhJUkeuupn4xGIaivXGIPc+Z1REiceRpf6Nto2pyxgTIlUCWmacr+6IZPVaRpnAWsQeucfj06le5xhX3WB323TDad+2vzhPhanTxvhRkl4KMN/b4qY89/7xHzEvKdpevC9q3445m1RmKFsCSEYj6tsVtZa9CeffHIQ0bdcLrm8vOyVPNHnCDk/Pz/YOo1TLcB+1yhJEr773e9SFEUjzrBj/OAuFouD+Ic+gnG9uOKHvvQ1ttstWld57dbrNZ999hlu9ms4e5jEcblcHvAhnCYXK1SZIoSj1IqJEozGU66vrzkfj3ClYbVa8/nnbylXSwq2yCJhIw0jndQn9kM+Li4ueiUjcs6hteb169f1bWNhvzR9FkKwWCxqPrrwS1ld7ffd7363ypWyO2kU96+UEh8FKqVkuVx2xhOF4RBJkvD69WsWi8VBnxyD29tbzs7O6oAurfUBTz4UxAu2lJJvf/vbdbiG/vrXvw7s39br62uePXvWe/dquVw+ELqww+P4Dr9b9/HHH3fi9rjiNvrA2+tznl+8oJhMuNvFZI9GIz766CPG3/z6A43t26i1gwMjCpRNgMOEOfNnz1hdvyGRitEo5fnz52TPzxGJOwiCijXNED583dlsxvPnz3vz3beN8IUwxvCVr3zlgQZsogd2kZOzWS96fLzM6ekpL1686B2uEbbRVKctsefHH39cCbp/4NMP9N1mjbfi47+wn+Z8vK9zVY6QbUfCxL5tHYOyLMFRtx8GZvXB6ezuymkBiH3CHGttddfhjrckSUgSED4ftYPSlIPa6uK9qX7T5yG4w+CvPM9rTR3HWje10ycnTAxD68SBbyEtcJiSIZwd6tDmEJlX430i/boGqem5D/rvG0nYNpC9YTc+/hRNbAIcwx8f5vUQ2r0+ctAYqowyuza1as71+Rge4ki6Y3U9H0Pwe36axqUJ11DFN7TeY9uOzTINHNg9fd+svlFbHufQExQxzjhUsQvKsqyj+/wNAt4MMsah1eHipjXqTICzDuNAuSrgqc5u6jydu4JH6G963of3Y3j8s9jO7gPhoYXQBPHjFZ+qeUx0Yhsfj6kb0xCbTbHAa9gfqQlX4H3frvAtChsIBbnNZutiKuzsodNtkiS7q15cvTgGf0Hrw3jeUJsKITAl2KS651FIuct+JBFUpk25MbUiPzjzaByGKmFk03pjKP+x0PnfYjxtpkkbhKZZGMMdelbC/gi/94nHbnIiNMnJsfpNbbe95PFhbe0H3udyHhKo7htoerPDc5N9Df8m3E31+9T1NrYv7weyssP2l9i3tVWRvp+aLeB2Iap+hhPWC1OASAmUVAf6O8Y9pG+76rU962ojXguF0DTDxrNnF/62esfobuPhGP8hH97GllJWGtv7V4dMN4Zr1GbGiTxlCyRlJQZWVwutql9sLeDOhXk+HNDtjqpo2d9duPvloOPbQBfnLCVM8wmnes1cClR+jh7PKLAoDk9kxMmCYoUi6992L4kQSOmzfkJ4gsYfNAh5if/26ecmGzOEtlmwr9LwdMS5+5r6Np41+kKT1u1LY9jmsZc6XBd6t+CDFGe+QhcDV+KSZxmUy5zxqITMYLDkSFIylFPgQNkqWL9uxUHCCGxHNtBdWYCE9KC8RHa9F5zJ7zLiy7wpbyidJNOnmGKNvluhralz8rbOCk3kCVGfvNnsrpy2DXlF4rS+TZqnjykyVMt56CN8bfbqkHpd5Zq+P9YS6NNOqJx0+LDNjmuCl67E2DU36ppR9iFbHAbBtMxgDWbnvy9diZI7kwSBsYZ7t6GUxzcpwoTpuS4pZIlEHuTTOwYLfcEFJ9ypMQupGU80ZrLmPrnmVN8iuGy1+ZzbJ2yvFqDOrxBrcy3Lsir9gtaHNrY/Uha8Ge+isZvs8mN1fZ2hni0/C/YxYYZq7bitIby3lW36zXv1nAsyQfk3JPb3toEoNbl2rEcThMlIt2CSAqRle3pPRpXxXkWuL2cdmdLoHnnAPPFjPUK75twXbVDIERkwVpI0LxktC9IiIzWXrN0lE9GcXBx2guOql6uSz4driKIosAjMLg/3HtE+KXubjThEY4fC1scu9WZFX/ye9zahbqK9z0tzjPc+0MR32+y1XxftUxU/SJjTe1oqYaxKnk0UdgsyBacTyMGJEY6yvgEAqIxWIZDCcXoyodOWgGqXREjSRCHY3YrpB6yDvukEWK+wqcCdnHJfFCRqRarXlGKvpcLF7oFmtRKrd4d5qZK5VzzsvEhJgnTgpKxIchanHH4pEGrOMJl+X43qy4ULojivSJwNIPaiHIOmBKSxVvW4wvwg3tnQ9eKEvHt6h5g8/nIA36bPbhCbKCGNIW/65uamLuxjRUajUac/e315zv1//Vd4/Qv/K/rbG071LTfTnGST4U5KWJ/UBHim/CI1z3O+3XFzrGdEa30Qp+CZ6+pYLUsW6TPKm1dMyw1u9BXu3ZbX1/e4lWVS3h4I9s3NzcEOKVZRqjWJHeGcIZeCDItOMtbrNYlzGFPt2q3XOdtiTSlyZJGwVZZUqgOB9G2E3qdj4JWMH49QsH2fNr0cNzc3dT919a//e3Nzw+3tbaOZEQqoV4C+r46BFzY/Xjc3N0wmk95mTDgecT/CoTsUKvfu7e0tt7e3ldycnZ0duHbOzs44Ozvrfqtu5vzCz/88E/kGNfkQuMM4hXYjzCJnIm4e2u1FJUSZlJSb45mm/FVtSZKgAxtQRtqrDe70lvzuHpEZrFKMlSBTG87za0YjA+rsgcY+uGDICQqZok0GWAolSXcJc6bTKcXdErmLVJxMUrTVOFUiTIpRVaxIPCDW2jqwp68NvNls6vF4sA5ocX/NZrNetjJUYz6bzQ7iMuJysWB7Prrwh7x7PvoKtm+jTbCb2jo9PeX09LRSok22VZ+p4vbzX0MtP2fyW854bafM1oZJoRnnKSo1bJXElZU5El7kWRqDlgqRpMcbkNV2ttvZ6LYsEUpRZYKUiI4OmtoTJi5BJAXLzRbEGkvJ9faeFyoh4aGvNOZbInc29j49pXOO7XaLMwZvewtR0SsO3D/tvt++IQVxva5xGurui+se80S08fKuPHTVa2o7pDf8PeS/tgeGbMoAnP7wlyj/xJ/j1f/w3/Dx6J8x1wXLrWZlE0bzApnszQY/JRVFwfn5OavrVe+VsdCam5sVZ2cnFLtQ2j6myKk2fGLP+bC456PZlG8bR6mm/M5v/gRsNjAaNbqKjhMULOp2/uwiyisi2PuxY2F5jDfB13uM8umDt4uuNg3ZBXG9oUFQTW20LR6bfOWPvpnXmQ/57f/uX6X8d/4yo1HCByRI0srX4SylCAZ2p8bM7lbNTz75BB8ue7QNV93edXN7w+x0hnX7uwm73H6fv/o2f+DiI67/5n/Ip3/3v2SkTaWx72+YjUbv75XETwC8w5XTYr1Cn8Ai31Iy4sSmYMBah8kMiUuovBj7yy+VUDgHxX2Jdn00dvVKiFIiLQgn2c/iHTak+YhEpriNRW7umcwS1lRZUs27MP4Evyng0Wceb0+mrJiyXWtGZoT3xqFLJOXBnrSw++9CwHTUT6xEnZasQDiL7OMi3MH5+BW4GzZySfpyxiZNWBclEyVIt8dP7zzBb354tOI6KSsh1U6jRYFRghKDtg42BTZT+42KBKBKBumcI3dbEN1Hz5yodgCtMjhldiaNPbhiuQ2+U+Z8I52xtSfcXsPJaEJChlACkQ0PlH+C31zweFPEAQ7uyjXKpSgSUrJKa2cjrIDSVYo6dAJYB8aNMQOaNm6MJTzc2bk/w8VqSprDM6cpXMlIlZTCsS0szmUk7772eoLfwPBowd4kK0BiRgKlJAJDvr5HjSaUQlc+XwGlLXFW1PEiUkKiy15mRa2Z3RrBaJ/XGtt4P0wIaiawastNuuT+ZMtW3rJ1a7RTJE9G9nsPjx7elAnSCu5vLE5lMAI9TpEYlC2xViCVIpE7f7WjvlzeFQ7hesQb7P5KK5FW1mpaOUHX4tHkGmkzxuWMZDMiG02QekQhtqS6RDxJ9nsNsikwp096AFklkEaMc+S4kjmJwDkFUiO1qsM4K+eIqwLgpKhyVQe/df6rrr6t8fjPx/5ZWYICIw3+DFcV0yHw73PoK31w3s/S4FJ0dQxDYU0dJuBfsbZw1bbvx6Bte/sYDNk4ielpi9rr8ie3QVfs+BDamnD6z+HudniwRcKhIPtT3UMJD5398Wfvz/a7nLojTqSNiSEhk1rrSsCtPbiVNxTgmNbwuZCBoDpXG05KKUajUX341TlHWYIL8rAIRCvupu9N0LTz1oTzWDt9IIwIbNqNfJdNpbidLwJnvLsafg/HVr969aoONgJ4+/ZtvT/f1YgQgvl8Xl2L0RCBFQet+F3IN2/eMJ1Oe+EHuL6+piiK3pFxAK/fviERSR1vkqYpm5VlsViw/PwVEnEQK+Lb8G3bUmD0hsSO8LEiYwnZaMJqtSKTEmfd7iayFW5zVwdBrUVZ3xoWRsaFfdWlwfzvr1+/rr/3vTWsT3qLUNm8fv26ToDTdCo+5AGo+TgG/syjH6/Xr18/4OEYhG3EsuXrC1GFD3sl8+bNG05OTqrovg8//PAgKEdKyYsXLzo7xkOapge3QYWD1jaAy+WSDz744FFt9N36V4nm/OKMpdbkeY6SW6SUXFxcMPrgw2rrO8AV81EnzHGVN6YQ1LeGTadT7udv0aLKK3J6OiU9HYMyRxPmPGijJ7x8+fIB7239MBqNet3oFWq6u7u7gzHvaifLss42mra5PR99oKmNJlrCs7UhH1WIT3RiuQ8cM0X837YyfdKn9WnzGGy3W5ylvgbPM+8vVxqKU1SFMcZUYatJUufjUIq9T7M+89gei9GnzdCM67Jzm0y/vuCcOzh50lY3bGNI3IefAR6TMOeYiRWblqHJ6VyUMGdI420Lo7ZAlbYyQ2BIPaVUfW6xyiWyD1wPF3mtOB0YZ7DG7XdRd6ZUmqZ1SoeqMzlImBMnpXzMInKIkD6mP+OouzBg69gYDsHv4V3s6jacbc/2QWoMC3f00KWFjuH6IiLTusC56ryiP4Hin/V+eUUV2yKrhCKVDt7VrxPm1Gm2OLpj9C6Lx38efeXba4J3Fcgvko+QljaB9iCPrTS/yMZDoeo7Fcefh7z5Ulax1D6FV5VjL2lN4hK3V+fu87xUDNVeIz8D7B7vBTsg7136MRSIvq6vsG4faPJgtf0e09UH99A6Xe00jVfo0QvlV8P+3m6/su5LuC9/TJjbXFZdg95Vvq/QeBvS5+5rqhe2UXdoYFLEZWvfqT2cARz7M48hD2Eb/nNXH/uycQKjtrqxDTzkwK3/3KQFW1/8Af3v+Qjp76rf1l/xX+95EUIceE0evf0WpzDz0McE6XPMP6zTdWK5CXzuPt+ex2GtxboqPUJ8Sv0AZyjYLjjMS8ADh4dIj52gifnvw7f/27V+OZiCo+Q3x6BJ68f9GnrLwvb6jl9cv+/4NfE9hC/ZpAmHmAqxRj32/Ngqd0hbfcDfpQ6HdrZS+6jDLpos9sC0wC9MpKxT79aLR+ce7FR29dEQvuN6XTPPY6FtZhw6Bsdo70vHu+B4cJf6UHvIl2+z876IRUOIqy9z2+228mhwqMWMMRhbnbs8SqejNklio8Q5t0+Yk6Z1whxfKk5x5vE/xs489v1dIeR96DnM7zd0tdP0WzgrPNDY8HiNeqzxL8KFNATSNK08Ghz6RJVSdaThUWiysd0+z0ee5xRFsUuYTuASbLfN3xX64hjiToxxfxF0PpamIXCMdufcw9x9bRq4TwP+e9tCZ4it1LRIChd4XWBtZUaEGwShSRLS3tTOgXB6G1sIpJCMRiM223uUkLgjvMS0dpkSIbSNQduztnaO4Q8/N81cQ/q7i6aYtsfijOkNcYXP9Hw+PzDwF4sFo9GoM8LPI18sFvUgxLkfmpjzFzLN5/NOJnzd+Xx+4IHp0ymLxYLZZIZzrnb1bZzj/v6e8maJM4c5oUN6nHNIEgp5f5BXZCQcOsm4u7tDQ32jwf19jtwlzBG5PogVCftksVjUHqgu4fPl5vN5tV4Qh3EWbf2wWCxqHrrwe1yLxeJgHMP6IQ8hTV0Q15vP52RZ1lth+jY8300Jc8K2tNYsl0tubm4OE+Z4Qu7v7wddZOSc4+Li4sCN0yTY4dt2fn7eGTMRD5yPG+gr2HlZMJmOqyTtZYmSVTapk5MTxrOzB7Eino+6DScoZYZ2VTx5ISBxBoRiMpmwvdkiROUjH41S0pGuY0VOoliRsJ0+cRwHfOT5AV1wXLB9/3ZBiOvs7Oygf/3zui8a2usav/BFEEKw3W45Pz8fpLHj+KCmmcnjk1JydnbGbDbzbe8vqXkMNHVEE4T4+8R7h+VD86Evnc6UdXpAIQTIHY+G2td8tI3IVhbB/0VRoNhHMMpdrEgdIxLFinT1TScvDVNw2zQ/1A6PPSlt03wTPccgNjfD2abvGqCN5vB76KYN23i6mfcJ3kt4EuwneC/hSbCf4L2EJ8F+gvcSngT7Cd5LeBLsJ3gv4Umwn+C9BCmEqP3KZVn29xO3bA83OfZjf26f9A4h3vBunL7gc5d4v6nYba9bAWGiV4/X0/QgRMBSJ/rxbm0pJeuTjK2bk1OiKLkTtwgcRtygdzkGpQRnSyqHuq2uuXam/t71z9kSnEEIV38ui+2+TIRLCIf0ZQ0sAe7vwIJxQFGwwsdsl1jhMMJgXI4wBnJT3XrmqqBGBxhbfRC7zLmYHGWPn1A/6L9oU2lIva59gPB3vyvpZfjBldNwePL3WMPxBkd4W1Xb1qc/fziEsSah7noBw8O7xhicbk7CHrfhv9tSVFdO7240CPk0xnB6VXA+u+RagCg0ijEm0UiRwRZMurt2encDsHVVkp3CGrTSnfm9BQIrQGiFcbu+BWSi65p2l2i+vrrPOQwOK0C5exImuEmJoWBTak7Umul9DnqKSBzVW64Z63Oc1rvUcVuwW3Ih0SS7jSeBsa664k8qnO64jYKH8hA+77NJE28gxbhiBSqEOLj/Xcc7QuF96scgvAk1JDQMDw0DqvxfpRRJkrTiDQkPNXzfsEoPSqkDDau1xiZJa8B7eJUaQHVDyL7N0lqELVE6JcsytheO7+QLtq4ACSPl2OZrZGpI0wxEUh8scwBCItUUIdNeyZCNrdqXakpeKNJU4BwIAaXZXYktZK1ZK2ZAqimIKlmQuDOIkwy9TTgpwUwnyInmDjg1CbmCDY4beUeRb0jVCGTGRmaMC8AARQ7jBK3AYdg6g826Bdv3c6g0h+xwJ0nyYIweZOsKYoe8YNeXcv36r/96fX4vDCTxyWPawCOaz+ecn5/XghxeDh8HLklZ5eH43ve+1wu/fxEWi8VB/Eofs2R5u8BsHavVqj4Wdnd3x2effQZnn2DK/KCTl8vlAR/+1jBtMpwzlFpxkigm01OWyyUyuycTFukE3/6nv4xLHKPkknux5bbcMpZbnHOUZblL0aC4u7vrfXOW79+bm5v6wqD6gqnd4IXaz2u1m5sbZrMZxgpcmnL36g6ZZ7w4nXD9Jke8WXH5S3+H7/3RP8coLxkXkF7dc21f75L4C7I05TbfMspSlLMIZ8H6m9s0N3f3vE27lVN4zeKrV69YLBYPLtxqg7u7u/oiKi+b4fGygxvedm195zvfASqlqr/xjW/UX4BaUPukIQPqjowDVcK/IUFaa4wxfO1rX+vE7XH4NobAm6vXvLh8SXF6ynqXKWgymfDRRx8x+vrHDyKmYz4OEuY4xwZHYss6COouXzMVI8rM8eXf/nUcOTqfgt1SjkC7rELsr3MANqsVo44MWAHzAMyvrrh4/ry+qMoagzwy493f3jLZZXXKRXVnfA6My3te6gnZV+Ef//nfweiv/yec/KE/xuRf+VnKL/04s49+iOcSNBbjblEi3ZHvECigMlucq8bj/LJ/oBzA6enpoERMt7e3B9mpYm1tjDk47ucV58cff1y9CL5gaFM32UYxeA3hX4jaNo2I8JrHl/FarI/W8kLWlHara0rL87w+8xi+YP4ol+AwRVh8gt4Zsb/AVAi0ECipgUpjvlyNGU/P+KWrX8Yv4bQCVIYCjDcXZHXBqTFwvzUko93zLtjRtil2a5Za0YS5B6tizu0/50aQlqAFSO5RmzHjkQK7oViPcGPJ6By2kwnLX/yfuPo//z7z3PLiX/oDfP1f/Vn07/wpOHkJ26opKalkugpHR2BJZL/x844JLydt9nITeBmJ11oemuS1TpYjJTqc4vzCaOhhU488bDC+RTVeDPSxtcK6XRFnMfgzj/5FUrvBqOwwiOO/Yj6EAoes7XRL5R2xO3wbueWKG0ZfOiHdziETGKbcCThjl+VV7DpfgBMWEodVtjq00AH1ICaOYmeVSyExorrZQQpZ3/jgxE5ghMTpqh0wGDI4sRgU0jpGqUFvcl65b/LV8ZQ7e4+dnnKCIf9nv8D//Zf/MU6nvPjqDzH5N/8KX/r6D8PsOSUZGwsjWZ3+Xm/XTHvayl6rxlGkfRaPXeMee1y8o0ApVZ2g8Y0OuXI61qbxKjW+AjgkdMhp41hj9118hKfUlVKVCbR7ea1l5+04nGkO2jRUGnuHTwJCShRVXpF1klCOLF/bXPO//Ok/yMnbXyI/fYab5MyubtiMxjUdPq/J/f09o9GIoig6+bDWMhqNWK1WvMoqs8YPWqjBQjvT3047m81YbbZIdYoQNyRmxIqSbXrPpXrJv6gli3XJVEoofBKrlIvLGat8w931GzZ/4Q/ya+qU0Y/9JD/6r/0cJ7/7D2GzGXckJB98pbP/m0xSz1ef8Y9POoUmR6wk/aIxzEaggUYC+sKxtyq0fULo4+4LcfXV8AdtCI2QkArDSl1ySsGyTJBqXPlhdwnpY/dfrbm9xt6Bqwrt3XRKMVuveJt8xPn4lrH+mNszwXZbIL7yZVKzBmAU5JY7OX2GtZaprq4POQZqlxj/5OSy7uNwZvW0hl4BYwwXZy9wzvFsuqVEc5deIozlIyu5TQvuynukekGaX2NHY5bGIYxkYhyiLBgnsJE55vIrvDQzlt/+Vb71H/wZxP0I8fv/KOo85/4Xv81v++k/xfhn/n3myZgZ7Ey2AkqDU/s7NONxG+rd8mPTJEdhzsnQ7LHWVqZI7FobKkRt8BgmuqCvkEudQb4mya9IN59gzQbpNHm+YSKTblwOXJD9RgCI6iS6EAK7yTkZj5E64fOyQJWK8j7nLNGsF0vsye70iN8N2m0WWWFROJQ5Ltj33ttBZWIIITAYJLI2Pbz/2qeTsMIi3O6u+SRjYwxis8SOx7zO70g2msvkOer2NTdTxXhtudho9DRlPV4xN2vkRjCTM8rJDcvPv0d+fs5yOmH2/Cv8ji99iX/6v/1dRivFP/r5/4o/+Lt/iumP/SQKi7WmOjytNcZ9/29COTZ2UsrKjx1n0+lrisBhzo7wjFtYJoRYQ/ZhoG0BcQxSW+DSM5If/yOc6w+ZFPdkzjD+ytdBut2C63BBenCmbic0cSYFvwAdnU0pVitul9eYH/ldbBcbTP45WZaiLjMKMT6YTsMze0IIivQ4HyNTjUFZlqRpWtmQ0hwsvOL+Dl1jwmjWbHkxytmKjOko4bScsFDPyc4+Ybz5GulUsJHX5NtrRpuEi+kZC7Xi2r1l8r0rppe/hQ/+8L/BV//0v449+zJv/+Hf4urv/k2+/PIZH8yvyD/7VUa/9cdBpkiV4bAIKlPPycOd59ic7OOciK2I8HuTaRqW06HPeQiEB4DjjEoe2nAOmRXCNcAQOsvba/Lnzzn5yZ/hm79foi2wnuOmF5h8hUqnB7iaMig1XeDky90tlwg7wsy+yu/9j/8WqAvQlsJYNkpzwkONXJQFia5mC9HxfnpFf7++ZzKe9OIZYJtvydKMEsW/gEBt7yizEzbMObFjuB3xv/+pr3L24jOuNwk2GXE+nVBcX/Grn36K/vKP8mN/+E+y/WN/nhfPdysMBYISu/guXz295PV6yoejBdu7ebUbqZNqtx2HsCWJ0vWxulBOhjgAQhmJZbTN/A3/HtylftCxPd19oUYNtVJo2Pvy4azQBWH74cIuNp3aYDKdoQHjSiCtVn+TSZW6PR0/wBW7FIWrzAbpQOBq95uHdOYQxnH39tcgSyDPAUfichLGGLff4fR9cn+fM51WO2qq62ZiJSlNyWq1JU0newEREusCL4k1B7b2ZlOi9YjS5UiRodKEjYUTcUouHXcnG9anV6SbDzjd3FNuX7O8fM4P/Zl/mx/9Yz+LmX0Tg2ZmYSsXZMxgK7EZpCcTimLO+eyEm7c5E5FCMsYhKXdJs1IBWIflUB4e9G+PxXP4Oc4vGeII1x5+XGvBDt1dj3HFtX1vK98Xv6cpxtEF68Jy6tzO41bUkT1OGAopSCNcTXxL5C5N2uF055xDre6wstr4wKVg08pqERlYUL6KA7lz+wnjSIQCITDy+Ma6cpAIta9T5xEE5WcSB5qdo3lnMwnj0EIhpEWVQGnIMiitIldbLq3h+a8LNr9jzPM/+2/x8qd/jlfujOezpKI73yJlAWIMLsHniROrDVJuWBULJmZMMp0hRyc4JLmpvExaKKDEWYeQh+M9JF9jOC7h57bxj8fQOYf2K0mvcR8Dba642A3ooe/lTU0d0dvtpyvNWLKLa5DV0GtAYQ80dmPb0d6k92MLWd1ikNmP2SYTpuk9jhSRwJKCTBkSRgi7V/LOVRsdpZNYP72a433tFFgnKF0VSOVc5ZZTap9jXkowViAFOKq/uanMGEmC0+B2ZoJUghEjTGL5bX/7H6K/8nsx1mGkZfXrv87Ls2/iNAgyhAMjqp5bFznjJEWmI6x7hh59FeMu2a6/jcm3OFOQqQQclNZUe5SymlXeZfyaNuTiv/639/u8GAAAEGBJREFU2GsihKgS5vi3KkkSFotFvVg5Br6OT2zSZorEb16SJNzd3Q1OmBNONX3e/LfzGybjhLwo0M6iVcq6FChyXKIQTh50SJwwRzh9ECviL1dKs3GVjFK8IR+dYa6XXF+9ZlpkmNOCTW4Q9yvWk8OowTRNuVm8JVFVjIfpiO6Truqv2+UbTqdJnQAzNO3qnCm7xX+SJCznnzNKwWwlIssxm1vSyZTrNbzgFLFZcfNDv5fJ9WeUTpOMJ9zcLLi/u8YYQ2E0VlYxIqMix6SKOW95fjJm8ea7bFZXXE4znLQoCm7nbxAywZJiXImUVdAg5u7AKbFYLMiy7MBVeQxCuQyVr5etUB6g2pBbLpfc3t5WewfPnj07eAvOzs4GXQBkrT0oH3tF4lWrEILxeDy4jSFJfKDaUj+d7RPHOOeO7paVZdlwudK4vlypFKCd3U/NasJ4bdi6hLPnL9EOMpEjbEp56bhAHPQFQFFaZmfDLlfa5iXTk1mvl9k5x7Pn9oBvZs8BODnxD8aMAJ59VAvF6ekZ05OLw7GiWjDiNDMSnLCczM44GU3YGIsTI1CWs+cfgpUgbWVXO4UFBGlk+28GJQtyzh29UKtpU/Dk5KSOL3k6QfME7yU8CfYTvJfwJNhP8F7Ck2A/wXsJT4L9BO8lPAn2E7yX8CTYT/BeQp1XJIxp6BNB17aDFPutmw4JDA24ineZ+kAYNxDTHUaBtfFhRHVI2+3yalTbItWp8FVZYq2gNBNKcYquwkQQJsUK0OSNOIdGNvpovaEx8kPHrylCbk8EOCuojgFJpNAHW9dVmORhlGfIdhyd+Rg+mvotjvgLIzNhp7EfG+HXRHgsLGGMQBjq2pepocFZHtoS2ofP2nA758BUxwyqgC1XpaQptgjgbDrBjO/YiLfY6ZaNWeFkDqoaZ1uYxj4ZOrjhqZAY4kEeirtNmB/IgKi2yH25siyr86S+jhAgKlrDS6vi2KB3ic1vEui2cfW/N7b2RQRBNeHpHefRgD/+PBSaBv4Y3XIXLaITVcVvAzJROFtSrFacrAznLoG7DaN0vIvetjgJcpcT41gf9YWwbNsRuRD/kD46Vq4oDM7a3Yy1j//2x9zq2bhFST1GQ4fQFjR1TKbCHW8JHJwg7tspR7UdezMk/N3j7hsENeT5MTwhLaFwHGtDuOqtd7vvnhMhJJlOwJ4juEDqMxCS3EmMdbvQqejE+yNmnSaN3ER7PDM8BppehiRRCCnrA9GOfR9KWd2c5lN0OEt943FFR8Op/2C27jNjh9DEa/xbzId+/fp1lWBkR+SbN29qm6ULhBBcX1+T53nNcJwBKozZFqLKNHV1dcW0I7+GL+8Draq0Cf2DoN68eXNw2sTz2BSkJaXk+vqaoijq5xM1ZbF9SyonqATuTMkEx+nJBUZI7k8s6+0NTASffP4ZIjGMyDCFJrV3lDqtA5V8X87n87qNPn3r+fDgg4HCfo5hsVgcmgod+KWUvH37to7F8bTmhUHLEuwYIUuSsWK1WrHdbpHjMaubG5KbG5L5HFsmGNZYHJqU0lUnaTzvUkrevHlz0Bdd4PnwNHmeQ/u+zvoUyO7p6Wl1iuj58+f1AHgkPjCqC7yg+mCV0IiPF6NxJN3Lly97MQhVeqzLy8vBs8qLFy/q8vEJbzh8eZRSB0FQwgnGMiOxKUjLzDkyITBI7krLs82C82TKq1dXfPziErQFk2GURJozkIcvNlSnyD0ffcE5x4sXLw6UTXw1XNgnaZoOujVMSslyucTLQT21S1kFQdkqXZoTJeb0lPsswyrFyckJZ2dnXD57tguCmmGcRVGdeRTsg/+9APrx6ANJkhwEQcVH68J8JVpXVw+GfOgmo36InRbbQvHRsKbFWryC7dPGULpCGmIc8W9NfOS5Q2U7m21boLMMB9zljlKlzNcjsnJKkQuwGZRbrN1F3CvqQ79dNDyGh/jzMT6O4Wx7yQFK46oEQAF4c8gYQ77Z7JIS2TpHixCiOlgR5G2J++AxctXGv1dITbzpkCmffSdmug28FgkN+DifXJMg9XFhhS+DXwP4730yCfXJRRK+YPEh5iQTGABbCakEisKRpILf98f/OJ+nlyy+d8Uf+HDEVQpTMjKgLBxK3+OYPqA1tju7+A+9KU2Lplhh+L7qozjCMWrqK6Xa63uBUqqyw/0CxFqLFGq31nx4GCCm/xjEfIQy2bQQD/kQQuzTLzjnDvL1PXblHn5vG4whx4Ta3viu+n3aiGerg5cQ0OjqyI1OEUCaiOo8zp/8S3wArH71V+Eb3+BZwJtWDsRJfUFqE61DeG8r2zbzhN6BLogFpbEtATuPPtWxoPY7N6XcHVM6QuuxZ/HvcbaDsE78YocHEeBp5/GdoM2F+AQ/eHgS7C8IngT6NxY8CfYjIbYb33VD4gm+WHgS7Cd4L+FJsJ/gvYQnwX6C9xKeBPuR0LZYfLK1f2OAvrq6qn2YSZKwXC7JsqzXBooQVSKUcO++T8Kc9Xo9KGHOcrms4zz6bqnP53PSdJ8D22+pN+WW9tvKx7LExuCTrN/c3NSBPeFWb1OfLBaLg9iZY+DLzedzkt1tZ020x7BYLHrz4Hn3fMB+Y8s6Ud1eY8dIZdAjyWadY0qHFIJtnrNer7m7vcUUuo4VSURGYU0dK+LpXC6XjEaj72vCnLu7u33CnIuLi4MUZ+fn54OS2Tjn6tiEuMObdseEqBKbdLURD1wYpNNnaz3P88ZEPrEnI0zBeyxBSxPMZrP60qew02P+wzaHJI0J+WjaDW7b+BgSKyJElSQpvpUNIapYEaNBOJw03PuIPikZj8dMJhNOTk/BSJwcYXEPYkV8H2y3W87Pzzt3g0Ma/Hg0JaWMdzWllJydndU3rD06jXAIfXfHwki7d8H5GFqHxCr0KdO23f2YXba+9MQ7b18ETuDBTCiEOLg7kji8oSxht+XtywhRxbD7WBFasskO3XEOPzf1Q8yHp/NBGuG+R5HCbczwrQnjFsKowXD67Yu/ieAhb3wcw+JNkaZZZOgRrJgfLxihdgmfhS/2kCAwHwPRFNHXRtNjYlHie4KsBSWqY18+P6c3XZyUGN9OQ1vWguDh3TMhXX3GL/wcaupYBsJ+9r89SCPct+Hw7Qm1aFsEW1imz0GDsP5jovv+v/auZrdtIwh/u0tKpCXXQoO0h176CkWBAkVRFH2APkNesi/QS4Gil76B48SHILZTMbYjWeTu9CAPNRwtxaWSSwMPYFOiyPnb4fws96dv1OHHjoqT98rFyWPy9+lkzDQpOTVsaFH9g2M+emRgOXSbWF4+uQdVy5cx7fgQ4i2wDdrtQ/oWfh+C2EjGvqiraRhjtssIyyQ/FeSC3mO36pCj9YZAjz5L5VPSkB475glYHj2a7BDw8E3Jlx6IozdDkhOMh4xbetJD9YE+J68fwq9pdYC9YQBgAsjtRg5CRgaix2t2G08RPRq5MXuyb1EPjx6Voy21jcpoGPPkRGI8tvSmqXkoh6aUccKx+1Mg5oVS7u3z2H2RiWVJBclTH2/a0x47qvHQWPJDkTEFf985Njtj+V/YeXbnEFgWYx6v6ebYvL64tJMxbRjT76FcW5+3Omcb402H4JilA4bgYwuxT41L4/iU8o7lb2wqAnTz8iHeOSKw59bXs8ceOaXxKDgkYwhh94KGXXnqHuqagCwSWuTqKZVFSgowTp3apBpPd62LuAH20RgCNiDu4ZEhUdKXOMcanMQb++PrPuZh6vOiawAeGT7YGvC3MJ6wsVO49QJ1lsGGJSzZ7bQwIgA1gndAAziz2tPvmMIWiNchfffK2qVpmu1sev6RjSD1JYjMIzVyeWR8slvxGE85pqJm6FOO5uEYw4h6LJX76RQi9eWEvCaWk+uuuWNA59gSvPco/QeATh8XnjlF4wD/PEeYVzgN/8Lha8zmX+EuBOSZ3S4o5ABYYGMIE+ynCSm5dYynWCqmda0zjSx2c8rUKwZdrGjvJHHJxhjCLxs2NnVp6H79gMpiV/YA9HVHpfB3qL7Q/B6zqpOWXZ7v04Mugg/xL3FpOR6cQQNCQI6iARoCvv3hZ/yxmuDZXYa/QoYXP/6KTWaxWT/AFXaXl3u7t8+j/Etp/1gxr52bjjbW2rZtM6kkPnIVmgK8j3WfwmLVd9/SATGIGZCkc4gvLbgx+5M/dWGXmjZwnhnrbYndz0of42FTZI/RGTM1TObNUjfTeo4pCMgBeMBmwI17jl9+/weXf/+JFz99h1UoUXpgYqZo6g8I+XbnsRyTtleF9Tq2eJRy9LVJLLVhJ5vJUCcVmeJZ5JPOhiy7uLSxMB0ew5EKx4RbrhVSur5iNIbkd84hy7KDytevgsfk8YxHPgyxNKrvvpRCkHnK87zzcBpjUDtgY4GAB5w6h0kDlNkEjXuGL77/DfdY4cGWKBsABGR5sd2y1Wy/a17H9Dix3H08y+/Sdrk9iAjZ+fl5+7QaY3Bzc9MOJBlSTJZlWC6XWCwW7fV8XuaF0kNPJhNcXl6irutB4Tg3r6oKZ2dnnbRhyNirqsJyuURd162wzrnO63yZfjGN1GhSFAUuLi46vUmMixugaZoWl9ZVCg3nHK6urlBVVSfli4VyNiKmMbQwDesjz3O8fv263YGMdTvLS1ytr5EVJ7DvG5wUAR45CAWu76/xzeQM72zAu3mBdVUhm5XImu0e835m4Ta7fvYsy/DmzZtWjhS4vb1t5dDOUuoZ2EXDV69etdEHRERN05D3nrz39PbtW0qBEAIRES2Xy853733nGELo4Cciuri4OIqGPn8Irq+vO9fKI/9J0HKkwMuXL9t7WEaiuA6OpcFypN6nddUHsj3Oz89b/N57CiHQ++qGiO6IGqI6EDX+niisqb6/p/rhmuieKBDRmjZUE9GaiB5WDZEnuqWHPXqpdsVQVVWHV+ZPntNtyXYVQqB2tVUZJikhVBLFiy7pQfjI+DlVWa/XSU+tppHKGwDUdT3Im8Spu+aGwHu/exOHblrW1xszhgaJSMCfNd+xz6kFKreH976jqzYifPElQlMDNQADNDaHDxa2OMH7O4PNCfABK0zDBpkPyAIwyR2w2aAUw/xl92+q7FJueb1sL9lnz3I0TdNGTiuJWmux2WySwqQcD8vIdaiQgnCIs9Ymje5jGgBanuS6gEPAdJmevkcqxBjTWX8wlTfuM2WD0GFWDlzi0Dk251+tVtH8XzoOqc/UNIfv5RREF53zEGCzBVAAjghT5HAuh/fbFHICYIYSsDPAWTiLbXdfMYFDtvcw8sPDdjIERNTKInXc16PCcrBurCQOANPpNEkpwG5ZWckMH2NPKv9elmWSYAxywoD+rQ+KooheL3mUOGVBm+pViqLoyBWTVeKSxWYqnJyctLg1X/q7MduJHKnA/JZluRcddZE2lobmrSiKZL6A7USOQzzwOfkSjnUFYN+weWfTVJAPgu4hkSCr+5SJDFIQZrhvvEcMZrPZXjemBF2tS6WkGLYxuwH9XMHH+rHluTFOg4EnMsR6GGI0UpyGhrOzs2jXKNOQvznnkmho3c/n84OpmoayLDs9I7orVuLnz4vFYmcjlOqenuAJ/kfwNJn3CT5LeDLsJ/gs4cmwn+CzhP8Afh0ujAYZKdsAAAAASUVORK5CYII=;" vertex="1" parent="1">
                    <mxGeometry x="170" y="270" width="168" height="180" as="geometry"/>
                </mxCell>
                <mxCell id="5" value="" style="shape=image;verticalLabelPosition=bottom;labelBackgroundColor=#ffffff;verticalAlign=top;aspect=fixed;imageAspect=0;image=data:image/png,iVBORw0KGgoAAAANSUhEUgAAAQ8AAAFHCAYAAAC/JMk/AAAgAElEQVR4nOy9W+wl2Xff9dmXqnP53bun59Yz/4lj4ghbKHGcPzEI2QpJZDBCCIkHHhCKkIGXBImbeIOHiAcsIiGeILJjiGIUgwy2CX8TTHyVnb9jO87ficHk7zj/menpnu7p3/1yzqnaFx6qdp196tQ5VXW62+Ppf31HPed36tRea+29aq99qbXWxnvvnXPeOefD39Zab61d+e6c8+fn59W1PnDO+U8++cQbY7z3vqLdpZz33j9//nytTBcZnHP+0aNHazy7yv/ZZ5+t8W2TPfz+0UcfdZIv/jt8Pz8/71y/Oj788MPWcnUag36X+CLp13jvnSn7qffeLjLvM+997n1e/u7zzPuySrPZrPh7dueNL271i+L+RZ6VFXQ+c+u6aNKvds4BIKUEQAiBEIKA8Lf3HmstzrmV39vgvcc5hzEG733ncoG3937lXx/eu/INaCrXJkeQ2RjTi1fczs45nHMopXrJGnTUp50G/a5f+6LoV3kw3iCQSEDKkp6EHBgxx6gxi7/5w3z0tb/D3d0df/S7/0XSf+UH0MxxjPGAAKQDj8FKD9aDSEFu168ORmOTsPHv4VpojDalhQaTUq7QCt/7IjSac64TjfieuB6xIvvyjusd0wn1C/d1ob3t4e0iX70eQgiklJ3rN+h3nfcXSb9Y0FpjsDjvUUrjBVhAYvDnZ/yDv/hlFqcLDk/uo7KM3/77P0PyY/853/HffBX14F3mqWKMQLsEg8HhSKUGA5RNukm/uqkB64YjNKpSasVadhklwj2h4n3KBmzi25X/tlGkjW/duDYZ25hH+L3LqLKJlpSy16gU16NPG8ftOOi3wBdJv5S2R5X/9wIyICVHzy742n/wL6BuLe8eJXymJU6mPExTzmeO3/oL/zxf/qFfxx3cJychFeARSAR4URmObfpdqV39xtgyOuc6W8y4jLUWoJpuhbJhudSGMG3qY7FjBL6BZ+DbhX9bneNr9fvq0/Gmf5t4xny3IZ4CB5rGmF5t27Wum2Qd9Pv56dcKymWHQHhFbsHiEXbB6a/9Hdxdjh894IoJ3lzjzTUXboSYvAVzy9Nf/kVSFoUNciCsRCHAe7xq16+sCxo3Tmzx4sp2HVWklGuzl7oF74L6NLLPqFYv15d/nWf94Wkru+3fiyIY+TCV7ds+g36/2Pr1GnIceAmumIGkCMgXPP3130CKWwQZC7nPFJgCd36CFDmJnvPsN/4eZPNi+eFBS4FAgfdktOtX1gXdpMAwE+m7lt1FKQHxMiqm00cx9Yeo73p4030vMk2PUR8h43V1X4Sl5i5lB/2u4ougX4kltRojLGgHyqEdMD5B33wdxAHCZyT+hpwUK8eM5Qyb3yHkISP7EaT3UA6sdiAcBgtCk2BX6t2k3+7Dw4ABAwZEGIzHgAEDdsJgPAYMGLATBuMxYMCAnTAYjwEDBuyEwXgMGDBgJwzGY8CAATtBP3r0iCzLKvdkWHqTxb7sAKenp9zc3AB0CqAK74O11jx79gytNd4XwT19XJ/Pzs64u7tbiX1QSrV6ESZJwqefflr4/5eBPX38Ca6urpjNZpWnnVJqRYYgY0zTWst4POb58+et9Yudo8I/5xyXl5fc3d318tIUQlT1VUqRZVlnR6lBv19M/SI9Y0bcYdFiTmbHjHGMJntcXp2TttC9vDrn6ZPnLGa3zJGkao7xY6Yo5iwQvnguNulXv/fee52dVg4PDzk+Pu5U4XrFtda88847K9e64ujoaIVv3/IPHz7cyTHn8vKSo6OjXjxDUJcQgnfffbcXv4CLi4ve7Rxj1/oO+v1i6RfhEU5iJSgWWEao0udt9uABlx9up/PgwQPeevtNoHB1r2g48NIhkFv1q+MRZsV7LPI4DL8Hv/q6V+A2hPvzPK8sVjyr6YLYrz5Y7y7lnXPkeV653fd1Gw5loWibeGSKZQl/B5mcc8zn897emqFs3M5t94bZYggvyLKs84gWyg36/WLq1+NQXmKsQ6kyTs45rIPb29tWWW5vb7HGoSR4VdTNWIdC4rxDIrbqV9ddcOMKNX2Pfd27IFQ+9tHviya/+i50QrRmnwd5E99N8Rd1d+M46nJXN/F6LMMm1CNRQ7k+9R30+8XVrwcQIEWps4IBSoZQ/e3QWqN0VLaUD1/QFIit+l0LyY8RN2oc4dc1X0NcPk6A0tdixwF7fUamUDZGPLvqYvnrI9GmwMG4XfrGVzTx7Nq+cb3iv2NZt5Uf9PsF1i++6vQej/MhPL9fOgUA50GKiEdJe5t+dRCmPtVsssT1KLu+qDdGn8jHuGzXkSnUK1Z4/XMb4vrW610vv41XHwSeXdsm5lkfwfs8QIN+v3j6LcLiFVIUYflSUOX46GKc4nvqNApjuZpzZE2/8cW+DPugz4jQVG5XvnXefejUrf2ma03os+9Q5/my6rpr+RflO+h3O89XpV9fu68LraaybXyrJVz4sau17ztl23T/ruvUPmiy1q+a18uqV5/27ZN6sAu9vvyb7h/0ux0vQ7+qnBl4imVGTLKLnKsrjZJGjfY2/a5w6PPgdVVWvGsd1ktd+WyaIvbhXf+774O2TdYmOrF/wC70pZSdkxA3rfdfVkca9PsHX7+hq3sfLTk28G2TLSxbwqUl7c361U2EYPfkJ3XUd6n70H1RGV50VGraP9hE60XquYlWG5oS4bzqEbiOQb+78e2CNv0KgszF9xeZc4ayotzzWNLeXG8Nyx3gWNjYOgqxmiI/fO+K+P54hGijEWR6Eb51nvH3NsS78WG3fdOoEdOO26tNvqZ69Rm965tYu6ypB/1+MfXrRXgjUvztffmFHobNF//ziCWN8goNuozbWkPz+miT1dt1p3mX6WlcZle+TWX6WP665W1bSzbJ3PX++Nqu9XxZvhaDfrfz+oOh31L2+E1Jea1LdnalVHm7WHvbImg+v2lt5hEjrLOa3vV773f2A6hnX+5CI4xM9ffxXRHeTTetU7uOjF1HpkAzeOHFWb03ob6WrPPdBZvq2wWDfr9Y+nVYNLJachSTiGLmEbKeb4O1djnzCDOr8Juz6EiHTfpdMx7bkr7u4gcQ7gseebuMTLE3X58OEbwPN40mbbR2GZlCma4eiE3tuevsAZrPIumKQb9fNP364siE8lsxiRDFzKHHrAghVmk0yN2k32rPI/6hvoYM1150bRrQdbc5lI13neMd+i6Wv16uj9z10aK+ho3liNfvoS37ronr9er71qJpbdrGP6Yx6PeLpd/qjUh5n/OgvAfR7ZWylJKwaeIQKLGkFdPfpF99eXlZheTHgT+hseJGOD09XfnetfJKKc7Pzzk5OanOQ+0KKSVnZ2eVta4rvAvf/f39XuUCzs7OKhmstSvT2k0PV+B7cXHBdDrdSn/TtPb09HStU20qHxt6IQTn5+ccHBxUS5C28jGdQb9fLP1abxj5lJlwaDHH+CljHFKnXF9ftybrub6+5vrqBmcy5ki0uMP4MRMvWYisCsnfpF8dQpLbECpx7969naZcFxcXHB0dNc5qtvEM68v79++vXOuKy8tL7t27t1a2K51Q36YRZJvMFxcXvPHGG630m+I4vPeVzH3gvef6+pqTk5OdysKg3y+Sfh0WaRVTlaM5xgLKSZCOvekBsxZ6e9MDDo6m4PbZlw7FIQaLtglOWSTLTdcm/Q6ZxAYMGLATBuMxYMCAnTAYjwEDBuyEwXgMGDBgJwzGY8CAATthMB4DBgzYCYPxGDBgwE6ojEfdqajJ0WYXf/zYwSb2ZO3iSBTeu8dxErt4P9bLdvWAjPk03R97+4VYgr4+EnUfgD6xJYF3fG+cDxRPkQTXZ2Vm7Rxyzxwgfw6uuMdZQAiUHoMQRXIZB/CkuDebcweQAxncclu4MzLotw2vVL8AArxPKJRTeow6iac9tsVjwZVlkEBe0IqquE2/VWxLW1xC+L1v422KWejjvrwLX2gOQOpDq+nepjaKvXNj3rugb33r8qyUE8XZGwiJA5QQID0Ywc3v/n9c/NxfIkkScmfRacLlxRWzw8PCXdk5Lq3i2/7dH4S0fBRLe5Cg8U4g5KDfvniZ+hW10Ps4MK4L/eoevwyMq9Pept+17Omxa3Lsy79L7MOaL36tTFcF1LNrd5WhSUlxHdoQ3xtHXdZzUGzi3fcBC3zWRpct928dsa3Bq+LcsBxQohhlVO55/vE/5vFX/hrJKMUDMkm4vb1ltrcHtpDBzBLkv/NfMFMWxKTwOhSCFEnpuTzotwdeun6jeiwj21YD/bahim2JjJAvjc/q92b9rhiPJisTX4uV1ddy1iMJ+4w0m8p2ta5bR+eOfEVNKW10dh1NQ5ToriPTSlklSgfj8pwPLxB4kkSg5zcotUeiRiAFQismY02ixlgsSnruLT5FjiSelAkgtS9GKedwDpQc9NsXL1O/zhcHNMky/2BMscuyMb5nGU0rwJW0hdyqXx2v5erh+E1xCl1jAMK9gUawuLGV71J+V95QnIBmra3Wq7uEQtd5NskQW+SQ78GYtiN3mtfc9RneNtQfkPoMsVJnucQwzpJIwEPiPUJaEAbvJc46hPA4n+O8RyG4JmNOysQrRAZG5pAkaCHxOXg16LeNdsCr0K+QYhkGS/mntVjfPZ+HNQ4lPF6vH7PQ1n/1toxDTeucPsqJ79daVzkB+mZq7zvbCdBakyTJyjGCfdAk57bZGSzzHoxGo1b6TfLUZ3ht8tWxmnfBFSOKdygUQoL3DoEmTcco6VEanLdFUJUGhEEJh1IJ9o37zHLHuMykrZQiR2Mx6BQY9LsVr1q/nnBUJsupg1IoYDKZkLXQn0wm1YlxAcHehUxi2/SrP/nkkxUrVV9/xp+np6dcXV1V1qetAYL1klIS84nXl20QQnB2dsbV1dWKFdRat5ZP05RHjx5VI0W8vg1ybcP5+XnFNw6trltlWE5HnXMkScLjx487jU5xPUPdLi4uVuq7rUw8okkp+fjjjyt5rbUoOUJld7jJAc7fgveM5R6fffwU4xTCKRzlGwqtwIBzAi0kN9e3nD1+yrXxKG2xGDI3JTc3TLRCSD3otyNehX4dltQl3GFJ5ALjp0yERyUjHj9+zF6LTI8fP2b85Ck2XzDzAi3uyN2IKYpM5kjUVv3qhw8friUD2oTDw8Ne4d7xxqvWujpVvClMeRvqp6j3Ke+co08dYxwfH1d8t/GMRz1rbfUQPnz4sDOvGF1PUY9lCjIIIXjvvfeK+kqJcECW4dMUZA4IhNfo9z/gY+/QeDwS6z1KKLywOCFJkEyV4lvfew8nM3JhSTxIN8EqED5DkAz63QEvS79Ij3QKI0GzwDBCuyIZ0Oydd7h6/PWt9N955x3efuct8B4jRUQDnLQIL7fqV0K3tWKwdn12mON9lMVisdIIXRB45Xm+cq3PgxlGh11etYXRDFbXrNsQ+MQyb0PT6Np1RGvao1pZ/3swEhgLhADhJK48AV3bW7wA6x1OgJcC4+zyb+FxWLz0SJ+SMMaLBADlHU4kg3474FXqFyg3OnIgQeAAAcKRZ+17HnlmKUYXUZYt/UXC0qVFv4OH6YABA3bCYDwGDBiwEwbjMWDAgJ0wGI8BAwbshMF4DBgwYCcMxmPAgAE7YTAeAwYM2AmyKVouxtZIvh6IvVX7uhE38e7KP3a/3+RyvA1d3azr8vQ98rFPnbbJUZe3yUezqw7iw4qq8O/qY7Nb96Dfdbwq/RZqKPwzfJTPo/DfaCPoqnwevsznAav5PGLedRl0Fxfzps8uiAOA6gfldnnINvHsKkNw0a4fhBx763Xhv+la/DDErtXhBLI+2OXB38Q/OPMpIfFC4EP9ncNLiXO+k3yxI5TzDiccwoJUHuMMUqpBvx3xKvSLDIadlc+mzr9ZsNUi4dP74rjJbfpdO+h6FzffjXJFdIIX68ug2xUhHqE+SryIDLGHXdMDEUbCXQ+b7oMm/iv1LdM8CCkLr0GlEIBSkm0BkTGklOBAColHIBUgBErKKngq3Dfo9+WiTb/WF56qa/MZ321l4L0vCkfNFZdq679rxqPJzbdujbu68sZCxKHEgU+X8k1Txq68qwCi2sjUFW086r/HAYNdXPnb2nWXaW5c36LDswyVLJNwxPd0oSeRWGdxwuEdCLWUOdRj0O86Xrl+y0FhrdaibzKglaLFb2I9NWRdvxqopiRxjEv9eyiwy/IFipDeuuXqSqPu49+1rBACrfXOo0Qb3yYZQplQ36486u28iX4blFJrMw+EKIaU8rqU3WYek8mkkMGVoeB4gkjFrGN576Df7TxehX6tNygkxjqEdBgHCgc9UyLgHAZZ0iiSABXJgJZziyb96uvra/I8XzEWTRbd++IUdWPMxtFik3BKKZ4/f87h4eFaUpE2SCl59uzZTtY68J1Op2vrxy78T09Pq+QvcZh5PJWL5QrflVKcnp4yHo+30g90lVIrspyennYe2eoP++npKXt7RTC2sI6ZlozsApgi/QKbKoSBy+fPt9KGIvrz9PQUYSQ+9aAcfqbRKidXClkmQR7024xXrV8vHCOfRiH5ORPhQWqur69bX6VeX19zc30LzqyF5C9Ehi+3dTbpVx8cHDRuOIVGiqGU6nW6dzztuby8XAl/7rs+Dqeo98XNzQ337t1rnDa28W+rb9O0NvC5urriwYMHO8nctZ2b+If6AuA8UykY+QxIwVusFEgv0Pfvc9FC/+joiPv37yOswGmPxyL3NEJaciHQUZLcQb/d8bL0a1yOJiHFl8ZjTOKLkPyDgwNuW+gfHBywf7AH3jMSAi1ScjciRTAmr2Yem/Qrg0WNN0TiaW3dovcZITbtXHd9sOId5vq1F3nt1ZV/PDoEGWL+gc6LbBTGdJvquw1N/FfaRYjlsmUHZFmZiyoawoQs6dbqPOh3M49A72XrV4UMb1KsLCO96xb2b4wpj9goHhGBQJX5UJVUrfqVbY2yaXO0a2PW73vRd919+deXXrvKUee3qWFfhP6uD+g2nk1T1/hB7s9k9eug3+70X7Z+PcXbEl/L5yGUQ4q1dyFrkEIj1Go+D1/m8/A0z95iGQYP0wEDBuyEwXgMGDBgJwzGY8CAATthMB4DBgzYCYPxGDBgwE4YjMeAAQN2wmA8BgwYsBPWjMe299e7vMMPPgVa6xXHmz5BU/H9XcsGNOV7eFEHpCYaXb0a66jHZcSntLeh1f/AeyxEvhkhpqLbYc6x12YVgh7FtuDKqExftLMxpvQ2EnjAMMeSYwHjwVqKBCO+PPM1E2BLnZLhzTUCUxy0nAHGgnUYgGwOH/4O588e8RwPpvCf/GbWr0CAAO9r+Ty8RMgO/Ut68Kv5PLwv8nmEfC3b+u9KzWIPuLrHXVMl2v7V72vy4msrD5sdVdrKh3wPTU5RfR+CJs/HwKOv5+0m2k3X+7Rvvdyah2lVppucVcf04cMXHom+yPXgnCtyhYiiPVUZ8u/x5QnuY5RNULlH+xzUjJm4wXuDcorFCBYyZ2ENjpRcHzDzCU5aZDrjRis4/wbPfuK/5lf//T/Br/5734X8hR/lDW+BvW96/VpnicPvRfEj3nXzYi30V5QJreV9MSBYZ9f41/uvji3qtsjC4LbedM82xBGEfcs28a3L1JV/nWYXNNV302dAbJ27ol63F/FGjIMbGxhBGRnbJRLVe48xBi01WmocpiBRyiaVKke+1ZPfJQIvBCKjmOwIB9KhgLFQOOaoRDMyYxCCvVQxy+bodMxELODR1/nwN3+Z7H/577l+/oQssRztaczJCVdaoIVFohgL8U2t35BrJbiUb+LZRa4AJYso6tCu2/qvDoLEU1RY92UP18J9Xc4TbTJM4XrX2If4vtjydQkpjxXVNDr1Qf0g5Cb5YnSdmsayBppdyzXpaO1hh2UmsUof3R6uNE2XRCqe1coFRBQkFZ2pGtpqkRoUxQgpzRitCloSQBiMPmfBCS55wP71FYuf/RF++3//Ie4++V3G4zHz44TxnmAkD0lnBn+Xc18fMUKitAX0N7V+w9LCeVACrAPlPUIK0jRl1kI/TdMiVsl5rBMoWdIqabf1Xx1O+45DkeMHIBb49PSUm5ubynh0QXiwHj16hLW2SuHWZe8iCH1+fs719fWK8dBat6aC01rz8ccfA+vBV106z/n5OTc3NwCV7HHZUI+6YtM05cmTJ53bKC4bTlG/ublpLV/fC1JKrdRXebhTgpHNKELyM2wqkFZxXd63Daenp3z66af4DIwyGJ+hzYTxyDPzHkxR/yRJePLkScXXGINSirm4IPVHKDdF2+c4cU0uHX7yAD19k8VvfR3/2z/DzS/8NZ6eP8KIMfn+Cel7X8LYOToHKT1ZqhCjhCtr+cbpOeOPnqHnIKf+m1q/Dkvqkigkf8pEeFQy4smTJ0xbZHry5AnjJ0+x+WItJD+TOcLLrf1Xh5OvYyE3YX9/f+eQfClldap4F14xDg4OODk5WaHbtaz3nvfff3/tWpfyh4eHFd9tZcJoEj984fT2vvDec3R0tFLfbfcGxIa/qq+HTECKAa+LDVTpUUiu3n+ff9xC/8033+S9994DC16Bw6CcBuHIAS3kMvOUlNUp6oE3fACWYvczSVkIGF095exnfpiP/o8fYnL6GflojxyNuf8mibdov0Aah81hMTpnpKfYLMWblD19yAdvfsD0Sw8RFlDf3Pp1WKRTGAmaBZYRqiwye/ttrj75R1vpv/3227z9zlsAWAGKBYYR2oGTFuGXS5am/qvbUriFxoo3j8L3NgWFRvbeV4lq4+leW/lwXxw63ZV3KBdvqPVdOoWyMc+m+tdnbEII5vN5q3xNstT3D/qUq8sc3bjy6RydEvheXl5Wex5NvItd+mJZtFgsyPOcJEnKi+X0XHnyq0d8+rN/g09/8q8yevwh+9P7JMkxc72HFHuMRYK0HunneHGH03d4bTmcf0CyyMDd4fU1C5cx908ZM0PJBOfkN7V+l29EWK4lncP5bvLN53Oc9UjhQYVlZ/FbyE+7rf/qpn2LTWudTX9vQ9PasGvauPpadtO6flv5F0nMGyu5bSMtfA9Lva4JhptodUVTvtlGeqLs5aLYMO3KM0kStNbgwFiDUMVOvpC+yiUBIKREa10ZDmsMs9kM+5M/yNd/8W+Tf/x17k1TRqlm8e77WKVw81vG+hBnFwg3wyKwaop3e6iFIs0t8/ENuByVSEZ6wt21ATMCJmBAaP9NrV9P8ZYkGPKyELKjfEoppBJEu1glD1HR3tZ/G4P+d63sJgghVtaUXXk0jQJ9liz1vZm+dJoeyrVyNsOKFClBuJyZTFDA0eIz8H+oJFQNxsVmZSibf8Jd8pDpXQaTOXdiytRpkmsF9zJg1KmedZljlONJ+a3I3RBOc6kM84ZmuPPF43El4XChwcNnGh4UL20RZgFqjLFwkB7Csyc8/lv/I09//n9GPvtH+OkbaCA53mchinFyYsudPZnibF5IKEeFnM4ABiT4EdzhEdKzbzOyuceevMtEj1F5zk2SIDPDvTffYpYbkqTIa1ZmRkSKYuNvG/aOjsmcRwmQdT2z2izx99l8weTgsIV6sWKLy3sPHsH+8QmZ84zU9ucvpPMJJj83lntvvsVdljNKE4yzjKRAzzMYjZHCATOYXfDJ0R/hDfNzsPcud3nGXnqLTiyXt44JEw4WC/R8zp0oTn1J/DXWH5B6x53KmZJWcmzqv+0ZQwZsh5Qs35Q5KNweeP7pJ5z96H9ZNLhQOKLM02WXvkoP+Y4f+EG4dwJihEODgEXikTj2PpcKLfEmGrhizCG4HEbPOOAtbKbR7pLF+Ajx7Os8+8Wf4Pf+5l/n4OopI++YpgfMR+8CWaPx7Yq33R4Ll5ErkHsCf/ER//Cv/Ceov/If43ODEnaZT1MXj3JYjkkpycR2Xsosl+z15UGlq3KUDVP2kI80z3M+Srd3n8St1zn+2+rtM/DULwe/kF81dOIkSZi5FGU9LjeM9g65yuf4fM57B1O+5fqCm/sPIL9DK4EVEnsx5yC9hxtprtyct0YpGrDGkmhdPMcWqtGuZYwejMcLwDlYfcXuSSVgPXc3F/Bbv4pQCqEk3otKH0IIvBNkF5+R/lv/EV6fsHAJSXiWtG/T2+8Lnuc3fCuSNANGCTOmTIyGT5/zjd/6UeyP/QgXV6c4kXE81dip4joHqSw61ci83zKzDps/QiZ7zEgQ7DM6eRtpF4jsir0DRW5OVo8hAGS5Ri++bzceiZBrxiJG7BJQnTCgFFpKEu/J/fa3JaqBfdwWpoN8ga9SauXti5SSqTaY+QztEpyGg6P75M7zbDbj5M1vIeOWsbOF74YQpPkIPRpzZhd47ZhbT4or5PAaJwqZFZpyfbpVvsF4vADi59MTHKSKPYERnjtR3COkACQOXzhQAV54jkcW9jUzJMpTThRzRl4ydaPPPfLoS+MJwuyzmMNIPuWj/+u/5eIrP8nB44+ZpSPk3hSRevYYsS8nzOdz9pIEKwULP0eI5oVD16XrXfIm0/GY8Twju75G6xSVjsjUPa5RaLXAiWA8ys1gUbocSI+22zunVW7NeMR7HtY6UOXGoSy9LClPD8CTtHQuI5rqGU37O8hnRenhKpf7D2G25Y1lNEpJlOdutgCjSPWYmRTceYtzGq1h4ReIXDKZ7HEjcnJ3ywPruBYJOIvWArxCOPDSlcajfYY4GI+XAEvZz50rDkSyOVJ4hAKhRXGAjgC13NVCOM+tnLLIFYqwu5GTuxtsosHKz914fAOB+rH/ik9+5W+QfP0xI+8ZvbWHPNkHP0HMPdP9fWZ2xhNzy8IuOBqfQO4QNoGkPQnvNiRMmN3OEHqBPjBon+MyGFuNnCtmo2JGB8VehxACvASKmZ1v6Zwm2g9bbkIGeFxw3RYAcjlr9L54m9Ti5uFlnebKr63HybqCSOl2LnC23DfxxUzC+jHGGbCGsRqTZR63WLCnExQC4UfkIsM5i8wcJrHcJHfsSRg/n6P/0LcvhQt8ZDnrLTjSDCcAACAASURBVA8I24bBeLwoqleWAqQuliZOFOfEugRhNV7J0pCXo1oZj5D7CXIhSSzFKzblMUnKIhXk5UbW54mjk2Oufup/Yqwec/fGMW+bOWeLjIWdkuwdMJ/8E5wb44zmaHwPEoUzGVl+y/7+Hnd5s/HouowZ6Qtyc4cTGkfCHIlVntFkChZGbgGEWUP1jrHikaUtywIbzwzW9yVUqsqR3lb3iWjHO9Mt9GvGob40Mun2dtC28BYN8sWb20JAphSZMcxtzt5oXMyELYjEcHFzxVH6FnfGMJIpI6249jcI4RAm5Yx9vuO7/wygyN2CBF2+lCuFVu2mYTAeLwDvfbUTXpoFHKCkBKkY+znKJQipcNVrQVkZDzdSJKp8IITHkZKiwd5i1ZyE7YcKvXLcfMytOWGUXyCOTzjXI3I3wmiLdk85mD+ExJO7OfPZBZYcpT0+ddxltyAOVsjFa/YuuDQKrY7ZY4y9zdBSkGMQ5MzyW3K9PB5gja4H3/I2wzX8vEqnCPALBz7HUwghRCv9lbctTXsqLTtbxjvKQxXWygsEfp6QpCOMkNzNPVhJojQjpdk70PhFjvOexCfIdMwiv+No4bieSU7+1X+D0T/1XSAlTsgq2tkJg3Oj1jdVMBiPF4IQhdkILz+VtaA13kNuDLNkjFBJuWHqyz2PciroPLObZ1h5C7JIne+ANJeMbjLGR5//lqm++4B/5iu/xd3XfoFP/9e/ztOvfQUxyZESjudvcTe5wxiD1BotxgiTIp1EakGe5+XxlM3+El2MyMiBUg4rbpmrOZPJhHyeI5xilB5gbHj1vEo/0G5bNdkVP7p1p7A8X7qnS7kqtxCCxLTsWbSosE0+F/Gsuwg455lwjc3BS4lWmtFoSp7nXF+dk040KE2qNfbGkQsPieLoFi7NlG/7C/8hmUiRHkQwFdkCxssjRduw0Xg0ucbWf3/Z/iBd0XXDrdpYarj/RWUvZh0SJzzaglWAloXbdKJRViBNRqIkzpY5EaQGv/QQHPsR3o+ABC3KLQ6VY0caz6j1jUuTDuoP2srMueaB2QZnvoEnQfyx7+ONP/Z9fAun2F/7u3z6lR/mk7/7t5HCIsSUhBQpFEo5jLkDneAUTPBYaxBKY9FkrjhPJJEes5ihlUcoiVMCK8DbcsnnJNIJkmRB5sGZKSRjZtwg5RThpsz1JdIX8R5xrFRYVjjncC1rdigcpfI8R0hR5SSRId9JIjDGkOiErPSeDa+ChRCFzlsQ9JEkCXmeV7EhSZKQdwybD45wuTEkSVJ5fc5WlhaOO3cDCvSkGIiMyUilZD5J2J9dkk3G3EzP0PMPuRXvFa4AAkAXD994hGLU+oo2YMU9fVvnavPA24QXMTJNvPrQ2nRvV5manMRWZOo+A29EFYlaHt5TLDpfkGiJwrgVb3ZW3NP76GI6QXrB1JYbkvo+yXf+y7z/5T/HWyxIv/orfPjzP87zr/4U86vPOHj7PWZyiraQmjuu0z107plYiVY5Xi6wKsOIKcn4PimFv4SfL5iMEhwOpCcTOYw11/MpUsJU7aPcHebmEmk8zgtmN4aRTsnzBUmSIKUsA/Jk2WFX9zGaYK1FjxSYok2k9AgnSjV4pBQIK9AaMMWndIWRMiavfEs2oXg7UjR7oCEE+NyhUo9w2+UrDGJRRgiQTmLMgtFo1OmsW68l2cywSOAAQXa14Fo4ElL2rm7hsN2TaFtf0fXDfF+Fd2n9s8+690V513OBvCja2ij81MUFP0mSYuREFO/Vi6w6hcwdzH+TYQv+AIWwLJMBRU0ejhdtwwUpd8BUUngvlm8dvNcYoeFPfQ8Pv/vP8f7NX+ajX/hx3D/4aRa/+n/irGQ8vcdoZkhGAisz5rnE+3208Sh7iXSPeJSOOdo7ILEKk+XkWUY6TkBJMpchxxKfWzIAm2FGUx7+yT/Lybd/D/OxwWA4Ozvj3r17hVNYllWzgy46v7m54eDgYGW2FnxEYo/KMDsJ2bS891xfX3N42O5lWm2+RjOk2WzGeDzuPQALITg7O+ONN96oDpzfBm08iUu4TnMOTMbkyrN3bwx3t7DfzQVxW//Vl5eXVdBLvB6N83WEAqenpyuN3IVxUMbp6SlHR0drwXVtkFLy/PnzXmvluOzp6SnT6Wpwclcaob71h6maInuJFTmpHbHQjkTmODNCj4o0Am2z2ouLC87Pz8nTU1LjsVKhfcbzszscU7zbTqHehqG+e3t7xUPvQ0j+giIkf4FJJNIKrs7OWut/fCdwn91w6Wbk6ZxcLBhle0xVTm4NV+o+B8kMgeP6W/85vvT9/zYHn33C9d//GZ589aeZ/uZPkGVHGF+8CRhPFghvyZggk7f4krjC3hYvugWK8XifmV1gvcV6z3hk8Ri8yJmJnDuZcvCt30b6vf8Ss5FiYhLuPv6Y+++/j5ASFgtEmoIxxfcW5OfP8ScnlfcmFPZRKoXNcxAaKQRCSkSeI7QuX9E6Zs+ecfT229sZiCLTWuF3IhElD3N9Dfv7iA5HQgIFjdLg3330EeKDDxAdjMfM5ygOcaM7bhfXzD6zTP/w+8xPn3B2dceRudsufkv/1UdHR533EKSUO4fkX11ddQp/boJz7oVOUb9///5O8TFCiO18PVgMymqMBk2OswlCwb1797hsoX9ycsLJyQnm5B6JK/wChDc4MeHk3gTR4WVtPbjr9vZ2qSMPEwEjnwEpeIuVAoUkuX+f8xbadnTH6ECS6AegZbEBWIbCWyxvU6QPnHuBf3bDvgD1xkMe/Ok/zx/+3j8PZCy+9n/z9G/9CM+/9rNcXcxhfISWIybCcjWfIKVATxJub68ZaYXzgn29hzUZt3eS1BmSdMyhgyQTPJgecnx8jymakYfLyREn+8UMwI33kbL76sxncP/gqP3GBsyu5tzbsayyKUcH+51XkHF9LiZHHE33O5WzAlQGSZqix3uobMGeVJy88V4Rl5S80cJ3e//dGJK/aTNu2+91vIolSh/DEzrW2muuHZYxTUF6QLG5trJrX3ztEvKeZVlxUnnY8yhy+vVqs7bYkaaaNrVJExYHEjcZEVLdegMqBzGCsVRgFRKYAm+OLYoZVoKTEkmCchr75e/n3j/7/XzJQPabP8Pv/uQP8fy3fx7n70j2jzHeIJVGJnO0npDlDpun2CwhnXqS3OMxyDxHLhzMPRjNyAKJx7us6l3Fi3K5XAK2wefVqF42TGjU5Yyh/B54hOsmn7XvT4X7pVzhU5SddpNRiJX6eJetyroFynkwklEyB5+iTE6aGwQahKEt8LKt/24NyX8ZaOqov19vacJo/PvBL3Doy6qQTawEyQghOu15rNLYesNyQ7YHRs89o4UA5bDKFTE3KgEWKBxeOYS3IBS3+YI7xkjKaEuTcSrgvtSQO/Ae+eU/yz/95T+NuL1g8Tv/D2c//pf55Pd+h/OPP+HB4Zg9BTfeMTMzxgfHmOw5DoNLQSmNTiRuf8Jcw0gWL8m1HlN66VWdU0gZO99shFIJK2680d7Q2rKnmrVKhAQp007tucxUH9OTnZZVFY2wse4o6ttRl14K7BQUirmRzEcJR4nHGFjoUafAy239d2XR1XX50gf1/Y1XwWMb73iU7btsaaXvwAqL9rsl4V0atujeMnO9b3UhWq9H2KvaWL8wevplJuxtmCVj7EijPHiywh/AAWJUvFoFRBH+wZ46ZppTPFEOkCn3pSlmVlojhURi8Qjc3huI7/oeTr7re3hndsnFr/w0z375K/yTX/9ZTlLQIsPOn6NGbyAWd8yNx5oZLDJsfobkGuHHWCkQicWKwmFCClm2m8DhqleuG9tPWZw0K/fVy/kQi1JqwwqDEBonM3ybfzngxbo8VuTdypZ1CTAYRGIx5KgNcUMxhLMImSDI0DYpcsi6Gdok3LW8Kapk2NJ/Vyhse+Drb2S6dr4X6aR9NlY38W7a62hafmziv+0+IctlS4N4XWSu6ld8Kd/HlSPVDm9bwrWVZVWPsnUkcoH0HrxAyhE++EwKh0egEVXSjJmbQVLqSgb6RWDWEmr1rzyHyRGnf+L7eOvP/Jt8q7vA/L2f4+lXfoxnX/15ptefkhxfccUJI38Pbc84FCO8OQBZGC2TWVS58ei9rzqopH32ZnOHLKJAKl3UywlWjbSWSXGHl4gOwUdhuaIig6SE7lS2Lr2WCTZ3aNkxcEHKssX30CMPtwu8uIcYQ/t7olKGLc/J4GE64PNDmU39ZKE4sgDHqO/613n/T/5rPCQn+83/l9/7qb8Ev/lL7JnnXLDgWeK4rw3YOdBt43DAq8FgPAZ8bpjLpFjl6NJP24Mx4JTEyxHJd/5xvv07/wcEKYuvfhX/U/8dewvLFM+c/c878uebHoPxGPC5YTynmH2YBagZYIsH0gMGjNondx6jHNM/9b38kT/+vcxGcAUcqgvg+PMTfsBgPAZ8jhjn4EXx1sNNcL7wFPcS0KCvzkgPRqSMWGQzRmNLSlLEA9nj4en9nDE0/4DPDbfM0GJCnhS+MpIym1q515wd3iuOfcGiRmXWcieZOmDY8vjcMRiPAZ8b9sx+8UphscD4HCVV6ejlwRpSMyGXQKLIUCxsEaYvEljsG/aGx/dzxdD6Az435FIWOV61QksBOLwvXp0iEvzoloQRiQ1OXxKUA28wHfwcBrxayDZX5U2/dfW9CPTjqMI+CIE5sc9F1zNC43wedX+Nrk5csRx1uYqo1XU6VeapDvJVdYl9Mzp6H3Zxu1+GewE++LuITv46Kw52tXrG5wbvql8tPNJ7JArvi39CCJx3ha8Ie4AucmlqWWyuSgkiZYx69fqN7gvfg866PoP1Q5Pqp65tw8sKq+hzvem+TfqVTdGqsQdiHIq7q6t3CI2PO0XXqNw4rL4v78AzLrsp3mVT+aaw9/gzIE7NIBBMJpNW+pPJpAjzxuONKRLudsjTEMsSe5UGmdcQxWwAKCVac1EAjEZl7IOl6NARVk6Me031WzcgMc+qbTqgbtS61rWzfjvwfhX9Vz9+/LhIyOKXR/fV3ZxDodPTU66vr6vf2wQJZ16EU7bj8PYuLtKB79nZGVdXVyvWv4v1TtOUR48erbnXxnS24fLysqpvHJJffaJAOxKTcidyEpnj7Zh0onjy5ElrTOyzZ884fvyYeZagM4vXCQk5z89n3M0nmHx7+ZBfIj6Q6NGjR8sQc2O5U4LUhJD8DDeSKKe5+vDDFumKlAFPnz7Fzh1GGVAOP9MomWG0LjxMeX31G6eliGUJfLMs20of1gcb5xyXl5dcXV21ytemX2Pas9O/yv6r33333eWBNpElDt9j1E+rb0N8epf3nocPH1bMY+HaEJ9mHmTrYkG99xhjePjw4drMKm7UTbi4uOD4+HgjT5s7ROKRRpErSESONQlSw/zBAy5a5HvzzTd55513yN96j9R4vFYIbxjv3XF8b4wU6dby9WxSIZvWu+++W7lqZwJSDJRHR1rhUEiuP/iA322R7/j4mDfffBNhJC5xxRm1VoOw5EIg3XI0fB31W+cVhzUIIXj33XdbZWzjuw2t+u05C3nZ/VdDs5KbQr3rJ7C3jQwx3XjaE653nZ7HjRgrsK1825S4rbwxZuND5b1HaVmkqo+CYpUq9va6rImzLCtGPOTawapd6tf08KxMT+vFfZEvwDk6jVpZlhXtl4giAzyG8vASpJDEj83rqN94P6Uu22Kx6CRfHeHIyK7LqiaacXxWV/6vov+uRdXGDdW0Huy7KRVoGlNEWIapWN/gupWNmijDWRvv8GDWG63v+q9xbRza3oLBoVTRMVHdolbDw0uZz8MjwJiVJLvbEE+rw3djzNr1SGigyI7dp+3xxZ6H8QbpNEJ6MpMxSdLXW78tsu26f7Bp36yONv325f+y++9aVG3TjCN8hl3mrrvFsZWMLVdXyxevXWOjZq1FKdXJ8jZtFPXhH9e/nu+1Ct1WoFRx4k5Bun3KDMWaVimFQ1CmL0Uohda68ayOpvrFCOviirf3OCGWG6bOgSrS9nfRX6VvigdVC13lRE2TtJLhddXvNmMUl+2D2Ni1oU2/XdrnVfZfHROpN07dSsaCd7V69ddp8bU2GuH3upXtY7nj12rxdK8L/5WO2MDblyn5YBk+XVSx28yj8ZVfGE0bzjypI7Rpfeodd0RZ/MEygUz3UTl+IxMysRfnH3t8eWbNa63fBjqh8+2aWDuU7TK4dNFvG15l/5VNlruJeFyRPgiNHI8mXR/ewCtO6ddnoyjcV1dWl/UirG9YxTJB4bPkG5J5dM0CFix6SThcLNqoYz6PQKPe+aqOWRAPNVr5bNPnSlLs6oDm8L8Cr7V+G2YwXWc1MY8Yoa26oIt+u+JV9N/P+SjlAQMGfFExGI8BAwbshMF4DBgwYCcMxmPAgAE7YTAeAwYM2AmD8RgwYMBOGIzHgAEDdoIEOvnab/IH2Ya6u3v82QVNZfq+34698eoeg13K1mVYKbelybqEvCdJEXfrcGUo/qrMXVB3JKp7H7riy0qZrk5KSZIUdGxDbgnW4z7izy74A6/fCPX6d9VRE72Xqd+ueBX9V19dXa04rWwLUjo7O2v0ONuE4FQipeTs7Izj4+OVUP82Z5nQWM+fP290zunC/+zsjP391WSXXfmfnZ1V94Z6x45TEoUVOSM3ZqEdigXejtEjwfn5eaub18XFBRcXF5jxBanxWKlQbsHZ+QzkHGvaPSTjdgjtvL+/j/ce5WGmJamZU4TkLzCJRFrB1dlZi3RFyPrl5SXSKowyOGEQixQlMxZCkMrXXL+1jhpC4QPf6XTaWj9rLVrrFS/Y09PTyl28rX51/rF+2+oX3NBfVf/Vh4eHa8YiFrYuTHUCeweExpFSVmHIsRXt4yK79bT6DfDec319zcnJSWusQhOklGt8V+jY4uhA7RJyVRyT6EyK1HB0dMRVi3xHR0ccHx9jj09IrC8OiHYZxo84Pp62huTXHwAhitPMQztLBCMpGLkFMEJ4g1US4UAeH9NmPg4ODjg6OkI6iVUOLywyT5DSkAmxks/jtdRvFBcCy/4hpeT4+Jg33th+ynyoW9NMo0t9W/XbMyT/ZfdfHd8QBKz70cdGJf7eRTkBXaeHMWJe8bU6zU2Ip2q7TI231dd7j5CiODPUFyH5AlF5bneZVlprV9IQBtfvrnETm8IKquu+WJdWBz/THCm6CdUsVBTHajocUgGiOD4xfnRfS/1uqUvfjls3QF3Qqt+OfF9V/9WbGqFOvIlRl32Sbei7bovpdpl2vSr+Fe0txbvQXrnnFbRvQ4GetxfBVMSz6yIeDufdyvmrTfjC6/cV0e5K40VleNX9dy2fR6y4Joved2OsPrr0GVkCtlnANt5Nmz5dp7VN9V0p44vNTuVlQ96d7qML8e5IJLPs8PDUR8uVPSsPXojlhqn3VeBdl6jf6jlAFHlW8ZQTkWpG8jrrt67DeMTup9/mjtzFOGzVb8fZafz3y+y/a/k8YiaxEYFlCHS89usjfB+hA784Z2JcmS60Nk3xusoQ5z+IPxsfiPIzrBD6LDv86kWEEMtcIS3lm+ityRVmSTX9tiE2MCL8F1KYlAmQv1n0W6fdxYAIIaoN1phuvOnYVr7+ve+S5VX238p41GcbTda7KSFIX/SxmnHIdV+LGXg1PZRdEde3/lkQXZfHl9P6rnsexY65X3buHtPhppGp/sBsKtdFvhXa5X9h2bKNdr3sJvyB128L7751jK91nVntot+AV91/qxoJIbYqsT5F/P1A01SpD/94dKiPFF33JOoyNJZbXXVU/LrIF7KGVQU7ZnnaxGPtgYl/3GFJsUKbVWPyovjC6PcF0ETvZeq3jxwvu/8OHqYDBgzYCYPxGDBgwE4YjMeAAQN2wmA8BgwYsBMG4zFgwICdMBiPAQMG7ITBeAwYMGAn6HDatxCiCgGOD76GpYPL6ekpNzc3wOqZHpsQ3ilrrXn27Fl1VJ21tpdr7dnZGXd3d5VzTOy1tw1JkvDpp5+itV47l7SLo83V1RWz2aw6XzQ+t6I4SU3hlSUxKTNpyqjaEZP9lOvr69aQfGttedp6wtgJZsYyVo7rO8fNncS7bgdFB5lCfZVSZFmGRjDTkpFdAFOEm+NGGu0VN0+eNHu41uT78MMPEUYiJ5KFmSEWKdOJ4NZaVFnwddVvkDGmaa1lPB7z/Pnz1vrFPijhn3OOy8tL7u7uOoUIxHWp67fv+TYvu//q9957r7PH2uHhYafTvesCBGeod955Z+VaV4TQ9TrNrginqPd1rrm8vOTo6GgzTw9eOISVWAWKHGcThALz4AFtj9fBwQFvvfUWvPc+qZdYD8pnXFxlHBwlKDnqJW9AVV8EmYCUHHwCOKwAheTm/ff5egud/f19Hj58SCISvAaHQTkNwpEDiZCvt34bEJ8T++677/biFxDC23fFrvV92f1Xr5wKFnmghUQisZDhkN3Yfb0N4f48zyuL1dWvPiDMhFZG/Q7lnXPkeb4SS9CnwUNZKNomHpm89wgvisA4J3ESVOkoaq3h9va2lX64JwS3Swm4IoGMlKNWb8AwQgf5nHNkWbYcNSkD45YF8EpgjCHLslb5rq+vi3YWkXt6ieLQ4+T11m8pS/g7yOScYz6f7+StGR9W3SZrm3674FX235WQ/HrjN33v6xsfKv8i53vWA4K60lFKNZ5HugvfesxGJYsoOlcQRymQQndKQwjFlLD+KIRZAy11DG0b5AntsjzCshaGIiUCkKpbGsJwEHcQMHZPT5MUwTeBfqNsXOF74L1LXeN2aivfqt8OeJX9dy0kv8449vnf5ZTtcF8o2+X08zrqYchdR6ZQNkY8u+pi+esjUdweEln1Th/yXDgQqrtyhChmLy63iDSBcmQqgtC651uox3UIUUyDnBB45wo75Jch+V1jP4qGgNzm6KQMGfYOVC1X6muo37h8/NzHM/W+CDy79p+4XvHf9VieTeVfZf/VgXB9qtlkiV80Kq/eGH2SyMZl+0Ql1pde9c9taIq6jMs744sQdVFkEiuuL3m3QSmFUAqJROpy41IpkiTpNPOI6xiPolXdhKhlEguXu03vY/0UMylXroWa73/d9NuVVx8Enn2idzfptwv/V9p/44u9RqOe6DMiNJXblW+ddx86dWtfv7bSmFvKboIxBpvnoUD16b3H+e7r2jrfNd7he6TnXiOfZJlfJMoLsonv66LfbbT67DvUeb6suu5a/kX5Vku48GOfvJl9hNh0/67r1D5oHI1fJv2oCs6Fhi2+d6nfyggkRNHHyxG7SzKgothqKoV6OzdpqWtbhNefBZ1ow7S2jm7i+zrot4nXy6pXn/6zTb998TL7by3dQ79cCl0Q71qH9VJXPpumiH141//u+6C1yeq8Aw9ShkYurrelxV+jL5YJkKFbvoym9f7aJvfqDSv3tekiXt+GTGLOLenEtF5H/TbRif0/dqFfz1a2DV30uyteRv9dySS2C/GuQu6y1npRGV50VGpaX9ZpVW9bGsp2oV+1e7mZSQ9566PgxroKsbLc6Nom1X3Ro1FkT1/v6K+rfuN7Ybd6bqLVhs76fYXYVm8Nyx3gWNh6Lsf6hlHfWUp9TdmFRpDpRfjWecbf2xDvxjfmuCwTAwu/7F++/nq0pX7OOTwOnMcLhYh3xUX/HfmVtalnYwLkvvtb1lmQy+/OOySrz0dc5nXQ7yZeXWZtoUxTvfrMzrbptyteVf/V0Lw+3WT1dt1p3mV6GpfZlW9TmT6Wv2556zlMC4JLg9F3z0MphUOCCmWXa2vR2QwF3utnvoggVG3m0YdmsSwrzm2Jr8fyvZb63cKrz+ytLtOuM4gm/fYp+7L775onU3wI1NrmWzkq7vKeOPYi3ES/jjAy1d/Hd0UYwZvWqV1Hxq0jkxM44ZB+6czjXOEp2mXPY+XQp+XFquwum2NxfSVidebhCv+M+J5tqOJFWO7DOAtSl7K97vqtQQhReVl2Pd+5yfflRd6YbKpvF7zs/rtmPOoep/Xf+q75wn3BI2+XkSn25uvTYMH7cNNo0kardWSSVCfGLWmyft8W+g1CFfXt6OdRx4rHZVhChZlHVIfYe3EbrUosROGPUpIOb4Nea/1uKdPVw7Spv+w6ewBeyKP2Zfffas8j/qG+hgzXXnRtGtB1tzmUjUfJeIe+i+Wvl+sjd320qK9hqz0P1vc8uig4TVOEEBhv0U6seW32fWtRX5sW8lH6joCIPEO7tH+SJAUdK/Ay0AVRVrLpOYHXSL+RHPH+TL2tt8m3iV6X+tVla9p7aOMf03jZ/VdfXl5WIflx4E+8gRqYnZ6ernzvKoBSivPzc05OTpqn6lsgZXFCd7DWdYV34RtOFe9aLuCsPEleSlkGqy2ntd57hJdYkZPaEXNlSWSOt2PSieLqqu2Y6yIw7urqinl6xsiC1wnaZ5yd3YKct4bkx+0RHq7z83MODg4K/TnPnRKkZo4Qe0i/wKYK5SRX5+ed5Ds/P8dn4FOP0B7mCVIsyKSsDrp+bfXbYDwC34uLC6bT6Vb6m5Ytp6ena0ZzU/lt+u1SPqbzsvuvDiHJbQiM7t27t9OU6+LigqOjo42j1SaeYX0ZThWPldoFl5eX1cng9QeiC51Q36YRBA9OWKRVayH5e3t73LTQTpKEo6MjDu4/QDuPlwLhcnKXcv/ePg1bUlvh/fLU+CDfvgAdQvK9xUqBcCCOjjhtoZemaVF/L3DS47GofQ3SYYSojAe8pvrdIvPFxQVvvPFGK/2mOB3vfa/T6uNyK/rtWRZebv8dMokNGDBgJwzGY8CAATthMB4DBgzYCYPxGDBgwE4YjMeAAQN2wmA8BgwYsBMG4zFgwICdIA05GEMG3HAL+V2R8HY+xxgH3gALMuER+/cwToDzwC3Fjdv+LR1sjo6OKr98IYoM3m3lgw/A8fFxFe8R3lEXjirb/znn2N/fL3mxEo9Q0Nlefn9/f41vHcIKnIDCnUshZY64u2J2/wNEMsa4nXXmYwAAIABJREFUyEOQZUyC9x6bZ8hRinHZMv5EKJxxdLXrdWefOB8oQQtVAF9wOpNrXsVNqGIgXJRbIri4RJ6OcYxKoNnFUSy0QxxrsYv3Y71sVw/XmE/T/XEd256DTaj7ePSJLQm8t+m3D3Ypt02/2uHAJySAYgRSYSSo8ZgM0G7G4//tr8LXfpWzT77BbWLRWqBvrxFJupWxYOkheXt7y97eHt4XKe6NMQi5vTLeLR+GOHtzda0lPEMKzdXVFfv7+yRJwmKxWPVkFNsf8DyzVSxBaLBgCEImJes9jqJx82zOWCvGWjF79oyR2p4lO0kS7GyGPtHgZRFUZw1SqyJpcQcX93osSZ2XJxgvKt95Ibp1guB1CaCkwmGKwDjl1yJ06/T6uKe3GbFNaPKS7EOr6d56e4bPJkevXdC3vm36fVV86/yb2kkbl5GSIhwoUXg0Xhk40jD9vV/ib/6nf5E/Kq+w5hQ9HnFspwg/JheKXHzWwlpWVja1Fm9nAJiy4Z3fHnkqhALvqzHYi+h0M+9XQsQby6uEUZYhbjIMgLV4IXCV4reX1+VI7SEqA4hiDuFsESsipCg6epYxdxY1GnOUSuZbqidEUcYYg/CWMBtQiS5iXjqMTk2jbhd0fe6DwZROYinyeagyGVAIjKvPQFb59MurEdeja+zImrGM4jfaEN8bR9XWc4xs4t3XgAQ+XWcPbfrtG1vTN7alHktTL6NHcgwIvADhcyBhqkEtzvm1/+wHeD91XGdzdHpEPpry/G7Gg72E9G6GZrKVuXMOLTXWWdJksjxAxuTF0XVtqfb8enBPL1gY66Sadmuhq2C2LpBCrjV6kKv4cIhyxgCaRKVYb8gygRAJQi5Wq1NXvrWMplOsUNhFhkxSwDGbzdjbUyi9fWYH6yNTUz6PKnt6Mf3oPPNI03Ql2jRuN+ssSi4jS9f49hjhNpXtQqNuQPqMrjHfuB5d6Ow6C4hn0F2wTb9d2yeWt0/Z+L4mHWnhitE8E46UDGETxspx8Us/zchfsTCeZHpIKkZwm/FwNMb5czJ9jZCHWxl770Fr8jyHNCXP8+KcTZ8hRqPWnBf1aMK2NWpT+SRJqpOy6mHofdaddZ7eexQCL4vRJDeGJEmRiSS3Fik1Mt8upzEGs1gUhyelKVYs66Y6HBpV31eojzDLjOdlVK2zxbGRrltQ1O3tbXEynNRVhK41oJSrZkaBTryfFUbvNh3VR/au8SUBxhhslP9kl1D3Os8mGeK2Cvk8wj5aG+2AmFbX2VGrfluWtZue265t3KZfLbzGSLDYYmBSgF3w2T/8DZzPOE4PmNucM7vgSI9IznP0/iFn6ZS9lhMLrXdorxG5Kj6tQlqJMIpEJCRu+wPsWJ+yxZWWbK+89Y6EBFEebyDdatSkaslQ7mg+p6NSvi/OW5FSkrkMmcvy0OWicXOx2Eaeg719nj99xvTeexymezgpEc6i02S5T7EFTQ/PSt6FaqO0TOcjJQKPUqLTiXaTyaQ6MS7MOpQGRJHdXURtEk6Xa5r9bEK9Xft2fK01SZKsHBPZB01yNskS/x3qOBq1nyPcJE+fvYdW/fbk33e2FN/fpF/96aefcpdbFvKa49xh1AP0OGOezbCLI+7u3ePpxSnvTA8QeYa5N+L25pa33SGner6VufEOKx1GeXIMXhYPrvEeg0G1WE5X5fCsG5kym1HL4Gkp+BhhyxO+HcYZEp1grUO3Wf41/qsMnfUIHKmWeMB4ixeShVsgUSF1xkYsFgvc5SV3z59z7c5ZCMFIes4uZlxe6GLPZwti5YaR6OOPP15uKDvPTEvGLgemCLfApgJpFdcffbRdOIpT5J8+fUp2m7NggdAebSYomTHznpHSFd9PPvmkmgHE+wdtEEJwdnbG1dXVyiintW4tn6Ypjx49qmYC8f5Fl5H5/Py84huHzjfNdMNywzlHkiQ8fvy40+wjrmeo28XFxUp9t5XZpt+uM+dA4/T0lKurq6qN/v/23iVWlmTr7/rFI7Nqv/d59uk+3b7iYmEwnxBYGCxsg2HAgIEHlhDMPLaEYICYIIE+WR4gMUTyCEuAkJAshISY2ZYQlowQmKEB+8PifrfP7XPPuWe/X1WV8WAQGVlRubMqI2vvfW/3/vLfOl27sjLWWhErc8VrrRV9hiS2wzr96jdvXqGLAssCZQRWFcwkvP7T/zL/4P/4m5S/ueP39l/y+fKSWenYmU5hX/LBXrLrNz/cWoISHqHClqtWCilBKIH3DtGz9iC5P/RbWUTqaTQlQOCQOAolwnBdeAolEJ56oXIz//ZoI5VFT0rmdzdYYfDO1PJ5lIxTpM0LU957fv7znyO/+xmycthCo3FMd294+XKPvqDnNNw7neJ9++23dQJlyUJAiQGvwXus9Cgk1z/7GX/Q036Hh4e8ffsW6SVegcOgnAbhsEIik+Gz1ro5NX7IcZEAR0dHK6e3Dz1u8v3791lbz20cHx83fDfxTEc11trGyLx//z6bV4rz8/Os0+p79Tswo9jh4eGgcH7fo1+pywIEKFFCUaAk7AHlv/6XOZh8zUxLztwVQsGues3sehc1K3mxsCgnN/7zFpzxmIVlb2cfWzls5fA27Oz0lceJcJ/QCB++O+ORKITfXFY5ifBBhkkxpZobqrlhUkwxCwtOIG3PP9Q9njhBoUqc8RTzW46KV1i7D75k1yiqxYSZ2GXXKLBhx0gIhUfivAAk0kuwYJVCliUeidA6bGw7G3KN0p8DtZ0yMvVHaBY6w2NQ3+Ua5ceeepNxMyYYRMRy2rL8WD05fj6fNw9c7gsceVfx1DzIGjG0ZYT7Q/ycXjk91KprfaMLkU8q8yZ0jZ5yRyw5+s3F0NFK5LlJvxsnvn/8v/iv+Vu//x+z+w//T759PeF8/ku0L9k7POLLjUXKu43MtQOPBGG5m12AcPh6t8N5yUz2bJW64OuRJnwNaw0K5xzznvabCMViMUeqKQiLx2Kda7aIF31+IlU9lK3ldT40vnUGj+HczZiKgrnySH8H3jDXDgrF4u4O2Fv7Mm2zUj9ixI8JG42HP/pT/Jv/+X/P+f/+P3Hyv/5tds9PWUx3+XxX8XrnCOc258oqHPUCouH29pajVrq4Rc+5JEVtWxaLBUVRNPvvMW2cUZtfwKkI6eIOjo7CouZiUa99hB636jE+7m7eLIzF+W6c8xpjsIVF+312tEC4G0rjMMUUJx3mD/8/3OkPSGTIGyrqLVII2+I9i8UjRvzYsdF4CAdO7HPwZ/9tdv/cX+Lm+poX+4d4DAscE7+3mXrybn/69Imvvvpq9fe+96cuH71T7yGj/PTTJ96+fdu9PdVT/vrmmv39/VWWKzQMLDRWghKLMNMoSszimg9/73/h4q//laUoPhiNESOeCzYaj9/oU16zh7QFCs35tYFpgTAFk2qOO9j89hk8kuBcdDm75RXLubPH9+52mHqr9KaaU7DTnB8iEFhvKXq2Wg2eq/kdR96ihcbimiMEPJ6egQs31ZySXSThwKMQneJQhKmMpD5+UYFHIKTAClCl4vbubLmlm9B0YYUDL0dLMuKnjY3G4409wCrBwi/YcRpdzrnRezgNO9MJuqfnLl18QQTTSqNt+Dte64v9Kl3wVSjnktKu3qyd6s0PXDrBjimYOg0eNOkiRz//yUIt+TpZ3x9pCIzSCBtmJc4rhJU4BQpNaWFeGw7pwQmB8/lHEowY8WPH5tfPFCgHZaFDDK3y7M0NKM1MgxKbV42Fog7GEjg9p3a5bH7vnXXU72klbkHV04eaHtKH09B6yls1A92Ss6bRx9/Iu4avwyLvHZTkoVR4HF5YvCywSAoWoKtwTgouqbODOrY24xjaESN+1NhoPOykorKOKRP2LCxmBnPgERKKyiHUZtvjJRjr0FrixQTjNCqZK/QEteJjp0+Jr0V1HmTtPNmzWYMTYH2B8zo4hWm5QqOPf8rXennP70JiYSERhQx+I/FENT+BWcs1ueUhO65/jPipQ3f5v0coCmQ8KUx6nK59LgCvRa+XlgAKHeMrLLq9yNC3VV2/aFIs1w1kfSR9cLfeLIAEtBJIAVIvmTWenz38U75ahRWXFXd1r/ClQ1iJVxqo0LYIfxcKLxxCyTqnB0hZgrd4VxuQmp7HJ4Fr26PLSarLPuY6UzUel/V/Hhqdtw/h3tbFvAubnskuGdsyDJEj1827vdi+jZ/FELnWybFt7E7u9U28008AneOiuq5wH9IAoPZBuTkNsY5nrgzOuZUTrlJHoCH8113zDqywaBc8MAPt8H7luGYvFZgY4gFOPOm2dzuAKcbueCHwsf7O4aXEOd8blAirjlDOO5xwiDqfh3EGKdXz1u+a9o2uAkOwjWHr1W/GecNP+f7em3ds4+a7SfBIJwbT/DYXDGM8QruXeIgMKyMPWR/47JfvvqrPvc7pmTo9PJsdmmGBT2k7tw+6bkLylQoRvCrvoOtID1enJ0CE3SUhUFKG8chz1m9H+8Z22/aw6SHo1e9vgf8m/d4zHl1uvm1rnOvKmwqRhhJHPjnl01iWtlx9iC657Z4pF708PM2UI95pLUidN/JospqtXmwe0CGuxBFpfcMLz3I040LyovSeHHoSiXUWJxzeLRey017oOeq3/XsaUJbj6t333jxUv7mBbU/1/mpY5vZMQ5Tb32OBbee2Wut7liuXRtvHP7esECH0fFtL3ctX1COPZNYRRx5FUWTR9z5MAZQFpzQqxiAwPMQ88Ff3Rh6IuMK8TOyTM/LY2dkJMrg6FJxlmoAw6lje+xz12yVDLBPrm8uja73kwfrNwFO+v/rq6oqqqlaMRZdF9z6csh2DpXJ7FQgV/vLlC4eHh/eSivRBSsnnz5+3staR7+7u7r35Yw7/k5OTJvlLGmbe1EtoDAtKO2GuHVos8HZKMa1Pfu+R7/r6mqurK6rdS0rj8bpA+wXn5zcINcea/p6l/bCfnJw03rjCOu60ZGLnwC7Sz7GlQhi4+PKlR7oQ/XlycoIwEl96UA5/p9GqolIKWbvYP1f9pqOn+H7EtYaTkxOm0+lG+pGuUmpFlpOTk+yRyyb95q67PNX7qw8ODjoXnLoWZJRSg073Toe1FxcXK+HPQ+fH8RT1obi+vubly5edw7U+/r319WAxKKsxOpxG72yBUPDixQsuemQ7ODjg6OgIc3xMacEribAL5kZzdLSDkpsTznQNq2N9AXCeXSmY+AUQdnqsFEgv0K9ecd4j39HREa9evQoZ4rXHY5F7GiEtlRBolr3Yc9RvV/tGPpeXl7x582YrmXPfo179PhHfNv91+pXRoqYLInLNvDud8wyxXO37cx+sdIW5fW2b+eJQ/mnvEGVo829PW6JYOb1CM11ENlMKal2ovtTwST3S+qy0ixDLacsWWCzqVHHJEErImm6rDZ+jfrvadyhSul313YRe/WbgKd9fmbPo0sUstzHb9z3kodiGf3vqta0cbX5Nu9Bul3yaK4tZUZ56yrgNuurUNXXq3OXJZrL69bnrdx2tbehva4C25Rn5dpV9jPd3PDFuxIgRW2E0HiNGjNgKo/EYMWLEVhiNx4gRI7bCaDxGjBixFUbjMWLEiK0wGo8RI0ZshXvGY9Ne8jb7zNGnIGYtj/vdQ4Km0vtzy0Z05Xt4qANSSkOEQ01oJ0PPiT+ITmIOt/TzqF2acw7j7vU/8D6c/tJcijEVeYc5p34ojdNbEtsS73nO+o3I9Vpto/0cRDf43MC/nGu5eOz3V7dvhKXjTaxkV4MNeTji/emRfjk01gXxtB+4dfDeNy9om87QhyDlGcs660H7+szW5F7yHL3KsqzPhZErZlzr+mDpBz5gIvUw9TQGyvs8/TUvZvRfw4eoWhlO3oPnrd+2M13796G0u67nlN2mHGyW9zHe35VMYl3KTK9tE5WXRhAOLdvFty1TLv82zRx01Tf9DKk8xIp7OrCS52ITqqpiPp+vpGWmdpl23iFF/2HU62TufDiEgDoyNjffiDEGLTVaahwmkEjq9pz120Ur7X1z0a7bQ7xNU/3m0HjK91dHQdrCtC1uvBbvyzkrs8swxes5wrfvS+MEcrMopcOshwz52gchBwbJ7z6cjevrMPiyLHtpTqfTlXp4H2TODffu0tG9hx2WmcQafeQ9PE0dVmdCSRzP89bvpnrkTj1SWSPN3HI5+s0p/1Tvr46nfaehyOkQJWV+cnLC9fV1wzwH0eJ9+PABa22Twi1nWBqFPjs74+rqauXh0lr3Bp9prfn++++B+8FXOUo4Ozvj+jqcihdlXynrBF5ZdFVwJw2lMuB2KHcUHz9+pM98nJ2d8fnzZ+Z+F72wzJ1nIi0X14aj60lWSH6qYKXUSn2Vh1slmNgFISR/gS0F0iqu6vs24eTkhF//+tf4BRhlMH6BNjtMJ54775HOP2v9xnq0X9yyLPn48eOgGKRmqusc5+fnXF9f95bv0+/QaeFjv786nnydsyC0v7+/dUivlLI5VXzo4tPBwcHK6d5D5p3ee7777rt713LKp6eKd5XxFlAhAbJRISTfuwIkLN6947SH/qtXr3j37h3m3XtKC05KpK/YP59x9GKCFJvNz7rRYVNfDwsBJQa8Dguo0qOQXH73Hf+4R763b9/y7bffggWvwGFQToNwVLASkv8c9ZvS896vGBfnXFPfIfDec3R0lHVafa9+B+Kx31/Zl5KuvWCSuxgWmcZyaaLa3KFbvC/yHcIblglyt6WRLsZ1fXY9a86BdZbZbNZL//r6OljzOiQ/rieko8BNSOsQ65bKnPy48ulcXsqAi4uLcKJ7hyjpAuNz1W9EOjWK70uOftN6pn8PaZ92uU79ZtB4ivdXd8171s111v29CV1zw9w0au257NB5X7pItM0CVTpH7FxIi9VKqqcUeKHQun+xU2sdDs2GkPxUK7wxYViYkQC5K99sKmODKKsQjbA57VEURaiHA2MNQi13W2K+kWet3xYvWO5A5SaQ7qKVi2z9ZvJ+7Pe3U8sPWQ1eRy+dUw5ZMGqvLA8Z0rbndm1LnlP+3lQlLSfC9mW62xLZDUkwDDTJgMTAHJVdMqcIlKLMbuUzRxfx95DDVDSjo9QP5dnqd0u6KdrPQTvV4VA85ns5hGeXfkcP0xEjRmyF0XiMGDFiK4zGY8SIEVthNB4jRozYCqPxGDFixFYYjceIESO2wmg8RowYsRXWGo8+T7ih+92PiVxfgrifnjoDRTx0v/wx6r/i3duS7SH5PNLrK14GreCmHPmaostEHtnlt8WPTb/toLAhviwPKZej3xyeubSHQqeH5mxq/D4PvHUY4vTTRhevbb3rtpGpy4mo08N0S0RnMI9feoA+0kvpvQ85QcKXeHHFgOTIt6TjEzlXYy2eq37bL1j62xBHtrasj+HolVPHLp6P+f7KNMb/KXqTbYV+LN4PcV/uQl8bRTY5XqJFUTSem80LHmXOcE/vevCVUqvu1qlQLGXLlS81kiFB0fLvVIbnqt92vWK7DXFP3xY5+v1tydClX31xcdEEvaRGJI33j1b45ORkxaU4h7H3IRrx5OSEo6OjJjgnl4aUki9fvmxl4CLf3d3dleu5NGJ9YxhyGlXpvUd4iRUVpZ0w145CVjgzQU9CmHnf43V+fs7Z2RlVeUJpPFYqtF/w5fQWxy7ebabQbsNY3729Pbz3SUj+nBCSP8cUEmkFl6d9Mb9BvtPTU4SRWG1BOZgVaFWxkBLN89ZvF7+YquLk5ISdnZ2N9KP7vFJqZQp4cnKSJWeffnPr+VTvrz46OsoOuJFSbh3Se3l5mRX+3AXn3INOUX/16tVW8RNCiM18PVgMymqMDiH5zhYIBS9fvuSih/6LFy948eIF5sVLCgdeCoQ3OLHDi5c7CIpeGdvBXTc3N0sdedgRMPELoARvsVKgkBSvXnGWKZ90Eq9DSL40GiEtRkpUM1h6pvqtkT7HkfbV1RWvX7/OKnsv3mjAe7RRvwPx2O+vXJdU5DEChJ5iaDV0wanLQm8jV6RxL8JQyJWQ9fhzTsj7YrHAGFOvJSzXJYbUsT2EvVfXjjK5vZYxJtyXEBESECI71eJQ/Nj026a36b5NdPuurUOffofgsd/fjSH5j4EuAX6b87Xf1vwwchjKKsgmQK4ubuWseazS2HhDEpKfjzhk3bQw/EdGv7+DNZ02798FNul3xXK0h0iPgbal3mab6yG8u3qnx+Lv68Q/XS/XkNX+FUNRb99us1Ub16rW1i/RwZA0dADOOxwOH1MO+GVYf/vz2ej3ibc6c/i3v+ekH3wKGbr0u2I8NhmNNpGhW1XbYOgQsYt3agzbc9cc/pvuE7Jefe+oYi79pn3i/XGReovdlngtvb5uTyVHL2n9hRBIZDN4eYye+Eev3xbdx8KQhc51Mm3L8zHf39HDdMSIEVthNB4jRozYCqPxGDFixFYYjceIESO2wmg8RowYsRVG4zFixIitMBqPESNGbAXZt9f9UCeZSF8p1ZxxOQTRyzF1YBtyJkrcp2/HGOQ6caVytOUKR7bcp+PJz0fRlc8j99yWHLfsOuFCXSDGfqz6R2yi3/gFtOrZPj3sWeo3uS9+jzrLlbF9aFIMOM31Q1knby6e8v2VXdGMqQdi6gy0rYOKEOJeGHiub30suw3vyDMtuy4eYl35Ns91zlEuIScQvRGXADs7O2itg7ExJhwYNcCDMD7Uqddhp+GJ9GqZlRJZJ9pNJpPwh116lEbEE+OiHM9Rv20DkvJs2iYDbaOWW9ds/Wbwfor3V//www9UVdX0AG2BY0EIocRXV1fN732CxJwH8ZTtyCM9X3QTIt/T01MuLy9XrH+O9S7Lkg8fPqw8COmD1cf/4uKiqW8ast18okA7ClNyKyoKWeHtlHJH8fHjx96Y2M+fP3P8ww/MFgV6YfG6oKDiy9kdt7MdTLW5vNa6aUcpJUopPnz40ISOYyy3SlCaGJK/wE0kymku//APe6QLIfmfPn3CzhxGGVAOf6dRcoHRujno+rnqN01LkcoS+S4Wi4304X5n45zj4uKCy8vLXvn69GuMyeL/VO+v/uabb5ov7cRAbSvXPs28DzGyNCrj/fv3DfNUuD6kp5lH2XLdq40xvH///t7IKm3UdTg/P+f4+HgtT1s5ROGRRlEpKESFNQVSw+zNG8575Hv79i1ff/011VffUhqP1wrhDdO9W45fTpGi3Fi+HecgpcQYwzfffBP0JyQLASUGfBhpWOFQSK5+9jP+3x75jo+Pefv2LcJIXOHCGbVWg7BUQiDdsjd8jvpt82q7w3/zzTe9Mvbx3YRe/Q4chTz2+6uhW8nthozWOW3kvp4hpZsOe+L13OF52oipAvvK9w2J+8rHkPR1ZZWWeNxKUKxSIU4uZ068WCxCj4eknTkop35dD8/K8LRd3IfweufI6rUWi0Vov0IgpMJhwvKJEEghSR+b56jfdD2lLdt8Ps+Sr4144nzutKqLZm7MTXtN57Hf35WJb7uhuuaDQxelIk1jDMaYZig2ZP51L9gryXDWxzs+mO1GGzr/65wbx7a3YHAoVR90rfKiVpt8GXVuUI8AYxrL3idfOqyO340x964nQgMeIQYGRvmw5mG8QTqNkJ6FWbBTlM9bvz2ybbt+sG7drI0+/Q7l/9jv74rx6GqQdC4ZV5lzV4tTK5larlzLl85dU6NmrUUplWV5uxaKhvBP65/WO04LAFCglARsvSbZP2SGMKdVSuEQhKTCIJRCa13nCx3Ws8V5ccPbe5wQywVT50CBc8N2g0I0rUAL3eRELYuykeG56neTMUrLDkFq7PrQp9+c9nnK91enRNqN07aSqeC5Vq+9nZZe66MRf29b2SGWO91WS4d7OfxXXsQO3t7STDcipVDFvJFH55Zf7E3pn/fHNm0PvdMXUYY/WCYDyu+V0x2ZmIndOxDS44UHxPPWbwed+PJt0/PDcvif07nk6LcPT/n+yi7L3UU8rcgQxEZOe5PchzfySlP6DVkoive1lZUzX4T7C1apTABC0pm0JzcLWLToNeF4MbRRZj6PSKP98jUvZiAea7Ty2afPlaTYxAc2/i/gWeu3YwSTO6pJeaSIbZWDHP3m4ine39HDdMSIEVthNB4jRozYCqPxGDFixFYYjceIESO2wmg8RowYsRVG4zFixIitMBqPESNGbAUJZPnar/MH2YS2u3v6mYOuMkP3t1NvvLbHYE7Ztgwr5TY0WU7Ie1GEuFuHq0PxV2XOQduRqO196MKXlTK5TkqonyMWv+BMgrQCmIfo2kqinAhRvx6chUm5Dx5MJcALnA2/bfonCDSODl9jzfJaX7n4zxrYmR42ZavFUh58P53dnSOsESt8u/kHOb0Lv89njt2doywZpZD3ZD46fN203aZ/3i3/hfsFk3Ifa8K1Xv6Aq4L6KydQ2iFYgAEsWADjwh91Gzos1tVfe95ffXl5ueK0silI6fT0tNPjbO2zVzuVSCk5PT3l+Ph4JdS/z1kmvgzrTlHP4X96esr+/v7K9Vz+p6enzb2x3qnjlERhRcXETZlrh2KOt1P0RHB2dtbr5nV+fs75+Tlmek5pPFYqlJtzenYHchYe7J76pe0Q23l/fx/vPcrDnZaUZkYIyZ9jCom0gsvT0x7p4Kj6wC//y/+M08U+twvLXXGH39nDX1doBUZUaK1xznF2dsbizRvm83mj9z79xCjRNOQ81ifH0Uspxfn5OVdHRyilmM1mFEWx8oxuwmKxoCiKRt62Z2zqsh5Pu5dSUlUVs9mM856cLakMkWYanJZjwGP4ffQQPTs74+b4uJFpE1wxgV/+gpsP/4DZ3QeUtYidP0b1p/8i/9x/+J9we+qQVQVCodUUgcF6gxAK6x1abn5/9eHh4T1jkT6M7YoMOWU7Vk5K2YQhp73kEBfZbU5R995zdXXFixcvemMVuiClvMd3hY4FKyq0K6gUaLHAmRKp4ejoiMse+Y6Ojjg+PsYev6CwHicl0i0wfsLx8W5vSH77BRUinGboY6LdAAAgAElEQVQe21kimEjBxM2BCcIbrJIIB/L4mD7zUR2VnP/dv402BXfecmPvqHanLGYzDqWjEolL+HzO1c4OxphsL8z4YqT6aOtpE4qiwN7ecrezg7UWay1a65XcHH3tZ5KRWvu56Mp5kcp2s5H6kkdqKHIzkMWySimqqqIsw7PgFwtuJ5OsqOiCa6bsUKARe+/Y1RpzsuDm7//P8DePePfv/EcYXgISAXhnUV4gFOBlkwBq3fur0xc8Nk7bjz41Kun3nJcvYuPwf0PjtXuQdbE4XUinWttMfTbV13uPkAIlVD08pT45/r6c62CtXUlDGF2/c+Mm1oUVNNd9mJcKGQ+r7o4UXYcv0xfsnF+zs6upnEPdyZAAaVcj7BzFQXjBpGR3L4x2pFr23jnGQ3boNpbve9E8gsm0REgFzqA0KK3xmKzAunWBcM3vG1zXVWZwWVqfNs0c41YUBc7PUbrEGMNkulsTNb35Um4Lzx277Nt9ptcW72aovYJi/pFf/Hd/nd/7V/4S4rvfC88IhrmXKAteAfje91evGzq1G7PrYctZJ9mEoX72Kd2cYfFT8W9obyieQ3vlnido344Cg26fLAwHhWMuLrhSnpfFDso7/ERjbwxCuTD8Eh6pBFVVhejg5pnaLL/zy5yY3vskTkiEf6KvvEdpBVgQIfZCSIeQrraT/fwjbyFE0z6x3ZVWqxn1aoMWZI08+uEhCV1KjGpveY+Qqq6PxfkKJcO0TCoPYvO0+/X8Hef2DrvnEPsVN+4WpordosD/cMGv/u7f4bt/908CEqSppy6wYI4WZa949/J5pC9mV489dOGzPXoYMnKI2GQB+3h3LfrkTlu66tteMHU4lJcdeXfye6WVpyiRWWYYv/ZoaGXNyoMXYvnket8E3uUMnw9uHTuTgivmSLmLVlOqxR1uoRHsATMQDo/AOovzYcrim3C8/p41pjXw9X+h/FLkjeUJL3EYBYa/raP5zOk8ls+CbNomyu28TXK3Bj0JCd65npotkU6BApX8RXuPxzoPwuC8x/lFvRbqkEr26nAmb3HCcOvAeM+OOELeOObaU31Tov7x/xPq5QBhQ35sHyOoV+Xsen/v5fOIn20jEhsgXYzKWfBZN2fMQVxIS3eDUnmGTFu2kSHNf5B+dvGPf8UZwpBph1+9WPdy27XtPYNf01yG5OdPW6yXXEuLFwfsiCOMr5irO4zzFHIPLzxeBoO0sBapipBFLU7zZP/L66JBD08tQsp7z91GGQmJiqQMBjxMo0RskF7+PhrUWD5sqSCEoEoWUJ1PIp1l5sufrt/IZugRdO5clnyVAy8UIBFaY5Fhd06oJc01ELZiOvFUXKBmC/bKg5Csaq5R1lHaK7wSCA+WCgNoC0J7FC7w3PDuNMajPdro6p27EoIMRXsUsAlpyPXQEU/ktWlOm8M/lSH9DETvy+M9IPLXPMKOj1++3AOmUl0jj5wXL2fKB6B2Hbdihqw0pb3DmjsmxwuwDnWncd6gZFhsc9ZQqDK8vIi8YxiSDqiZGvjwd075xpg7h66H8zi3TBzcs5sm43OOQNQJkkTMVSEl3po6MRNYt8zzG+XtQ1jCWl18lXXvIrzHu800tFIYY5B1u6iwqom3JmRX6ZHBeMVN5TgUR+wvYE7Jr6dzdkrPwZdr0BUzHJP6OV+OsULybPT9Dix9f5tfY8XWvaTtKcBvA11DpSH80+HWpoXXTfzbMrTLSQfoCnDMKUCCMDdUSDwaazzSgxYS6SzChe/Sw3S2oCgtd07AXCC4xCiBNB7v+/1Eul6uewZ/tUIby7ZhxBF6PuGN2OWc33C7D6fmDfs3xwh9g8MjlGReLdjZ28W4MPRdmApdFsHVIuMfUuAFODwLU+EFCCV7yxln0WWBLgvu5jO8gHI6YbaYNzRz/kW5XZgEIbVqaBtnsd4hlEQoicNjnEUVOou29W6lnpFHen2TXFKrhm/kPdmZUlmD9BLrFGoyozSWqdrFlg5rC5ya4IRlTwgshvOdilt5zUtjmN4Y5pMplS/ZCRl0ceyzi8NMKpTdwXUYjjb6n9ARa+FFXDj1SLFcGBMe/GQPu5iH4XDiv5CO6E73XvHHraCUQAkVAlv3gK7Ocv67hLG/4kJatBO8KPbwdxXX4gYlgm+HdBbpJBqPmd1RL9Kj8QhrUL5nt8QHQ+qsa2oqvEe6vATBQgjcIviVlFIgnQVDMNLWoPpo1D9LfJDVWXAO6WT4biqkc8QVrTiS8AJ8tWjnrN5YR+Edwi19hhTL9Y9N9cOFHTkZp0+mQhYa5R2TiWZRGeamQjuJm91w6685KjQTe8sdxVYj7lyMxuMBcNRZCL1AICliD6NKdt98xR/7/f/q3nEWqfGYXJ+i3/2MmSEsilGiZQl+hsX+zo3Hm7sTJv/Uv8j1Z0OJYa+EnWmBtRpjp2ih8UohnePu7o7d3d3wsgA246GN6zFmsQjTgzhtkxKfca6IkJLbmxt2d3dRLNdQ5MQ0BnsTjDHBy9f7sLDsHN5afFEgmkXn5SIzhK1gV9d3Op32N2JdH+IaR13f6F3cV7/GqUyGBd359TWTvUPkxHBnHb4skHqX8uA4ONpxzaudF1z+o/8Nv/v63obHY2I0Hg9AMB6S2IU1r7pUTF59xeHP/vxqgeV+XU3gEsteOBxKAhSEHTjHcgb6u8M/5J/kL/yn/yN2/w0S0FTcMKNYTChKudJvfjn5wutXr5vvnrxUigC3d7fs7uyuXMst/5svv+H169fZvPr4Ou/WLlanMrXr+1C+m5DyPTk94dXLV/EHjNAoKqAA61jYa4rK8fFv/FXU3/sftpIvF6PxeACWxkJAPSQNW4WeShbxaNglWpb/xu9TesK0BY+rDEKWlKUOi1a/Y7y9+YyaHuIczCuD1oqp0khVEvw7VLMQeHM958XxMuemq708NyGOxGZ3hulkdb0tdzfi9maBPRaNm3y65tM39bm7rZiUq2t93ll8siiaOpJFF3VjDNdXM169zDvUKq2rlJLZnWn45pSD5Sjk5nrO0WEdO2UMogAqEdbahAwxRsoyOf1M9cRrlKPxeADiUFkIiRceEQ5RwDqHQyPa73+9ExNRalnPmx1YR+HDw2SkYddPsp2Qngo3B3PmWiI87E0kzOsVf2AuKjQqTDGAhbN4FXwVLYBSveYvGFdB5V2zVdqg/b0LQmDwoBUW8FKsjkB6jE/lHV7JWms1Erld7fHhRb0+oQIfoTWG5TZzFoSot4EFC2ez2ietgwW8kk07W0BpiQEmUmIVKCqMk2ilmPoZPaeVPhij8XgIfO2LohReOAQeKaEQGi0kRm6OPygrxZwKCo3SBdpLrF1wY285pP84wqeGsgphC0pP9HOHWQEKtBKoGNkpoLQabUUweC0juRbhrURXckkr8sqkURiFdmKF3oqj6gaUVi/LOpZDybq88jJcs6LuKZY0S6uDzAOgXKDX1LcP99pAUBhF4WS47iRCerCy3sYFYRW+gJ2F4HLDqOMxRiSj8XgIHAgfVifqgS0SgRAe7xza6c0vgTBMtGAGLKxlR4LUArGjozPo7xTlwlACiIpLeYctDzkuJRioCK7SzWp+YYlvxNoT69bAqare81495DpngS+WzXFKa8Nr0/C13qJk9zQk/pbWK5U5m5+op7ZyMbhsg6SdvZRUGEqlmHuYyDusKsLzpMO440l3W+Jp30KIJtAmPfgalo5RJycnXF9fA90Rh21E66a15vPnz43zTpYDEcvV4dPTU25vb5uGiHPPPvfcoij49a9/jdb63rmkOY16eXnJ3d1dc75oem5F+6ChSNNay3Q65Te/+YT3m52UUh+UxpPRhVPUFy9m2RGYUaZYX6UUi8UCjeBOSyZ2Duwi3Aw30WivuP74sdvDNcFcwC++/wXCSOSOZG4+cTov2d0R3FiLqgtqrfn1rz8j5UP0O9tSv5/RddDYNvq9vZ1tpd8vX07py6W1Sb/zebWlfj+jVMFisQDpmTLhIxYtZizslCknTHb2+HI3p0Qg42FddVOI2scIBBeXZ3z6+IX53Q0zJKWaYfyUXRQz5oh6Gr3u/dXffvtttnU6PDzMOt27q+Jaa77++uuVa7mIoettmrmIp6gPtcAXFxccHR0N4pmeI/rUp6ivQ1NfBAsBJRX4AnD1CFxy/d13/EEPnf39fd6/f08hCrwGh0E5DcKF9X0hR/1ugcfSL8IjnMRKUMyxTBqDfvfmDRd/uJnOmzdv+OrdWyDOzGoaDrx0CDbrV6+cCpaszsahY9qoMXFL6r7eh3h/VVWNxcqNi4mII6G0V8gp75yjqqp7OSNyEctCaJu0Z0plaVyrk5wNs9lsq3llephxn6yxh47yOedYLBZJEBbBf2FZAK8ExpjQc/Xg6uoq1EnQBK5FhEOPi1G/A/GY+vV1UKax4ZB1HwphHdzc9Gcbubm5wRqHktSL3QRahFweMjlOtEu/KyH57cbv+j40tiVW/iHne6bDvkgrh45SqvM80m34tmNyUllSQxp5KaW2qmvaTn3l03wOaXjB8gjL1nJLHYciVV4awngQd9wWSHcyyiKEbI/6HYbH1G89+2j8UkRggJJBd33pgrTWKJ2UreUL+WkkArFRv/dC8lOkjRot39BTttM98mhJh1rsdmrEIQty7XllOrrKsfztnihtj7R810Lftj1TbgxRyr8dtyNE8NZ0QtTemhBXYXPpN/c4qGyFLmI+TgeqlSt11G+2vI+lX98EzoeRofPNueuD1pwAnAeZ5E+JtDfpV0dh2kPNLkv80KjadmPkPiBtK53bM8V6pQpvf25CV1TtuvKbeA1B5JnbNinPdg+OEK1MYvFy3vA+lSEkdHarW6EtjPrtx2Pq1zmHRDVZ7GSim0GdA9yjEYzl6u7TPf2mF4cyHIIhPUJXuW35tnkPodO29uuudWFIrso2z8eqa3IxfHasbW1Coye5HBqneUHW8R31u5nno+s3/ta6L4dWV9k+vs0ULv44JG9mrnCb7t92njoEnb3xE/N6rHoNad928N0KnTVlchC3PwOdZMG0tQ7WxXfU72Y8hn6jX0rwrfOkJHMzsy/lYWVJPNLepN9Wuod8i5irrHTVOjclf7tsm98Q3u2/hz5om2TtopP6B2xDv52tbBO65vvt+onVG1bu69NFOr8V9X/OLemktEb95tF/TP3GV937ZMqxhm+fbHHaEi8taa/Xr+4iBNvN57rQXqUeQvehMjy0V0rL9s1zH1LPdbT60O5d1tZViJXpRm6bNPelPZpa0kllHfU7jG8O+vQbd7/ipe0nQ8uyol7zWNJeX28NyxXgVNh2rs72gtHQUUp7TplDI8r0EL5tnun3PqSr8V05TNfxyunVY5mueg3pvduLWCtzU8/aBMhDeybrbHRNBGj8ANJ6pGVG/T69fkMwZj3lEPW0xXta483N8OF/HrGkUV+hQ5dpW2vonh+ts3rbrjRvMzxNy2zLt6vMEMvftrx9c8kumXPvT69tW8/22pUIP9wbeQyhia+H20kcqBCrEayjfvvvT689jn5r2UU6bQnX+s50ae6py7R3WwT3fbza9bgXGJceAnVv8c37rf08Ui/CdfTbiD1Tez8+F3Fvumuemtsz5vZMkWb0wss9/7fLN+IhK/JpfSVideThgn9Ges8mNPEiMQ0/HmdB6roHGvW7kf5T69dh0SxTF4RBRBh59B2lCkFnzcgjjqzib86iEx126fee8Wh7nLZ/Gzrni/dFj7xteqbUm2+IxY7eh+t6kz5a2/RMsUyuB2JXe27rqQmselz61sgjqUN2z1QjJFqUkcTSq3HUb+/9bVkeTb/4xvUGVnU9ZFSEEKs0OuTu0m+z5pH+0J5DxmsPnZtG5K42x7JpL5mu0OdY/na5IXK3e4v2HDaVI52/x7YcOidu12vorkV7birqiEp8mMuKxDM0p/2Log65t6I5IyTQCVap6zmBUb+pfE+p32ZHpL7PeULSZ5F/iHZcNHEIlFjSSumv06++uLhoQvLTwJ/YWGkjnJycrHzPrXw83fvFixer57NmQMpwQne01m2F5/CNp8bnlos4rU+Sl1I2hyd3BQamD1fke35+zu7u5jyV64a1Jycn916qdeXTF1gIwdnZGQcHB0Ee57lVgtLMEGIP6efYUqGc5PLsrLf+Nzc3nJ2d4RfgS4/QHmYFUsxZSIlO5tejfu/jqfVrvWHiS+6EQ4sZxu8yxSF1GYIae+p/dXXF1eU1ziyYIdHiFuOn7HjJXCyakPx1+tUxJLkPsRIvX77cash1fn7O0dHR2t5qHc84v4yn1adKzcHFxQUvX768VzaXTqxvVw+ySebz83Nev+5PkNsVx+G9b2QeAu89V1dXvHjxor4A+yIkLsYX4C1WCoQDcXTESQ+9sixD/b3ASY/HovY1SIcRojEeMOp3HZ5Svw6LtIpdVaE5DqkJnQTp2Ns94K6H3t7uAQdHu+D22ZcOxSEGi7YFTllkcrhEl36f3g1wxIgRzxKj8RgxYsRWGI3HiBEjtsJoPEaMGLEVRuMxYsSIrTAajxEjRmyF0XiMGDFiKzTGI8atpN/b2MYfP3WwST1ZcxyJ4r57GiexjXdru2yuB2TKp+v+1NsvxhIM9YFp+wAMiR2KvNN703ygUOcujl9F3LeX97yK18nmfXCBbvQllnxT/qN+u/HU+g2evgVQEQ6sBZzE0x/b4rEQT59DAlWglVRxk36b2Ja+uIT4+9DGWxezMMR9eRu+0B2ANIRW171dbZR656a8t8HQ+rblaZfzRMcmat/yEP6QQz96XULILOUwITBO+XsRuqN+8/CY+l05l5fVwLgc+s093q8e0ZHQ3qTfe9nTU9fz1Jc/XhsSQ3DPF79VJlcB7ezauTJ0vkxJHfqQ3ptGXbZzUKzjPfQBi3zu9S4b7t+mx84Vq6m3k1hCPg9VJwOKgXGjfvPxVPr1PkZA0hj1QbEtiRHytfFZ/d6t3xXj0WVl0mupsoZaznt5Jgb0NOvK5lrXvt45h69oKaWPzra9aYwS3bZn6srn0WRPD8OP7JFHWZYr0abpoU/WhfNbR/0Ow2Pq1/lwQJOs8w+mFHOmjek9sayUIkxTvUMJuVG/Op3LtcPxu+IUcmMA4r2RRrS4qZXPKb8tbwj5KKy1zXx1m1DoNs8uGVKLHPM9GNN35E73nLs9wtuE9gPSHiEuM57XUbXOhmMjXV5Q483NTTgZTuomQtcaUMohkt45yjLq9z7tiKfQr5CCxJ6HP63F+vx8HtY4lPB4ff+YhT796k15HbrmOUOUk94fTx/r6h37+A8d7URorSmKYuUYwSHoknPT6AyWeQ8mk0kv/S552iO8PvnaWMm70CyUiuY0MYFHKVGfw7IZOzs7zYlxcdShNCBkfaIYo3434Kn164lHZbIcOiiFIuiu70DRnZ2d5sS4iGjvYiaxTfrVv/rVr1asVHv+mX6enJxweXnZWJ++BojWS0pJyiedX/ZBCMHp6SmXl5crVlBr3Vu+LEs+fPjQ9BTp/DbKtQlnZ2cN3zS0um2VYTkcdc5RFAU//PBDVu+U1jPW7fz8fKW+m8qkPZqUku+//76RVzrPnZZMXQXsItwcWwqkVVz98pe9Ml1eXvLp0ycWNxVz5gjt0WYHJRfcec9E6VG/mXgK/TospSu4xVLIOcbvsiM8qpjwww8/sNcj0w8//MD04ydsNefOC7S4pXITdlEsZIVEbdSvfv/+fda2HcDh4eEy3DsD6cKr1ro5VbwrTHkT2qeoDynvnGNIHVMcHx83fDfxTHs9a23zEL5//z6bV4rcU9RTmaIMQgi+/fbb8JuQLASUGPAavMdKj0Jy/bOf8Qc99A8PD3n79i3SS7wCh0E5DcJhhUSO+s3mleKx9Iv0SKcwEjRzDBO0Czthd19/zeUPmzX89ddf8+7rr8B7jBQJDXDSIrzcqF8JeXPFaO2GrDCn6yjz+XylEXIQeVVVtXJtyIMZe4dtttrSQ4+65r9diHxSmTehq3fN7dG61qjS+T/OozBUYd6BFwKPBHPO2cxSOYWxCiVLvJNoUSJFgTUO72Dn5hopXUh1Z68xddq7hZs1PEf9bsaT6hfqqWkFFAgcYS/eUS361zyqhQURyoSytb9InLr06Ld/4jvipwshgGWiWgEsjEHPDeLgBSzOcU5TVQprDNVNGJI7Y3Ba88vDr/nq7o7DyQFCwMxUTCgolMIaBzr/JR/x/DAaj+cMAd55vHB1zyIptQZ1wLf/wp/h67/x95e3CsHl5SWHh4fN/F9c/4LZzgHegpMFO3oCc7DaoulfMBzxvDEaj2cMH0aw9eFMFh+jEcQEjr9CygLva8dTCQt1hnjzIpztJIDX78L95hajJLIeFTsE9CdfH/HMMRqPZ4ww1hCAasIeNDBfGITWlISZjasdFJ2t6u3XUH4mD5h6QCsKZDAqCkBiCQ5KI/7oYjQezxjBS1CAEEuXDw+TUhOWvyrwvnb/kgjmzTWACSV+7nHVHDcpkboAwFpQajQcf9QxGo9nDClc2KI1nqoQmMWcXVmCFDgJuBBBKYLXOkruhyzrNUTl8VMB00MK70A4PJKJmeBcBbJYy3vE88fYfTxjeAwhQX8YW+hyEoYePiygGiq8cHjhsBi8qnDC4oTFCwdizgK4BRBQmdt6KgRajosef9Shu+JXUqzbtx/qDrytC/I6mXJprRyZuMbleBNy3azb7THEVwGG1WmTHGl5zRRkOCSuaYV6ujENQjZySwQShfDJ4UvFlAnU+yqSQu9HwrT7nVG/m/EU+g0XIfhnzPFMiPk8gv9GH0HX5PMIi+lziDQSude1q85xMe/6zEEaANQ+KDfHG3Adz1wZnHMrJ1yljkBD+K+7ljoUpa7V8QSyIdjmwV/HPzrz5ZxHO+p3/bUfu36pjwCN1BqqQ+yTWC0SP70Px02m7vqRf6zDvTWPbdx818qV0IlerI9BNxcxHqHdSzxEhtQSdz0Q8YUd2jNtgy7+mw5+fgr+o36fDn36tT54qt7zifV5Hrbe+zpVw0rRFZ6b6n3PeHS5+batca4rbypEGkoc+eSUT61eW64+NAFErZ4pF3082r/HoKw0OGsT+tp1SChAxJD6dg3HR/2u//3Hpl9Z52m5V2sxNBnQStHwm5ArfNKgOEhGHnHImca4tL9HItvObbXW93qmXBptH//cskKE0PNte4k+vl0yxDKxvrk8uubT2/SgSqlB9R31u57vj12/1hsUEmMdQjqMA4ULqRcy2w8A5zDImkZIAuS8Q8nl2KJz5HF1dUVVVSvGosuie+85OTnBGLO2t1gnnFKKL1++NK7PqfXug5SSz58/b2WtI9/d3d1788cc/icnJ03ylzTMPB1CpnLF70opTk5OmE6nG+lHukqpFVlOTk6ye7b2w35ycsLeXgjGzp2Xj/r9aerXC8fEl0lIfsWO8CA1V1dXvVupV1dXXF/dgDP3QvLnYgFu2Q4nJyeNfmP76oODg84Fp64FN6XUoNO908Wzi4uLlfDnofPjeIr6UFxfX/Py5cvOYWMf/776dg1rI5/Ly0vevHmzlcy57dzFP9b3Kfm2+Y/6HYbH0q9xFZqCEl8bjymFDyH5BwcH3PTQPzg4YP9gD7xnIgRalFRuQolgSoWWRVPfi4sLXrx4sWL0ZLSo6YKXlLIxHG2LPqSHWLdynftgtVd402vbzBeH8k8bKsqQ8o90HrJQmNLtqu8mdPEf2i6jfn+6+lW1r42Sos78Fa57lxf2b4zBxxM1BAgEqs6Hqlp+PKnscYdL5iyqtYVOr/ehfd9DHopt+LenXtvK0ea37sV5CP1tH9BteUa+XWVH/f749esJuyW+lc9DKIcU/c7jUmiEWs3n4et8Hv7+Hg4Q1npmsxlFUYwepiNGjNgOo/EYMWLEVhiNx4gRI7bCaDxGjBixFUbjMWLEiK0wGo8RI0ZshdF4jBgxYivcMx6b9q+32cOPzjFa6xXHmyFBU+n9uWUjuvI9PNQBqYtGrldjG+24jPSU9j48hv/BQ8uO+t2Mp9SvQIAA78N5Kz4mqvUSITPaX3rwaT6PKtCqHcZgGeKQBsbFv1c8SdoecLGSXQ02NGIyxsvE07ZyaKwLkmo/cOvgvW+C/tp0hj4EKc+2G39Kc1175dDuup5TdptysFneUb8/fv1ab9FeBocuUUfEeo/3eXFFzoXDvYRoufZ7gXUWnYT/F0VIOZkGT65kEutSZnptm6jLNIJwaNkuvm2Zcvm3aeagq77rPiPS3jcX7bo9xBsxDW7MoTHq96er33AqII1L+TqeOXJFKCkIgblyZZS0WCyaozaFEMxms5BJLFrYdS65bUssxDIKcRO6DFO8nlO59n1pnEBulqx0GP2Q4Wz7IOQu+VLkDk1TWSPN3HJdOhryULZ77FG/Py39xqmF86AEWAfKe4QUlGXJXQ/9siwRMhCwTqBkTaumLZJzctMI4qIomE6n6HjadxqKnA5BU4FPTk64vr5uHq4cxJ7lw4cPWGubxCI5w9L4YJydnXF1dbXycGmte0POtdZ8//33wP3gq5yH++zsjOvra4BG9rRsrEdbsWVZ8vHjx+w2SsvGU9Svr697y6dtKIRAKbVS36HThlG/Py39OiylK5KQ/F12hEcVEz5+/Mhuj0wfP35k+vETtprfC8lfyAolNFVVoZTi8vISgLu7O7z3/PznP0fHk69zFoT29/e3DtmWUjanig9dfDo4OODFixcrdHPLeu/57rvv7l3LKX94eNjw3VQm9ibpwxdPbx8K7z1HR0cr9d10b0Rq+Nv1zcWo35+Wfh0W6RRGgmaOZYKqi9y9e8flr/7RRvrv3r3j3ddfAWAFKOYYJmgHTlpwS+P16dMnvv76a5xzGGNCYFya9GdTBeJoJHcxLFY4lksT1eYO3eJ9ke8Q3rBcGd6WRroYt+4z1jOtq3OO2WyWJWObVpRx6GJaLJPKPIT3qN+fnn7jtGWFlHM467Pkm81mOOthZSgHPcoAAAQLSURBVNRGQzum5lBKcXt720wnJ5MJV1dX6K557bq57Lq/N6FrbpibNq49lx06r08X47ZZoErXAPoW0uL3ONXLmbO3yw5FV77ZofRG/f509evxYWfWe5bJRyUyUz6lFFIJSBKZBh6ioR2nc2VZIqWkqiqKouDg4KDbSSy1tCnSdZGhaFvboYtb6xZz+8p08R3Ce92L0KbR930d1smzTTsPXTgc9fvT1m+FBwulF8AExQ2XAvBzyjlIN8GLkhsMe96z5z03GJATlJ9yWDkQd9x5UH6GZUI5E4TDzJfZBNM1oLhlCz0epl2VHjq0XHff0IcrLTdUcdvyijSgP/tTOgR/CNrTh5z7u+bGuWXXXRv1283rx6RfBeFF94TUPT6MOvCC6vA1yF+hPBy5Q07lDafyhmN/FNZF5K84lTsYC6WsCQGU4cNteA5iHbLd09NtsaFolx2i7G3LtWl0/d2Htv9BLo+hfNrlhpZtD/0fQ0cPKTvqdzOdx9KvJhy94DRYKnDh3beq5Oif/zPMZ0fcTObIYsHUvmLHvUboOTeTOfPZES//1J9FqB2UA5zEMMdrQEDB/elge3S40XhsOkxnaKO3y25zXF+szJA59boHZOiDKpM970h7Hb91v6+Toatttpn3D8Wo3yV+kvo1DiTUDuSApvBggLf/0l/AKsGBgbvbW7QrUbbg9uaGvYWjEp53/+q/Fcp6wAsElgVgrUcsDyjtXBeS9dpKFoYOZ7vKrvveV3bbofk6Prnl0yFq2ju259hdawVD/CS6sE07rxxFOBCjfn+C+lU0Cw8eD07gatcYf/wN/+xf+2+5+2Ioiwus/4L1XyiLC25/U/HP/NX/Bo7fIYk7LJICEQ5H96sjjHU66jUeD53ndS1mPcZ8OodGyq/9UuX2HLl1T1++XPnaw8B1ilqHLtmGTgFG/f6E9SsCDQUIL0BplAJ8RYVk/0/8a/zTf+v/ZvLn/wOqb99Tffue8s/9+/yJv/N/cfQn/w3uvEbYqjm43HmLgNrT1KzUu6st+lMssxzSpSuvQyCEaPaL1wnUBe+DY05RFCtD2Xg9R+4o8zaWfjKZrGxFdg2p2/PC6JlbluVgflHm3PNm27qQUjYnmQ3ZORn1+9PUL8KBAGEtQkq8ACGgYIGnYKEXTP0B3/x7f41/Yvb7AMymmqmDubpDiR2UdBhAS5BWILUHB+hlfJQQqyfzxeu9NVhZ3R2wt90un5YdMqcFVraH2jL1QWvd8Bz6YkR//q6Hs2/IvLOzM4hX+pC267upTFuW+FBvsxA46neJn4J+LRY8KAQShRUADukdykFJOB5h14EqNKrQ7LkQBzORk7CqUc1ZYIPhUSXSh60bw6prfmznVC7hH7LPNWLEiD+y+P8BBHkWNwiTmpkAAAAASUVORK5CYII=;" vertex="1" parent="1">
                    <mxGeometry x="450" y="281.25" width="130.53" height="157.5" as="geometry"/>
                </mxCell>
                <mxCell id="6" value="&lt;span style=&quot;color: rgb(102, 102, 102); font-family: &amp;quot;microsoft yahei&amp;quot;; font-size: 20px; text-align: left; background-color: rgb(255, 255, 255);&quot;&gt;电流流入为P管&lt;/span&gt;" style="text;html=1;strokeColor=none;fillColor=none;align=center;verticalAlign=middle;whiteSpace=wrap;rounded=0;fontSize=20;" vertex="1" parent="1">
                    <mxGeometry x="442.27" y="230" width="146" height="30" as="geometry"/>
                </mxCell>
                <mxCell id="7" value="" style="shape=image;verticalLabelPosition=bottom;labelBackgroundColor=#ffffff;verticalAlign=top;aspect=fixed;imageAspect=0;image=data:image/png,iVBORw0KGgoAAAANSUhEUgAAAPoAAAEKCAYAAAA7CUiQAAAgAElEQVR4nOy96a8syXLY94vMrKo+y13mzsyb50daMq3NMimKkiwIFE3Z8hcZhiUYAvzJ/mbD8F+kb4ZhwIAB0xBkgIZtSZZNUyZFiuLj9sTtreSbeTNz97P0UpWZ4Q9ZWV1dp5eqPufemcd74qJv9+mujIzMjMiMjIyIFFVVWlBVRKT7PJ/PWSwWvP/++933YyDjUVWur6+pqgrn3CQcGc9yueTq6ooPPvjgqPIiwtXVFUVRUJblUTiapuHly5d89NFHxBgxxmz01Rgc8/kcay2z2WyDtrHgvefzzz/no48+QkS6V8YFdH2+Da+qslgsEBFOTk5G19sfS1Xl008/5cMPP6QoiqNw1HVNjLHrh6l8BfD555/z+PFjqqoaXzZ6wAPCqjYsG2F2anHURCMU0TE3SyoqjFoCikhEEDQYUMUXnkodAM+ePePBgwc3aBjTnsxTq9WK8/PzveO2D54/f85sNuP09PRG3UN8Zhch297HQp8BY4yTyg5pyJ+n0jAG75Qy+TV1MO6Slr5AD+kY9tE23HfRj8fg6NMaY7w1T/THYzwNhhiEEFPfOQIFHis1VgwXweC0woaGwAovkaAW1GCJWN9QqNlZ/7F8MRTOKbCvD4bfu32VD9+/KNjG2G8bxy7BGYNzuAK/KTz7ZvR++WOgv+pM0WT2PTuVln77p7YliBCNQxFUPS7WWJkRpcL6SKkL6m9+k+XH30alwb73Fcqv/Rni+x/hjVI68CFQWrO1X49tx21gCh4HuwdkKkG7mKv/PhbucpK5DY43Ndn18Y3FPRyLfn+PYb63yVhvAset6lUhGgsoop5IIIhNq+Lr7/Ps//5fCd/9PerPPyZSc3L+hPJH/iLlX/lZzn/qr+NdhUR/kIYpk/ZdtW0MbF3RjyVg32Txwwx95ryrLcQxsGv78EXTNRW+CH4wgNGIEokG1DpUhLh8zff/6c9x8fP/HeXqNb6whKg0dcT+7m/gPvkeCDz8yZ/G2rVdYhdfT1kU3+SYDelw274cEvRFwRe5Lx8Db5thh+0YGuPGlH+bNN91XbehX0VxIRCJrIzBW2W2es3id/8F3/2H/wM/ai7xErFmRhENams0XrD4/V/iM+t48mN/jvrh1zAGZNC2t92v/XrHwg1jXH+mOdYY1zcaHQvDOr8II9IuOo7tl9vS0xfsXf2zD+cxJw7Dv4+he6zBaCrOKeUVRUUwOGIUruOK8PoTLv73/5EP4jW1FjT2PZZNRWhKojmnKUu8XmBefZPwyTchKLyBthzTnkP1bjXGhRA2LKF5hgohdK9jwXtP0zSjnx9OEn0aYoxHzZ4hBIwxR7cj1++9J8Z4lGHKe4+qYq09ioZct/e++264nThkzc7t7+PYBsMjNWNMhz/3xbGTeC4/9nhu26LRH48MY+gJLT4XA+dRCHPB//HvEa1grMNFj7WKCmgE4yNGLDJfcfXNP+T0L/w03qe6vPc3aOj31SHYVn4qeO835GvYB31aHMCrV686RswgIt05+pDB9kFubMZ1eXnJyckJzh00B3TEZQJFhOVyyeXl5QbzZYEfC9fX1905+hTItDRNw6tXr7DWdpNGpmfscVE+R59y9tuHGCMvX77EOXdjnPqrQZ+W4d59uVwCdGfYu6A/Bv2JVVV59uzZxm+HYMgPq9WKEAJnZ2ejyosIxqwt3SLC8+fP8d534zlmDJy1RDFENfhmhQ9zTl++4Pnz54QYcdaiqQKsNahA0IBvGpqrK9zz5yxePocmtef58+esVqutPDVmQfHes1wuOT8/P/jsLri+vqaua5bLZSe/IkJRFMxmMx49erRuP8CTJ0+6juqvVvP5nPl8zvvvvz96phrC1dUVs9lstKAPVZjVasVsNutoyA4rU1aUYwU909I0Dc45Pvzwww2HGWB0v9xW0L33HQ19+vpCeKhfxgp61lqGn1WVEAIffvjhUQ5QsBb07ORxCLadV8cYefz48cZ4HhwHjUQRVIV6taBuTrB+yQ9UKcsy8VbwxNhqEBistYgpsLMTHj54wPmjx5Sm6DSp8/PzrQ4zY/rlLgT96dOnzGazDsfQbtCHzhi3jUlEBGst1tpJBp8skMdYg4cDZozBOddNFH0h2weZIW5jNMn9EkLAObex0vVxHgPH0nJImPt79WFfjaW1X0e/vTHGrh+OPXLtq+LD8dkGud19cM51fNnHeQiyEc05i1KAMTSrJbYw+Fpx1oIoqq1mpAFQxAjOOSpXYCTVaa3FGLN1KzZFVvqfp06cuf5tPLnTYaY/AH1mmbIv7j/XV7/778dA/1hpSof0adjGMFMgazx9OjLuMTA8Pz6mP/pbln5f9L8b4t92Xj/mLLj/3i93jKF1SMO2SWQMDG0Hu+rYWrZ9QVb1Q2eJLooCE4UYlSgK2to+EKIqwXt806Rtm7MdjkzTkI4p/HmX8tGn4caC2f9xCEPmPAT7VIdjYJsleUqH3KXlflvZqWemx6yu2+rbxhzHWOEP1bMNjrUOD3H0348tn2HMOEj3D1BFNZLFX2MkhkCIgdCbTI0xWGOwYjBisPb4heJQO461uA8n+V3yukH5XZ4FDnHdheAfC8esQvvw3AUcS8sxk+6x8KbOhu8K7+TjSbRT3wVBBJx1oKAaN4RE28mg02hJ+/Z+vds0qWPhmPJTFuJxFjIOd+o2wT5G2LepmlPp2VVu135xLJ5dtN3VBHAIz5Q2Dw11U+rZ1++ZsaaO5S6YQsu+8TiIBwUkbdRTAUQV09qfjAgq0v2ccEu7+itR18r/Lpp29fexMAXPoTG5W11kC9x2NT1WpblLfG8Dxh5VbYOxs/oxaveuyXrqeN5WTT1E14gSufL2s0liqwElImIRjYgKRgwiigiIsaSqwhrHHbWhj+eYbeYU+8De6LVD302FKXva/vPbDHFvWzXdZyEdtUfcMwhTjJ3958eW27e3P1TX8NnhOf1tYGr/5zYPDaOjcKmgxOQhhyDGgRiUgEiEaBBpEHUYAcUTNYIapP0bWa+L2yauY3hzl71lyrhuNHNH2Te+ot/DPdzDFw/3gn4P9/AOwL2g38M9vANwL+j3cA/vANwL+j3cwzsA94J+D/fwDsC9oN/DPbwD4GAdBB9C6M7hRITFYtHFpB8bvbZYLAAmJZ/ow3K57OiYCrkti8UC7z1FURx19lvXdReyeyzM5/OdyS/GnJt671ksFl1/HoJtAS+Z/tv4mGcaxibQGLZtuVzeCPWdCsvlkvl8Pi3sOIJKRAV8HQjRU/m1X3t2o+mDtP50IYQ2D3tNDL7jqWFugCnQNA3L5XJnP47hicwLw3HOIcT95B4bYap9z6kcEplfUwW9H6G0LbxzLORQvD6NYyF3Vq7/2Owuu8IBp+K4i34YW36bU01u/7E0qGpHw1Q6MuRyxwh6xtWnYaw7LpAyxwiISR5wG77imjLLbIdN56g+Px3bl1P7cRsMw5b77bkR2psrtdZSFMXGwOT0RccmS4A0c1VVNelmjwx5AJumYTabHeV2KSJd6qKpiScyDmMMs9nsYMKGfRBjvHXiiaqquvKH+mKboOf+PNSOfXEKmYaxiUS2wbE8lenKNEzCoRCJKGBoaDyI6fntt77vqR462U4Ti8EVRQpnlaQVzmYzqqo6mieapkFVb8VTuQ/6OHb525v85ZctwusuQ0zvgoZtPslfdETeFC3r2DLDz1NhW9kvIuiD/qPS/1o3ftYcujoIYjEiGHPT133Yp18ET2yLYhum1uoucMgFdsExataw3LEBKrsc//fB0Hc4v46JMOqXH5adIjhDpphCyy4hfRuCu2+Fn4rnLnAcwxM5Lk363wiItOqvMWhyau+eSkEvKXLtUN8f27/b+GEqjm14huPl4OaebZ/D/ljY5qx/bMztsXuZbXuXY2jJNNxG29lGwxRa+vuuY4Im+p+ntmNboshjx/I2dPTpmTwePbmRNlpVFTQnmuit4GvatBP2/IgZ2J7ugid2/Tam/K7nt+7R+3DbWSrvafPzu1Lu7IO8b8qvnOVzigFHRDby1mUcxw5MfwU5Vivop4Lqn26MXdHzqUi/j3etAvmZYXLHsXRv04hyn47F0W/nENdQwxpDT25LHstJPJUtbcnuRlTFxHUKa6NxnZQiLfUpyq2boNMEkfkw179vDA71S58np/IDcKMf+nSEEDaMzzcEfThLHDv73sXs3V8Fj8HTL3esVjDsxLvSCqbiGaOV7NIWbjsWx2oh254dallT6djGE+MKr1/GtGNh6RKPmuCI2nBIxA715ZSJa5eWNgXHLq1iZ864KYaatwHbVoEvEr5MxrhjV+bb1vdlg2Pp6jSK2LsgJMYNIe9rk/v251+k0XiXprQNNgR9F9yF4eWLhmMni75GkPH038dVDqIB1ZBSEvkAdSAsA6+JwB+hOgfqrS9lBeGa84vvca2ROgaiekQhhJoQG7pch1vafZv291XKfj9MKd9/3/bbMTTdrmxrbpPdtpP+irtNK+qvpMdsRYbtuI289LXOXP9Wq3uGXXvPuzC8TIFDdoIpqk3/87G0bJstpwxqVCWd4wo1ETEeZwQTDO5yxTf+p39A+fRjrPauxYJeejMl2JL6x/4qP/pjf42Zc8mKrMlqrNLSGRVjtxvsprR/X/9PFbJ9W5Wp9OyaLKZv50gbbgZCaqQ1ummXjYZsa2oniDybbuuHY/jztobJYd0Z10Fj3LDQFwF9g8S2WXUsTGWCXbSM2R/vgyhCVDCqWAzBWGoCjpqqaZBf/RWuX38XkWQQGva+qqLlGZz9CDMFawzEpHpiJL1QRI6biLa1edvfqtp5Kd4GpvLXsN+H13aNqzT9p7TW9jypyqZgdBOsrn8TEfLc0B3T7RDSt8mjUyaWTtB3EbtrlR9LxF2qJlMs7tvK3npPd6T6GVsjkI2CC4KIobEBL57KBmbMCS6tzjvrt1DGmlIigvZSFUrKgtYy45jTgWPHsv/5LrZzx+I4RuXd4OmN/7Mgp8k46fWSvOZ6z9FqULplRd/X14faMiwzBU+fhkPCfnDD9UWv7seoi3ex9bhbUIxtVwSv2AYKdQglwQnzWZtxVNOAGNJnYf23AYzxIAGMEo1JK3lWAVThxjnwG2jJLSbML5yGvApLb1tENroF8uY9C36/Lu1E/O7gLsdoaDgc4u4847apELddjY89QtmGo4/rLvaIY3AMj4J2aT2HcFmUWiJqFQuYADZaMJagNd6VCAZDTBFTeS+oaT8ZU4VEA2qU2H5naCcDbeOsdvT1XRyn9X+7i+3QbZ7dNh4HxzP/3E6MWWyzQMeoGMOGgMf2Fpe1QXL9+7bt5LHa723Kb+uDzN/931z/4W0b+qlWxCG+Y1bjbXUeY9HM78MjkrH09Ovst6nfkWNwWTU0wRNFcCWUrlUDI9gIZ1JyJULMjKN9Y1wKlVQRSrFkc10kGYeMKmrS2q+6/ergqRP2sG2TBGpH3cPvjhmDIQ9MGQPNKpJ223VE2MrjeQWHXtThDt47VnvcZ8wbC7ntuR/6l07mIKoMDrgRi66q3b3gTdNMvqy9L1g51v3YVaUfKz/Fu63PANn76dhL53P9OZqvL+hjGE2CoAGiRLxfYRUCFm/AqqeZXyNqEWz/IpG2cPpD1IEXmtpjpEHFoN4QJLbP2hSCqes2DmnLsfBT+iHzQv7c78djVq5h7oOx0B/zTMOUoz5RIUpASZFjjfeY0Ntn0+uvdpY1RkDTd03jaRqfrnUS6WjINw335WZMu/o8dSx47/Hed7ke+uOdDacZHMDr169p2tsic4caY7okA7lhY2DY2IuLC05PTyfdj54FyBjDarXi8vJyQ2jHCnp+9tj70YFuwnv16hXGGLz3G4Oaad6Lo7E0uiDYSBTDKgoLZ1gUMKsbootYVummkL7qLoJonqGFWEcuX1zg7SUUlllTEKOnMRCNQ4mY3vmptXbjPDUnKjg5ORnVf7ltfRX1+fPnk3IUDPkhJ56Yz+eTBT3zxPPnz7tEIqONcVGIJiee8KDKg8WSxntKkg+7EWk3T4Bpt01Rqeua6+srzMtXhNBgjOHZs2csl0vKstygIbvHHoKceCKPyT7NZRdcXl6yWq02EsPkOPlhGK8DePLkyVY17erqisViwYcffniw0kzgEM7Pzzk5OZkUj97Hs1gsmM1mGzRMUY8Arq+vKcuyo2GqdrFarbDW8tFHH23gnXK0czF/jbOO0+oURXkoglHFX19xZSoada39nHR1b8avQHtlkJ15nnz1qzhXJaOctNcKxaSTqlEsdoO+/uecYeb09PQwyVvaGGPEe89HH300aeLuw2q1IoTA2dnZqPJDWrJW8eTJk27iHjUOkfWKXnuapsaGK1zv7rXs75BV/NDe1FKUJQ8fPuSDr3ywkYXm4cOHnJycTOcH1oL+4MGDve3dB0+fPuXk5ITz8/Mb5Yb9vvc21amGl+F+9i6MNrfFeReWzW39MJ2Ojb+6c9kb+Yu2FhjUTd9yvP7cHQTtoPW2hrRjy96WH3YZ5CbhlPxfLsfOvh9+/WbOL/bDWK11l4F4CPfJIe/hHt4BuBf0e7iHdwDuBf0e7uEdgHtBv4d7eAfgXtDv4R7eAbgX9Hu4h3cAjk/O/QbhTQVkfBmhO/X5ksGXeQyOom3tU5z+bGOAcjyQbgQFdQeXbIYK3SE9B2Cqy/ch6IJaDiGdEgRybPltOPpuplOc/nedL0712953hjsaB8ND202uGz2csma8Nc4W1wYT7852MsbPfFe5/m+35YexODKeoS/ANr/3vTg2k7m30r3+IsaImPVtLSIpOWSL/Iaw3wWv98dpX1DZWBz76HL9AvsGcezsssvB5ZjZaVdDp9Iy9u8pNOTfRtHSopAtIh21zV6yZqudODQqMd5guRuPbnM02vbbMTDVC2wbHxzLE/v6+yCu7JXazo8iKebcOdveVVYQY9MTal0/17rH9mnYxRdjeSK7827ri7tYyYdBLWYf4qmRZ7nMvr+PgT4dUyPhhu+3pefY8l3dg+IiaQLYNglsPkh3hdAGzu5mETYipo/pr2HZXX/fFtddjMHwdRByTG9CkCbXqPjGU9c19WrVBbbkLs5RYOv37bTctg23hT6dGd/wnsG9GWZuO/vfFu5iFdiG71gahjgmuQfn/7Zsyqesjv1HRdbTQ0ojtX+bMZrWHZrPXe8bp8KQHybR0tvhiEkrtJgU2lm4AjElyIpwYyIW6Opba2X7NKZj2nQMDPvhT4QL7G1WqLust1//JFpkc9VWkiquUQkxjMpf0qnuN4xHh+mfAvtW4bfd/0M69v09Hs+6TTFGosaNyxAyWtOq17aXo+5QP7zN/okbSTE2Nb3hNeVvTNDvSiXJcBcr+l3QdHT9N7V2kHRxn7X2sOoOGGtSjPSOR98Ui931/jHDbcfj6CCZVDit0L09uIhsdGKeEFI+g7hhH7mrfrjNBNq/NnooK1tV9+VyuXW/sFgsmM/nR8UO5+dz2bFhjcOZabVadTRMtfjm63Pm8zlN02yENU5pT9M0XV8M2zgKjxqu59c4VyAh7aWjMTiUsKpp6uagMU5VqVc1y+WK6IRIjbbZZ1CBqEQTcFJ0dA2vbcpxy2PipXMb+/WLpFDXxWLRJVw42HTdHo8+ZQyGW4f5fE5Zlhs5Eg7iCoKaCCbFo4fgoYkbe9ss+BmftqmkcoKIpvEEX3c0OOc2jJNT9tzeexaLxUbyjCn8Dakvc7k8piKSbp4Z3EzU3Y8+TLeUrYL57vRjBT2XH84wY8v3L5yfevdafg1pmCroecLoZxOBCbOwCta5RIMxKd5cDAZFjcFYw2HRS3vKlNbIgCTrUhRJ94qZxKhW7E5Bz/SPHYsNpm/xdKmVRmZ3yXTkzzld9DE8lSeIPl9mvCMQoCa9R6tEjRv2jjRh6vrgM+/H+/tzYaP9mY5he8dA7ot++al81R+Pvsa7LT2WA7qEDMOjk5w6acqF80ODTV3XVFU1KfFEnxbVlOFjNpt1AjpWbcrPeu8py3Ijw4ySTlxs34al+b90tJLz9xsip1VJZSoap1hJmV8ARpGi0GiFM46yqtKKjmBRvK9xzuFJeeA6i52u37SlpywKirLAFgWue1QQTYIURTHZvKza2gV67W1n/dlsdrDfUuPocMV2xTs5PaGqqlEamm4mv4NWAwkhUFYVoKO2LJntM12zkxPKqh3PzOAHkQQijigGoytcCIg1FAYaqSg6Y2Zstav2vF7AWrBWcNZhCoeIdBlcqqo6ykjZNA2qenAs9kHm6aqqbtQ/nCw2rmS6Syv7XRzJDPeGt7X6DlWrvlxH7SX3JzGpZkFTTatoUBoCEe2en1B7z+CWbwtpBTBE+jcqdcb5bDSipS8EBAh966+mF5rTTvXatm5eayNImLX3/bbXmrjOpt/2Hxixo9udaMm3n9ysaCqL5LE30jsry+0/RAupj4MmeqwKoppy9uFaJKadNzyiClHQGIGAmLXwb2/r3VlIpuIabrG2wZfSBfZtgKC4vHJ3R175VNq0K5GCiaixeDVopRiNnfNEWkl3G8fuhM7eNiN4xZIs9WC6XX1XvUp7aYu2SklvUlOQ2JI7hZHaR03bPzFoO7EcxmFyH2ru4naqaWmTTNgBkMFnDdqmuO4ReABN6rlW4K0grkBNqt6FZdrydM/mnhOipteUCe7LCO+soKclpU57XAxGTdrHafatENCASo0JEaInimemFtSDsWjsNOQ3CiKSkhUWIKSbP40FFdkQZojt3r03d/XbK4FO0g7AUKsSoT3eq0EiuuNWmQ262/82+kcimNjRMEZ4ht0bYt22xa3l/MAYSAwUKE4iDZ4GQ4xJO5rRIOq6iVN7Go226rtY88bH+U3CuyvoKmgoCA4ctrVaC97Q3ZgCFpgRTEStp0Ex0aI2qXZ3OfDpaGc32yuwUgcBrESEfNFiWmnTKb1ZM/5a5tcItDX86AhDWt7DiOQ3lJQsETWproM4bn4WtUk7iObmJLALx8Y+P7fDbrTjEJpgct8EPEKQJMSNFFSxAXPWTuypJxVBTDKY5o3SvaD/MIIKeEvM27NFg5kJ1qW70SIGr60giYIaKiLRKIgj+IA1ms617wj2+nGLYVGdoDFgXSRKRDFI9ESNYJM1Pq9K0cR2L5ubq+Bi+/mwjT9qJPt6dzYKFFO2x1Qjzgmi6RnbpLU32NheKRXGOP5umgpaMCWoiahkwxkHMUUEDalGJwYnitcIxUMkXub5MlXZzrmq2tIdqOvVm9yhvXF4dwVdQAslxCXLH3yb5jd+E2NXeKtYNVgKgnrQhqiW1evXvHxS8d7f+q+QyhGNa9X+u9+ib3UUCg0PfvD7zP/ff4i6gLcFGgvKUKN4GmMxYttZS4gxYIwFsgFSaHzylloePAGRdPwEadJrjxdVI6vXF1w8fIgb0eqYIil67VG8D4CyaK9+Ngf31r2Fu5XAxesLzNn6roDOILkHLCBRURPxweNXil9cJBqqE65DgcN3BtjOWhgjsa65fv0yRSDZH05xf4cFXcHWeP+Cxbd+lRf/+Odg8TlBGlwwGC3ABCwLGoWVChdGePQz/yVWLU4MMau1b4pEWYdkmqam+sav8fyTlzT+JSuFQk44lUCQhqU6jFpEkmU+n1/H3pl6DCFZnO0BtbsVKG1p0NhGbKE0dYMvitFqrEjKl76+4yzRkDQhOYgnp7aO2uZej0rT1DRF0SvfW453QIyXqDVoURA0ot7gixmmromF0BCx5FW8te4DIskuMb98lWwzTDsm/rLAuyvoKkhwVDqjmdfo06do/Rmx8jRqiZREHEVQVNLxir+4ZIVygkGiYownXXU83hnoFuSycJHm6hlOLlhqIGgF2tDQsDIVjgIJNSYfReZbQ1rnDCX5yh8WUtn41DebGTEsm3G3iw492jKuKcdH3Q0qMSJiCCGkScv3bu1pJ5N9YAW8OmpdUknDmQgLUkBLrK+onNs4fckf08hGmtUcCPzQC3rfm2oIbztqaXh+fhdn6NsrMlidUahFrEeNAalA6FTK2HoaqUZcUSUrd75JpbvQeDrks+3+4XleObedi4oI0QgSr0GhMgWoUkcQY6kkQqjBtH7zklZRY1rXzHaTMeG6srXvd48GMYKEvH8f08h8zJe3OYm2TizHrOjtuyBYK2stA2m9BDmsu6vBIpQoliI5LKkiRoixxEalMQYVg/MNopHgAtF6nDhKFdSsLQFDb7S+9+Ax0C87JZqxX36b/0mGjRV9smvnCCLu0sHltjTcoEW6uRu1ETVCxGFjaK3qoQ1pTAEN4hxWpDUQtR5pR+nuNwvtUj7XDCAYCpwYQpB0lxgQTYEVECKRiJj1GXB+R9eHcGMOtbL2mrsrP21a3NEcVpWh19+Zr7om35zIdtKSKZb2OnhjiJqMi8lWOm4AVFoXYdKZ+qpPhmk9Jn2DcSXWOEQ1WeYDlFpRygOIrsUjdyIrtw0WGrqt9/EMJ52NePTbrpgbXmcDAvbNNmPwHjNbDiOD9tGwNd1T6/ChmoIbsqNJT7k7GjotkTUzH4Lg2xXV5D148nVvNIJIcs/s3aZ609Vu3ay90N+fd+520l7PPBJHr8p9XTVKTjRpUelaadPOXdp5DW5xGthCixykuYh1Ggs1QIGJLh0uuAJ3fkLIE8UtF6B1s27Ky9EReYNyW33dxyC5Kxe/Q3j2HjGNxLEPTy6fAxZuCHcq3KmK6xwuN5l7bZ09QMsBJuwY9gAIELzHWjCyNrbFGFJwjDhMaGf0jq7eitcKxMG9dX5U1+6rIjI4URuBZ8NnfjscmjCzut9N9qw1nD4bHMaz8fBmBS2YosBH0JBsL8ZZglWWlXLypMDbBqs34z6Gq/sUWdn17FgeH6tZbAj6tlXzNip4v+xtZqpDs9XY8hvl2r2n0k9J1P2wLk+OlgLRPqcnQUo8d4CeG7PE5vNGsoPp/naU1YzlaoHXiISADRFrLBUFTVRo6BixU3n7siaZ7EOTrekrAF1b+7rBywYAACAASURBVHnX1n21B09rMd/52EhajJH29CC2fS7tZNyiiaNMg2t6BjSkdyVECxLB+nZMW9XYOqrZGTZKa5vYbkdZ0zyNPzOOqap8DjneJrdbVXfv/YY60o/6yhetTwm/y3dEiwh1XW+EwY5pQP+ZPg1TNIsc1miMoa7rHeWkPXLKalP6TlUJQYktHkNi7Byb3DRN8pxSGcFgaXfdeI8qeNOkoBgxWNJqLGaoWdwEVWUZFjQmYKxJe/QmQEzxx4rSBN+eXW9Unsr3/z60L5Yc4LOpTua2pr8Pt1sPn52NoiW0Skm29XcG2g7PYa1KOyHPk377vebfFUdBI5HaNcTocd5RekupJYWcEZcWX6StUdM0NE3TGa/7BuMxPNo0TcpVV9ctHb12jeTxEAIxxpvZZHaFqV5cXHQhqRlEhMViwWKxQEQ2gvx3QZ8xMuGXl5ecnJx0QfpjBL3feavViouLi64TpiRNyJPN1dXVjTDVvLlTqYlXV6xWK0yISEEbMw2xtagbiTQ+0NQ1V1dXsKjxQddccqBJ1hRcLl7jjGNVLgkaCGIojUC94uryEts6qOxsD1CEgBqoY8S5CiPgV57YBMRZVIQ6LG9qMCIbAnVwKxG1DZlNx1vr8JH1pn/MmrWPYZNCoBvee/toMZ1wd5LZvWX1fi8eksYm6y9u0GpipAk1XmoqU3CmBboSLuaB+WLJebPk7GqOAC9evOhCsI9R3fP96ENBnwJXV1cdniz0xhiKoqAsSx49etQ96wCePHmykaEiEzqfz1kul7z//vujiRgSfH5+zmw2Gx2PPuyk1WpFVVV88MEHnfBOSWIB7BR0jeDjguWjR8zPzgjLBm8MGgIaY7eiY4TCOdzJCY8fPcLNzsCYlPBhFMfDbF7grOO0PEk5ylo3zLC45uq9J1x9do3um0xjYPb6JScPH/DZ9ZylKTktTpAmEDSgFmJ2lsl0d+Mw3J7sh75br4pA6/4aQl8rO4xre3KKzXJhrL3FJvfeEEJS4dujw+yQczMN9k1aRNpw38GjeRGpCRjvqUKgEEdsFK9gZ5H3Tub8m2cr9OEHQHr+/Pz8hqCP3aZmAX3w4MHBZ3fBs2fPqKqK8/Pzrh27YK/Vfer+vG8dH6oxx6jtGfoZTaYIeb/OG+eMAhiQKKhGGu8JjSegWNXW0zH9FkJS5U2MPSvvNJC8MoogYsmyFCKsVsuDKmw4fcznf+u/4a/+p3+PH33wkGAqrDgkBCCiRokClvJGWY3aJUA0cjMryo3n0bXlnbUm5YNv47OhKMvDq/E2fXqwLx+DI/vaR434xhNiwIjBFQ5r7H47QIZOVe/tayEFrrS85VWxMRn8GgQvFiMNRuZYW0HzHuLW2qaIbE0FdQwcs6Ln+rftz4cL4lar+12Z+O8CZyY6f7572hI7G2kdUqQ9iMlqXrt6bZQX6exTU6jZxviSaUvpzFq7XStikuLANSriPQ/CBfKVP0VRnbe+5oISWouyQUXIZrRtE+5yuURFcCOymmw77nEx8vnnn/P+++9P0tD6E35d18QYOTk5GVW+j8eJ4GLk2bNnPH78mKIoJvODqnY2n0xDxmHJ46lYsptPa4VU6EfLbTvDvg0MjXtjjXHbvhtOQPAldYG97ZnipLp6n2Xr95sn7Ot7PMbtU7fXNKy05zWWn5TBI6q42IDJ7Ni6lAqoyoDKLdUM9pHHQDbQ3may7U/cx+IYYy/aBn3tcluCyp7Nu9ebAliG3XuXZ+BvA35o8rrfwz3cw/FwL+j3cA/vANwL+j3cwzsA94J+D/fwDsC9oN/DPbwDcC/o93AP7wC8U4I+7vhj2zPbvtt0xXzz8NYqAr7cR0VfNtq+bPRsg62CfhfxtrdpfN+5f/j5ttDh0HXU082zVOnkqvOx34iJ1N77yH7qRUmhg3PkkfOP2IBi07m5BOiSLrTn0/hDWCbBtgitN+FMNbb8G+WHkbBLLu7CT2EqTdu84nY+exuCfqhBSNljMN3FfzkiSlsBjrq+PzuVkc4lNLmS9/3J98PGVNIrMyYgo8Ox9X70FoOAGYnnHv5kQAih9f2/mUZq6JS04eu+7XOGKWGqQx/3KeVz/dvKTw1T3ebr3v3dCk3QFAabOi2ibfBDug4hub8aMahRiMkjK7k/mjYJAgeFPce0dz72Rwpk8vlPOPZ5wu3LyDNFW9vWd1PHc1+5Y3liF+5D5bfRtgv3Lhj2665Y8LG4NrTJiVrBLl/3Pq4MG8khhw/uC2zfV3n/vR9yOgX6ePq+u1Pw9MsMg3YSTjC6vlJZTUrhTGzdJNuVPCcklA5fLzHgtmQGA9BIF1ACGTekxAajm7MBsb0Pqrs2Gdr8afsn7bHRVdvK5FwD2/DuKzt8nxoslWHXeE6lZUjHMbTsqnsKnl1jMbU9w9V7Zzx6DjQYxqMvl0uWyyWLxeKoGVxEuL6+JsY46prdbbBcLrm6uuquTR4LIut49Ovra4qioK7rzT06EOKSerlMySRiRMSmiCaFdNmigqSLDYP31HWNZ05UgThuRUcN88WCwhaYIG3iCcGKEuuapkm5yvZhUVWWqyXL5Qp1hkhNvi/FaNI9ggmYuJ5MhlrNYrEAbjLGIeiP/dXVFWdnZ6PHc7hILJfLbvGYus/Oz19dXeGcoyzLo/bpOeHDMXaHPl/nBCvbfj8EOUz1NjaH+Xx+Qy7zne0ishF45PKP2wxg1lqcc13SiEOwLfFEXi1zyNzYxmRcuX7n3NErQK6/u9lDpN3ngogl2BSqqEZIEd1ppdUuaglowxpzRxqVfBvjYbpUcG7dD0nlNziJqW5rR1xwBNak8sYaRBINUUB0fTdYup3lplorIl37DwnpPpW2Px5jYEiHc44QwqREJEOabsMTqopzbmPxOUbQc/19vp4ycWQ6chuOmXSstR0/5rJ97bcPDjYHvj+wZVmmS+vLmzHOu4gfEjubzaiqanRY4zYYZvKYCiGELuvGJr3gfSS4IgmbSFKHo6bre+ipQJKE3DlHWVVdKqn8215QqGOFs46iLFPyAxEsEWqLNYZ1yojtkJmrKFohM0B7BSDaprEUh8HuZJq8+lTVzQSHe8nv8URVVVRVdfSKnumYSkMfMg3H4sj5DWYjwnUP0XAsjnRXgN6KhrIsN/qh389bjXH9wdglTFOPDbYZSqYaTXbF246BvlYxNOj1sEHOvhJT7na12sWIp7047TOsj9VSDR2OQyR1VvXekV0OL1WFEONB1X1Y17r23eO1SyU81ni1rY5jYIpBb5/ha6oxbsiLwwlxqpFyG9yGxw/x/hSabmhi/R/2NeAYFetYHPvgNjhuls3HZcPnWNu0lRtn7QOz5cEtej4O6yeeyKp2Z1gaQb+qQfKNJO197n1q8qdDRqZjDE/bGO+2k8Ftx/JYo96u+u9icjvWqHcsnl30DNV3MwXpFLiN48DwOGfq0dohvBvfAfTOxje/X/9lJN8dllcjJqWV2tnFsv+obE2CkO4lj4hoayjMgp7O02XLHXC3WXVvc/RzV3T0y2ce6Gccui0cu3Lu0g7uAqYeO47RBN5dh5l7uId3CO4F/R7u4R2Ae0G/h3t4B+Be0O/hHt4BuBf0e7iHdwDuBf0e7uEdgHtBv4d7eAfgSynob+Jc/1B9mxFRN+uPur6iKJVpfxh55Ll5vKkbH0fdji4Kku4cS5dH5PPzPsrjL0a4Ud0tHTneJNyFTwXc7hz+TfbDFGeZsZ6nbyzDTIa+g8Ex8ce3ie4ZVU+PthjXlxEOM8xsgLb/6UDY9tUj7W0qOx4fJ+yxdZRJn5HsOJtdee7OaQO2C9RdjsFt+OGuaZkCQ+Hq8+hd4BwL/b44VH4jMmG3T/jduf5NwXMbv/upEUk5TDdGg9nwxVYw7c2d2RNNY3s7V5b5A23KekBPWVi7q/YmgSmCqknIpUU8RcjvYiyPHYOxnlxvi5ZjYjE2tb+b5d6WrORn+vK6S4Yd0GVYGT5U13V3YftYGAZT1HWdkjocOdv1aZi6sudnhxfFpx9pA0oaVPO90g5TOEwIkFf3mNxfc465EAJ4jxKRTloPESIsVyucjTi1KR7dtNcm9/p9P45Uv/cBUU+kBoQokkJmFaIJ2Hbu3hbUksfx4G2qA8bpf26ahqZpRse0D8erruujwlT7kGk4dkXv89SxNOSLGo/xlwe6+m9zP3pd111E5TZNp+/v7gAuLi7wfp1YMFe6WCxYLBZYa0ddbDeMGBMRLi8vOTk5GR3T3icU0v3ol5eXk9WjPg1XV1ddmGrHtLGNBDM18eqa1WqFiQGc7TKxGWPaNFDpBk7fNMznC+KywQcgRkD3OLInsFJwubzAGUtTrjpBL42gqyXz+RynEbsHT9TIfH6dki5Q0+gy+dsbMDhEwUuDhDWOnBghtzknEDl0k6nqOpPMUNBfvHiBc27H3eebsG1izoknVqvV6MmiX78xhhcvXhBj7MKOp67oWcCWy+UGnWMh01DX9Uboc6ZvDC7vPcvlcmMBG7b1ECwWC2KMNE3TLRhpwUq8fiPxxJMnT7pO7w/OfD5nsVjw5MmTUQObCex36tnZGbPZ7Oh49OVyydnZGR988MFR5SFlRSnL8mZcvYL3S+YPH3JZVYTlAh8jxIBEJZAj2FKbyrLkwYNzitk5KibZx3IY2j5QOFmUOOs4KWZETZcdO1Hi8pqLR4+YLy73bgGMsZw/fszjx48o7Kxb0dWY9VXJErsVfRvkDDNjBH3Xii4ifPjhh6PvqR/yw2q1IoTA6enpqPLbQER4/Pjx6DwJQ8iCfn5+fjQNzjnOz887GqZqmznDzIMHD46m4enTp8xmM87Pz2/UO1yYN5JDbjNybDVG7YC8182zmojciDQ6hGvbTJb3z7kzx0w6w71LH8cGblKW1/V914IxFmsANW16KaCL/BYwvWuOp2p9bX/atlyIUDfNiO254hufssA6sGJBhNgZ+JIBMfZSSQ9X9CmrVn8b1/8uhECMcZSg7+KHPDZjxnIYvZhx9V9jeHRbtFl/ceu/74Pcn5mf+rRN4fF++T59U2jpZ7g51B9b49G3WRXHqkfDlFEbqZT1sOV9WwNzypz8+xSjCawzigyZSjUJqxGDsQZtcYeYmFmlVVF7nZg394okBFnP3wcqaatgBhbs7ndGJp7o9U9n3WsJaNV4K4M45F6bpwj8LobL43ksP/SFfiyeYULKfuqzY/gq03WTH6bRIiJH92+XVmxHP49V/4ui2IpjWH5ruudtlUw1gB0z023DlWe//kQ0lZZtyQjz6r1+mG61zXvz2KtPRLKenp5Lv4zO3iwmH6+1M3jGTWt5H2N1zyTQHsepokKXdlrYFJxte7/h50MwHMf+KjQGz1Cd3baITKEF2KBhLB3DuoftmGrk3cVTYzXg4Qp8zIq+Deeuslv1pinq+tjKb1Numxo5FYaz7dacLhvMs35m62o7Nl9cv8ga8brY2JlCAbVt4on0mQ3HmTYT/R2P3ZDx8neNNDQEQj7YU+jS0gIBIEZWeAIeDRGCgigxBrQJ28dgBC13wQ/9Ng0/jyk3nCSmTlrDeo8Ztylltlpu7opRjoVdq9BtB3YDdi6gSXA2fsr16topZYzGvg3vuvKpINzMKDNswna8t1kdhnjy90ZNe7yoKeW0QE5zpa33Hh4oDBHBoHgitQXIiTjpbBVTafuiefRNwm0mjV0yclyy9Xt458FFm+wCAlHaO+yknYQiiJq0qnc5sRXV2F47ZxBr7tBh9x4OwZfS1/0evvwQtbX4G0GMohK71NMomKioXYLUoB4UHJbCC6aJGBQr96L+tuB+Rb+Ho6AxSV23EhFtl3YxSUlvdxlOrzGtLMfWhpCupYpJ4VcFuV9r3gbcC/o9HAViSI5EUZPjEIZIUtcjab+u9QzjHGIttXiQiJqYbqkdl/v2Hu4I7gX9Ho6CApDY3f6GYoit/U2IGGlYzizFdYNzgaKU9Kyv0dCu8GLu945vCe4F/R6OAmmNalkN1/aG2UoD1K/R1UtOUF5+4zucvfch1Y/8KHLyEBNLnEaK9mDwHt4O3Av6PRwFQZITkGJoSFdKOVV4/ZKXX///+P6/+gWK3/lHLC4K/vx//l9Tvv/3WT14zKKwSIg4DRjfQHH83WP3MB6SoEeSQYWY/Kc1nYVGbXdRSp7CD4LkM16BfKK64UlxAFRb5xTJXmQR1bTzS44ice0eNpaWNoZc0u6R7hxaBYthZSJzu+S0DPjgCRFKUwGGoBERk8JS10QioutLFkdSc8NBRLMXrR52gRUFE4hqURWQ0G6U+8pv6Nxyxbj0rtJ1vaghSiCq74xiMUbEWMCmrgUQ356J264XAXwAsYagDQ6b4uG1QT79Dhe//ou8+rV/TvzkO0h9halXGI0YvYRyhtgzqmAJoSGoT/SJ5SBfZPdgkTSGIqCh/azZj3nkCGSILU+EdfzCBNCoWJO2KImvMqEynhbRto/b9vccM7LsHALDDNGiRRFRCd35e4xg7XoddwDRgAZDDCF5MJg0uF4iNR4vAbvlup+b0CZDIF0emHwibPsauRuT5JLS+ahgEVMStb3wcHQQeCqdcaj0aUiTiBCREJgFoWoq3NITEKIzeBViO6DZk01a11hhLaCih4cku6au3XBasZbWcm0tfoQLrDUGk5udz6Vb/Gg6z/bSBjlEjwNMTHQjEGx7BIZNzJGdXoxpnV4Cog3EJPipcU2iq/UNr8oZYgoW3/llXv3Wr7L63W9gPv0+cf6aZXNFo0uMrjBxyUpOYOaY24AlUhjBFAaJDokOvKDlgXGU1MLEE2nhEVMRW7vA0fzQbjdad8URZVsM7bgjJYrrxnGNYxyuqCZN2h1PTnem8nqJZ0Yw7VFnPtlAGMYKOYBAw6peoRox3hB9SrzgFwtYrYizOUs5PMMAbYRREhJjhOv5FVHr9prdw/5kuWz28FmtViwWc66uLM5a4gTvuEzL9XxO0RQ05WaobASkqVl4JWhBiBaxgjUQY5O0h/Ya4hgj6gNNXRPFEWKa2aWLVd3TJiyL+QJrHeKTQEYxFAJ+tWK1XB1c0VWV5XLJYrmktEKUmqitKUzTBBQkQHAYC4gSTCQEn4J1BK4WC0xUKFdYLbAUBAwNNcEE1DYgDSaWwAycxTqL+Bqefoz/3u/y4jd+idcXn1G+/pTFs0+pL14h6kFS5JwgWFMgpsB5CNoQF9c0i1fobMZq2dD4iJ6c4pjRNKu9fSetEKVIs2TQW64uub4G76u14jcKEv+lpA8NiD9YYggpes0wX1yAeEJc0zCFlhSmusKYzXDSLpZhBJ56scSqYRVrVE3ybdCIqxyz03JjaXYA1hsK0y7zKqizCEoISogGdeVh54bMpZpc8UzrxmeLAluUo+OXRZIDRoYQFVd6XFGmYJOpbrAiuKLBFQXWbQq6bZMtNsbjC4+rPcGk752EdiVso9uMgtEUwupsqxLrZtt3kYBpQwod1jkMKfGEFUXbKKYxLJcvvU9RTxajQpQs6EmJN9GmABqjqAnp0tX213OjiERcYYlI0l4EjEKiqgQtkiqvDXrxA5af/AGvvvlbrL73e5TPP6X5wcesri6I0ROMIRQFwVVIrLE+MjMFSMWiMVhVCIaSU2ZmhjEV0QjqAlI6RCxWD+QpyL7g7ZZOUWxR4coKWxRk7WwKRAWr3OCHMWBandUWxZqnZL0dHEuLIrigN2jo/PkZoSpWFVpWUBSICgVJ0DdiKVpwiXhDaWd0eQc1gLS+yUSkclSjVPdha5SZq6lchRubeCK2e/A8tQWoTcOsOu1wAuP26e2zwQUKV6yTX0jat0v0RAKlRJw0OBNQMaSY/QIwbTx16hcjgnW2bYt0e/RD+doEoQwlzjjKqkRRokja5RYOVzjCgeVARHCFoyiKpB0Jib7kXYooBHGIs0m9lwjisKIYFSQYojjURmTWaima9rgqjsIIsrqmef2U1ff/kPkPvs3q8+9Rf/JNFp98i/D6RatBFGjhWHjbTh+CjYoEA1q0KnVDtJ6GEh88bnaCK88x7oxZNaMgUBYGCYIr9ifBoKWxr4sWcklVzCiL8ih+MFiMWqpsCJzqVx4jpSmoXEVVnmyO20hcVhoIksr3hXoCLZW7pCwEVyXN0ohB1KBR8o6ng7SM24YmAmJTPHNUhADqEUkGCzN61hxMJ6qI6ujyw2ASVSV6f3OHfwhfPyCmNb70cUSFBoNVh6OkiAYX8/5cCVhEDLa1KNMKRv6c9o2tReLQ4CiDPfrgtxjH2F46411qXt6T5Z80bQmcpjNu32oAClGSlbwxCgacmmSsweN8ILz4mMtP/5DlZ9+mfvYxq2/+NvPvf5vm6hoXI6WB0jhqjQQbiaamcBVEj40ea1KmmwaD9wFja2aFQljR6ApcTbRppYntfGY02TcOjWPOASCsDbXBN4mnNh/c33d9flBFNG7hqe6/vXhijGlBanlbcv0j9e7MPcIOuRhDB2C9xQWhyDxEq00bm7ZRPa/DNpNgQxQhiiEqFJIGIjYNzXxJPGuIOnY/s1ZhRAT1c7SJxEMq2hCLphhrrZdoc42urqafu7adH+s5URsi6ySRkeTcoU1NE0CloIkQNHlvpUBL1xo3lGiSxGxYzpP6w0HdvRX0Gw1oBTe2zHy4Odue6dXfWqVFBaMGYjK0elGijdRVnUJMmsD8+VPii48xLz6H736dp//6V7j++LvoaoWYiBGobIE1JcFHQkzZeEpniNFjbU00UAeDpowXiEmrio2WorFEmeNE8MtLdHUFsyv8YkkTGipOsFIR6+XBdqdW5ow0Fm3maH29MZ7jIPVVrGti0xDrI/zy2glbwwL1Fq3jdL5EiY0n1MvjaGjBI3gsqkXiy5DyE2AgSqTvjuQANJY4Y9NENL9m+eJT4tVTrp9/xvzVBdX7H1KExd5K+0aTrIVaZ1lcXqEnM2yXNO+QMc6gbWonY2xKynh1xfUn76ExCcRY5UJJjDefzymKgqYouvICWBGufeD6e7+NxCWNgTomLbEkoqEhpE1uMi52bc1HTuPPdUT6ms5mwoq1M+iBLcDW6qT7zUpSo8F2/uZeFGJDsbygfvoJzeUFen1B/Xv/kpdf/wUuvvf7iCrV2TmlKJhIFIhiCNJGphXJNhAbxahD1XAZ54g4nFZIEExUTAHYZBRaeAjFQ2au4PK7f4Q8/hVmpw/w8yt89FydnyLmBMIhY1zSmHIOtKIoiM+esnz4kMa5VvAOdl0LaeL3TZvB9ey0jSUfU7bFoIpzjubVK5YnM0JZrudaBdVsNNzXKAjes1yusA/O2xMFzeSNbk9jDP7sEfLBj3D65KtQnROiwUrvMKKFtKK7glg32OUl/g9/nT/+Jz/Hq9/5JU7nLyhDw1NxLM0BARVBjCH0ssm6omA+nzOrqrXKcwByxlmNsdtTL1crXlcVIcakokzYx1hrWS4WuHZv2+Uq04gjclk+wOmC87DCVo/wVMl/23tEA1oIRpSc3nnjiLM7wz1Mj8iWc/SJoNpPhZH7Mn+TJFtVEasEo9T1Er28xF4/J3z7m7z6V1/n4jf/Ke7Z70B1hncF1WmFtUCoUQ9OZlgkaaaiRBOIRhEb8b5uGVE58zOsFcT5FJ4aBFaGIJFYeOJpJDYzqjDn+a/+Ez779X/O6WpB2czR0lAXhuuVcnqgS3LaqLpOJzdVVXF5ecmrshzNU0N8IQR803ByerqRLWbcGCiz2azLLLyR4ixGwpa8hNtoyJlwz87OOhq6SWsk2ODRh0+o//JPI//B36X8iZ/Bn3yFgFLFSDobTuAg7WFLE3j9i/8Hn/5v/4Dlsz/gtDqFs1O8j1g5xTIfV3nP6KbAycOH69/GNqDFkRtdFUUyho0sP4RZj6a8dgI0qpxIBCpWtgJVHEmVDC4Jj6isZ9wYe8eu49NI0bZm6zCOLa9AlPYEuMHgCRg0pnTPalz67FfEsAI/p/nGL/P5P/tHLH/7V7BXl4ipkMJQn7/XMaNV2hTRBiwpZ0zP8UNUsCpQQyVV65whqAGvQGhHpRtcg4klZgGFCHP7gMpCRQ0zSzN70D4FD05grCNV2Y5hA8x6mVOPMBHjAHdy0o3GVL7yAxoyCONdTS1wOpsdTQOADZZGa57/0s+z+O7v8pW//9/y3t/6L1g5m45KGTjMqBpk9ZJv/cL/Qvn0E6ytaBpFTEFjoGieIe741LhfVjCDZI13msHmrkHAWGEhQjAlZ7TnpK3FHW3QV58x//q/5I9++f/k5W/9AufNBdXMgRgWJxasx2EwcXN22d7u22kfkFIOb1vdNr+7D2s5FnwhEA3n5Qz97Ae8+H9+gcd/7j9i9rUfIZhw0+oea+Xlb/xzZlefgI0YV4CP1KpIWVI2TDZ7/DDBl1rAW4iqXMUVMx8xCmKhsQ3NZ99g+S//Gctf+2Xmn/wBL8ILSk44KyucfYgxK0pWiCqBCmGE2+kdwW0SHd7DYfDB4xDEFaABefEx19/6Vzz42ldANvPmp3N0Fwm//6+RRlkVFtMscDhs4fG+oZCH1H/iEv9odyTRhy8rUxoxnLsz1Br84o95/S9+ns9//ReJP/gYmS+p69eE8JqZVOmUIDSsRFgYR0Ax6qkkYMjukjdhnXzxjvog92Xv2Glt3ujFNNzDUTCzgobAZaNEV3AqC66+/5s8MD8LvL/xbFLdjaecnaLBYppAZWcENfi4Sh5y+ghhv3X0hxJ+iJhMFWovSdE9fY/zf/dnsGfv0fzer3H1ja/jf/AUq0IpBU0MiIkUYqCJGFMgpiKESNB4ww/6zRG9aTBsv0zbje6XH54x+LKBRKVRgziDten4U8pzghTYlCagAwcwl0j1E38d+4v/mOKloicVwQhGPZiIdzma6U8a3GSyDTV+xHHg2wKRiNjXRI3Y8pzZ136C4v0fI/7YT3H2k9/jvc/+mPj5t5j/wW/z9AffhvlLTl2BBItGizoIElCJmC0mrJvbl9u3ez2PrnFvHCt2rqP3cAx4H4lyOD0EOAAAIABJREFUSqGBYnlJ9cEjHv7bfwP0BIlzMGv1vXWBLZA/8+Oc/PmfYHH5jHk9R4xSGkcQ8LLA6DH2zS83RN29jxxz5v82QUkRT53vN0KYnWO+9hc4/+pfQOsVzatPMD/+r+Hz76FPv034/jdZfO87hMtXGA/SjnZWoHfdDnJX25d1pF/2KKTzKcgRd/onbkv49sAYQYyjCYGieMyDP/WXOPm3/hJgwWw6IjmAWePwJw9572//XUIRuf6tX8A+/xwnJSFaYgz8SZt5Fbq96rbrmr50oAJ+1t7KDmoDViQF+RhBqxL96p/m9N/4MR6GBi4+5/pbv8Pld38H/fR7xM/+iOWnH7O6ekmIoXNEGV4pdJeGSQOdG7O258SpKX3X3XtBPxZKEZZcYR5/hfO/+NOc/fv/CfLolIDHm4r+FZRpjvdQWkv5kz+De3jC7IOHhO9+B79QgveczKoU6HIE+KbBbLnnaiyEGAlNQ1lVR5WHdEfVUJgVwRuDSiQ++5jm0z/CSAo2yf7LsXsy+bRv7uknrvh75GfMAirAzMbk8aZpXXbt2qwIaiJGIkW0ICU8/BqP/uqP8uDf+zvo5UsW3/xNLn7nX1D84Fv4y2csn39KvHyOCe15iibHFCspNj0dpa9vIdHWs8+0k0HyL2gTOLQUJiWo9SQEXIxoCFRf/dOY976KuJLg090uRZESY6DTBX21Wm04q0yFfMFhCp1m8lAiwmq5xLkCa29BQwjjg722gG88VWV578/+ZT76638H92d+HG1jMxpmNwXdO0/0MTHQj/wV3v/PfhK85/LlS8zFBR+8/ySFHB4Aad0JxZrOon15ccHJ6SmF6wfp7wHN2UQAgeVyxdXlBe9/8MF6xRkZqZSfv766oihLqrJcb7vF4K3B64r5P/ufefHz/z3ERQofVcFIzrDTsxypEnygrutkmR7JIAZD3TS4oNTUaShEsJIm0hgjhzPMQIOybDxFaAimIbk6JacWQZIX22CcYoxIeUrx43+T8z/713iwuiR+/h0++/ovsfzWb1C8/IRw8ZRmvsCqIhHUKrTXQnfBPCYFpIg1qE9RfpIDDVGixnRhg2n7LiRH/hgazv/Kf8jZ3/x7lI8/Ynk9p1HPo4fnKafFxLEUY/j800/TtclV1VryR/JV+9CqXtHUNecPHrSupwnvWF1GxPD0s085f/iQk9lsM9xgDH+q4puG5WLJ+cOe442stzr5733w2dWCxw8f8+DhQ4IIYdUGthhLIQ24wf3ol/M53tfJ9ZSUp9sCy8bTiNBYxyv2r+j9my2zm6GIcFkVnJSOonDpyt8DMLxPahk9l5VDyhRNNubmzCE9V6WjqhxlWXRlHYYq5osI0vXFEhND065mRgxoRDXiQ8CvVlzPr6Fu8EHTfWJwkMkKV3G5uMSIYeWWKXDGWipr0HrFYrlME+megY0xcn19nVwvpcGzQjXd4W40ZRUJxidXVLgxDiLCarVKHlkf/js8/o9/Cqlr/B9/g8Vv/1+U3/sN/OvPubq8QlZXlL5GlGTJdxYVwcdAbBJ/hKLB2pIizohR8ayIboVzgZOQrP1XrsCL4cxabOEI1jG3jlVI0XoRIbjDK6JJcbfkq4peVI5QOqqyjcmKhwNL+ny1IlATqcueS3TrlnoI8nbneemoC8tJuekLN5Y/g4GFeupB+bG3wwIsYkSWSxDw7XXWxhiKsqAoS8oHA0F/+OghUdc3loqk/dX8+prlYsHDDz7gbIQH01qRNMnUj1BVZ5zMTnFFatDh45T+Mqkslyuq6pwPPngfaQ1JY45k+u6ms9kVVVlSluXa5VAFGyMhzOHBIy5nJ2jdEETQ6AkxKUEiIFYoioLSWB49fIg7PU8tGXvRokI5tzjrOC1PUl5zMThR/PyKV+fnLOcX3R52GxhjOH/0iPfee0xhZ6g0aE480Zq91ETsHifM5XJJAKqqwsUI8QT9ys+y+hs/SwmYj/+Qq2/8Kp/9/+193a8sSXLXLzKzqrvPx8yduXd21mtsbPyBwDJmZSHxYQkERkI8wSO8IFnimTf+CXjmf+CdF3hDfrJkEGBky+tlLa92Devd9c695/RHVWVm8JAZ1VnZ1d1Z1X0/xtMxunP69KmMisyMyIiMjIj8nf+Epz/5fXTrDVS3Q2U9SBlwyD7HYnGHZ7TY+g1arKEVQ/sFdHcP1VWwsHBuA7WsUSmN1eMneHjxNSw++ToW9y06b/Fwv4CCPqM+9nMZKgiEn84pvHjxAotajNMSu3vPEW3bom1bPD48Qur1lRae3tNAeHyMGj3h18C95+npbIvdboeHh8NQWuay9OcKP8Ldaon7h8Oo1dFrkxVCQEZOH7OCdQTvCKZoD0PoC+TFrK+F06g8wbgC80pw9AQQKk9YOIXKCX2lm6n9cwuvAg0S+ilriVJgb6I7OmbXSRw7ySMqsBi7GOseHEvM4d70sE08TROB+uQMiBMs7rWdZ7Rdtw8gOQHW2mAVmThfKlSWCbuL0Kn8OuFUSznnQMwwtQZrwGuCgwd5FZjgp34By09/Cj/3d/4Z6Okn2P7Rf8Of/e5/xo/+92/D/fn38bCsobxG23S4r5fo7BLslzCVBmpG61s0roVSBnr5McxuB+8dasuoXahfpzygWUFzqFtXzFdAz1tLp1DH+gHlkDzrCeQVTIzbn1LUUZ4NPEkZDRPocQocZePYO86ZKVqrUAVpjEzZAkcISS1xLyZHIByZMTA6QSkaT8jIgEBgGt737JUHKwar8+0Fh3SSKVzc5yjgmHLRfNpJr/Z5uoKXiPqaa+IY8S6OcaxAw55hrQ35vV6KBFBfJBKSTVag0b2P+cExOsyDIBcfK6XiCcCJfnHW7/SMmilYCcqjouExaOqwUkrBM8ORBlxYzCrlAfUEggPUCqa+AxYMXn6OxeM/xjd+5Tfwjc1P0H3/D/DD//lf8ae/81+wfP4BfBOSZGCW6ABwF7L77vUCCgp200DrYBVVWoVMt2CBxyuc4sUPBfEZ+ZXNljw8xZK1witn+LPnK4Q59rEIR4q36MQh8oejyNOpnBXQ0T9KHOMajtycWoArv7Netif5aQqQprfI2WayuEkDSU08Szxkb0H9BHq5Z6u0uCTkCAbBmUMOnlw8hol6q2Dh9Ilzy8PFSwB9oIuBvcErK+Nei/dHvkpBE0GRj7W4eo9LTBndWwDnIH2MwMlCijLvMcWKMTFduK90I8IjPgUIiYkDK9n3EcK2BcpFY1jD4y50uq+q2kFpQD9U0A9L0CcvUL36HD/1V34Ni2/+E9x5h+3v/Tbe/MF/R/v970A1b0BLhV1d4clb1B64Nwqdd+jYoSOHjhhGhQKzlkIhj1Czo4yvAJlTCvMJD6YyH0mKA0DgKbl4Iv5NlTj0EHIOFAhe+Ck9Hiz0zzIHntzTQIfdKKJlKODAflGU/bpAzF47tqoEM1U6VwQse5TwvJK9bJ9LPQ0UK2hWvWcZKBqD/jkG9u15T5doWWYb4gR8qNEN1kHgpR4cB1YY7p+lbv2EHu1Xz8GvzIhO0POm+2GiK8cV8fjilzOAA6EjgoEGPMOB4HSY3XAu4uFgQmQk4j3nWsGtHmCW96gR9oTLb/xVPP7dH6H98Xex+c7/wPO3fhfm+3+Ej7onQGlsoeJRHYMVgYlidX+Gh4NjB0OJn6MAglEYavErTOOpVAADT+3fTT3PltFAoL79GP0lmFSoXAeSQo1Ju9LTPqVEQe15VU4Rcn9PKPdMHIIv4lv6VYridbgU1ryzENXtsO8xmosmXsETJzVW1gJI9XhL8XD/M9TuZDm2i0AU66pDrHoZtGhecyhzz9K1PnIsPhtxnTP5TjJRv1UoMN2TUwsSIYx9Es0k9OQaPdAd9GGo3x7aKo9wvBTfzhSOHYhluQ48oGMdecsWZAzqn/4GFuobuOv+Gla//E08/No/hP/BnwD/79t4+uPfx4++84fA7ilWn4lHlgxoT/BeBaFlgM8UNEn7LyYXS0135Lx2HkX4GXiK+9VxCp5YnyCOPY+ssEX8SSqMddKekw8lOHw8zj589pDjgjOOKJqBsj+mQRNVuN5xyqsRn/w6RZv3hMeVh3sTeRquAZ60EaXbuxhIo3LTjQdaMv3MyU8Cxq2hUUIOoah9DyH3LBCusF+SBNMwyu0YBpOYqaT3rXxcDFW/I4gLW3zYg8IlHwSQiQtBvcLq6z+P1ec/D3QN3Bc/QPW9b2PxvT8G/eA7+MH//T66+1cxyCZEWBIRPIWbXkoKNQzmkYH8MO0ifkjU53mLav9QOupzeDwl5dh7zuITa1PwJPEn+cIVve5DZxslK538V0r0/ihECJ2kx5MOpOtSUgW0WCgCHtHQNII33tUyMCuZkr1siqdvI1qzeHs+AtkqXqYCENx3jP1BEyDxe5RQfMqxlD6X0672D8X49IwXJIhIqb2I7v8MLBbQn/8sHj//WTz+OgM//hPwd7+L+uNPQYtFsEEUYmloVaxFh3wVHHkUlcCkDSEnQiE8NQHH8KlkfAsDXDJicHziy2gak05GEnCWwO2SxRu8JSD4Tz7H5x+9AnQFhkE4d/Aw3qOy8fqvwos9bnAZ3AT9Bm8NPC1BJl6z6RmKQu6CdzGVbpIGvMElcBP0G7w1MEyI0a7hWFAhXI6hAF9pYOwShRu8FbiN8w3eHrCHVoxKh8rDioPjVykNx0DrZvhvbjALbhr9Bm8NGr9FZaroHCQQK2jvAedQsUL1odcA+AsEN0G/wVsDY5a9Z536I/8Ysukc6OaIe2dwE/QbvDVQ0PAWIMlTIABGAaTjBRkO1awrGG4wFQwQLmV3zoVQzKRu2GazwWazwWq1mlRiKI3IWq/X8PF6pSnJKPLsbrfDZrPB8/Pz5KSWlIa2bVHHtEY5Zwze4B2apoG1dpAeqAC4eMhNKiajMKNrOzhs4Fnuaj+fBUCssN5uYEwFsuEiR08hI9DvGljbnQ2BZXh0doftroNtG3h0gX7ieD86wZELlyvGMZIcaxm37Tbcnyf3mJWMoeASEJ4oic8nUPC2J/H5TdvELLoQ2dWUnBdncQHb7RbPz89YxKpDU/gBCPzetu3Jfp7DtV6vw310WQ57KQ5rLbbb7aBuwlQ6NpvNvgJQbKOUgjEm5KVXWT66pFCmLyQiGBPu4y4VUoEUj7SfK+iySFRVNVvQq6pCXdcDHIjhwNZb6FjqKgTNhO+9D1VTgOAxpjBQ0FqF0lhRuIhKBJ1gbIVKG5iqAomgg+GNhjEVukGM1QgOEIzRMMbAKBOyt0DwRCFJBdHRFYt4iqCnY2XjvXhVYfmisfGW+9nlHrtz7fMgJ+89FCnUVT1JsISOnKcESmlJn5f2cwRd+CkfyylFUay1PU/OEXSZi1S2iAha64PAMgOEiwgB9JMnD4mmr+sac2GxWPSDMhVkpapj0Yi51UkXi0Uv7AP8HlDOwcUVkCXOPSYFSHxSGiWmtUFV1+Ak+60kdnLhaxhlUNUVDEJZJg2GtW1x9prWuheyEMYZYvhDhDCDyfSlnMdi3UX7LM7U3xuLQBRGkrno661NBKnXNoenhC6hYS5fiqCdG4e3SYMswnNoEBCeHliqEXJLIxbq5MGKMBfGSuDMrSoq7fKfc3CM/xEDAWUeXp9LJLn4UtyBB6GOEoJZHOLLqZG/N9OZAefLTOmQbSckHIYmp0ktg++TMSwdx1z7zYWxtteay2vTNad9OqZTx/dSGgTy8mspfQLFy/JUoq45MXOEPe14uo8ZDkjcYzMnv4sQDYVpMDHJ4zz44ggtaS5BtsDsySno24k1mCWZ4cgYXUtwL8FxDSWQ70mnmNvH3l9cdOIMXWOfp7TLeXbu+48Wnji2Glyi6fM86Dk4pM3cuuuD9Mz83QQg5qenlTkoZvJxIsTicuvzNyhLOygw3XsDYIzOPUGn+wPaLwyMpDoL7WnK+jk2/nPnMk95nQp527nWo/DD3H5cg5YBv1wAx9pf0rcxONDoJRrhFOROINkrzHHmSTtm7itmTFnBxeOca4HkqbRBMlic/EuytwaCKH8bmvyjtAxachTS+FuhVRCeFf8BYpZdTuFwkc697lO04JhFJGNaiiOlY0x5pLSV0DM2n6XaOOcpKb805o8o7c9Y+6naPO1T6hCf0n6sD9773vcGjAh6vupdqgUuaT+mQabgyekfWAUcE/ej6c5xwCQZmCgIKEg0KQ3aAkgm5wwhvK8GIg+n1oGKxR7OCjvF/pNsK8JJQZrrOqbRrzEXJd+V4EjbTbXScg16qTa+5HaeY++eyp9CwxzLV9qPPZ/3LUm5vp5z4NrwVmijeBwFdcBA8gADYM8xxxf7DXX8LEJXArLy5iDbgiJI/IFAHJfezzCO51LTUt7zIcFxC+3d0pD+zL9/F5BaaufGZCDoY5/Hfj8Gp5wk75tZDgaCw1n5gaea5EgtXNwgitb7TMqkzYStRFpIY9CqdGhoXwgn2iKHFkgGczzCeft0IZyqBU9tFz4UnpgC6TiMCVrpwjrXqXiOtvwoVcDkD6aEjH1/7kX556nm1akFYqpj8Ng2JHyBUO3EjzuwSCl4pqDR1X4ROIb/FIT1IC3tSIN9dREajtZFvy+PFV/iOXpuGZwy4c/TO77oz9GkY3wwlyeOLRZz+GHK+4/Rkgv3FP7MnXmXWl5FXvdTjd41jE1GGrk3Bc4zgTjT9g4/7x0cSw13HT28HFfIYH575/tLCEN052m6jv41GgT5fWmnEMmTByWQZCHpnXwTy26lrzkiEMw8GnU1BS7RovJ5rtf9GD1T99XAXqPnt9G+7ffnbUvf2wv6MWdAvlpNJeJS02TufmzM0zxY9frKYUGjklIgCv/ALljke99Z0irYz4RQBTb4wU7Tlq/eCbrw7pKJJmGulP7UQhl6bMc0jcAlc3nJ/vga27m5NORjk+KaA6nXfi6MtZ8ib1Os7r6u+zliSphx7MVzzaVjJvtU812ePVi8Bl0ON4BK/fEQDRdujxMnV78fj068qefoYA6mtw84uJ/QaT6QlG7ZDsiikwr7qXE/N3bSPh/39LsSPD3N2fNzPMw5LccEpARyk3mOpTj27jlbSyI6GNcpOMYWrTFrx6QNTiGfowXG8J3Dc2xPl/5espKW9SWJZRfznRnwPtQdH6CY70w6V9FzL7CnHop79CN/m0LT1DnIv5tj5R3T5iU4xhbq/Lu5VsrU9vLese3kpdbvVFrSd47hTP+m5OExAbp0tZtj2lzLP1BKR/7t/tn9z7AXz1fJ6VsJUhTP0tHvzwG5yPHMOBOgdH7lUpxoYbATNE0xd0+ZtnPm8xom+1i7udvCnKZrmN/X4vU52xERall8mHnc6y5ZarmQN02DpmkGubtToW3b4rungeFKRERo2xZd16FpmqNmaQkNBwMYBc36HTq5zVQcPeD+FhbvGVpHYeJ46WLTwMerdAp8cQATdk0Dox00630+Ohg+5sEXAcdUU9eCqQMopKmGq4EAr9zJa5O7rgOAQcTU6GtGTHf5XnK5z+E4Bk3TwHs/Kfst54k0n3zOVk54ag5fCy3H2pfS0XXdbBpSHEqp3kGabwEOIuPW6zW6rhsIo1IK2+0W2+0WVVUVCerYnu7NmzdYrVbFaarSTv41TYOnp6ee6CkTK8+u1+tBqmzPNFDwvIPbBWFXfXSc6EYVrkWmgEuKBXBrYW14jgrOx4g1nndvYEwFW3W9oNdagWyYbBJcx/riGdvtFuv1GuQbON4BpMCKYm484MiGK5AjpAssEfWFJ1ar1dlxS4U79Sy/fv0adV0Xn6fnC/Nut4NzrpjB0/mWhfj169cAcJCHXYpLBExomKo4lFL44osvYK1FXdcHNJYs3F3XYbfb9TUC5vihnp+fYa2N12n7/v1aa9R1jeVy2T9rAODFixejmnK9XmO73eLVq1elYzDQBkSE1Wo1SdAFh3R0u92irmt87Wtfm6zN5fnn5+dRQWcGrN1i+/iIN3UNt9ugV9OirUFg70AAKmPw8PiA+u4RHIWriBwGVtsKWhncLe6Cb44ABUa3fsaiXqCj+NIjQIqwWC7xyYuPUZklWNkYAhsci8ThvP9UPnqpoEv7dKzku7Zt8dlnnxVr5JwOEfT7+/ui9mN4uq7Dy5cvh4VECnEAe0F/eHiYZSECwev+0UcfDaovTcEjgv74+DhKZwkurTVWq9VgLMecpsCt3PMNbvCVgJug3+AGXwG4CfoNbvAVgJug3+AGXwG4CfoNbvAVgJug3+AGXwG4CfoNbvAVgA9S0OeE3s5+18h3LEkoSUz8MDo+OT+fFT2ZRCAeI2IMaOzj5bHtJe2vEZp8aejrWFDJ+4Kx2Ptrwtz+HaOjz14ryWia84KpiQdjWVd54MdUPEezpUbx7INp0uoQzFnSiTBf/78TtPQppZcxgxSZZOwXnPC5j+65SlJLybNTGXEsl2IOM48J1Ry+SttdI4lkCj25TOT8XZq4Je3H5Df/bjR7bWwypqTeHXv+kgSZOXjGFo098iCrnod5xYRYS04TPEL+96DMciAMzBRDYGOiysmOoMed13UPFaoKstcgkzroUVaZ9kyfT3xXAjkzToVj2V5zYSot19DCxyLP8r+X0JLSUDJvl0CfvTZGyJwV91qZSjmOOavvWJv+M4WwUkW6v3stZIKFii/eezjv4JwUddxniYEIpMbzfkv6kALFDLSz2WsQ5jiGfzx7LR2DS0znuXhOPTs32+uSbLFLcRyjaU67a7xf+C8vhHG0lNTYSvsu98pjMEbHtbSA5Hc7drDW9rfJeiJoMY6JhnvhqHnhPRg6JnwAJSZ5vxcf2ZSXCHmgfWwDIIvP+92zlsL75qlLIefDSzXxJWMxxUL5IJ1xAmNa5GpOmKjRNam+BlmovR7LSSUPEsV8dMkbVypq9An77kxrM9BXnHHeFZV89p5D5VrZqA+7c3LBuKaAzTV5rwW52XspnimQ8+HbsGBLIb28Ie2H975PSRZ4a4J+zQG4hkYfNZNEQ/eb6MQ0jslkg7RVmVzvwV76VNivzLQmxK2DCtdTl2h1bXRYXI6Z74OuvR2Gu5af5csO17IwL1FgaaGJ3GzPswsNENIX86t2iKhPU01T8UqITq8Cen5+hnNuUppq6h/Y7XZYr9dYrVaT/QZ5mmrbtkNzBwTrt2h2DdquA6yDVwoKsS4cUe88Y3bwzqHrWjjScJ6CJy3xeB8FT3jaPqPSBugYTAiFJwhwuwbNrjnrjGNmNLsG212DShE8NWAQPABiAjzgle0LT+TeXEn5BQDnym5vzccRCKnL6/W6uPBEOl9E1BeeOHaV0DkQvqyqqi8YIt+X9mOs4EMpLWG7prBer0cLqpTyp6SpCu1zxmKz2fQCLnSIkCulBlc6G2CfwJ+76quq6i9rL4GxQZf7m+fejy6LxNTcY2lPdOQua1Hi3sFXFYzRYBfvSOdgInsRPgaIFEhraGWgjYGGEg/YeUFnGtyP7oG+wgwZDVMZWDEhjgBR0PyV0TBag1GBKfjciRUAhicNneWjy511wN7UO3en9zHhkbZVVU3KR0/7AISFRgo2TBFQgcVi0c/nHEGXf+k4TKVF7iafw9dCr/f+4vvRjTEDGojGr5oyAI5OmpSYmnLZe65J5gh6yhze+35QpSNTaTl2aT0zQNbBGQOtNFyPe2iSp8yktIKpKuxvYi0hBKidCHoNBvdOP+oMtFLoSN4T9/28pySUj7Fwf/x7+NF//HdQpMFw8RRAnuVYzIL6diR9jDSGcmHnS0mFvo50g4FmvcaP7+7CkeK5+AE6XAfDKYbHszFFMQhjtGw2W7jlAjoydIkSTfnGeQ/vPNYJT4ZNnIJhB0a05hCOUavVAz7+pV9F/c3fBGEv6MKXcy0T7/0k2cpBhHxsscgti+IqsO8Dcq/itY5CxjTVfo+z36+rnkV99NL7fp/NRbvqwVuSPXp6OVO87omiUGIoGP28eIvue9/Cn3/vWz2N++FI9/5vfw53b/0N52EzucVx34aAhcbC27AlIoQbaz1h9eJrWNp/DvPN34Q5IiPXlJ9LcB1rW16h7wbvF4igqxoDFcgDuwOFp/FFZejPqdqSN5WcJFwHT1mf+MwRpIeCYgJDhXgK8iBHIKPhqMAX8wHDTdC/TEDZ3kts8wjx9P8smhLBuRwHUHKo867wcIFGBxGYPQAVFgVSABMcezRtMy+t4QOBm6B/ieDwyPLwGX82cOb82TEXbJ5LHVeX0nItPCFk+cx7YlCUB8fTDADs4W2HdrOJt+GcJfeDhJugf4mAc802k+nKXB0li8FlON4lnpLXEAjKhw1Q8LVyqJlvPfxuB+09oD/oGLOjcBP0LxGoRFtfI279GJREjJXU+S+p/X4OTwktZX06fwus8mGT0DtamaBBIGbYtjlIIPoywU3Qv0RwjSizY+esU99TckR3DTwlOMr7dGYfTwqeYypwf64Z2nbWfmnyCcbgJuh/wUCV8OI57VfyohIBvAKe4t3JOXrOb9HDM4R9IBIQDvEVxbiFUmI+PBico0t4Xw7v+ox9LCvn2jQwGBYttHsNuAZrMqg7h9q28MSwRoPIoXIOGgTbeqjWwHED8AqKDOCDh/bAG170fgzico7xad9n71DzFj/Rn6JyG9Sa4RxAnqFIwROB2cJRiOJj9iBQzLcHtFaIYftQ5+j1PgSGqBBJICGrdV3DWgulFFyRZ95HdCEcWisFF6PzjDHh+zMedSJARY1aVxWsczBawznfCx6nKcRHoKIGzht41qhiUIylFVa6wQ4V3MLCOAXLBEUehgjeMZgtqNKwugac7yVG7jsLNA4vO5wDadtSHOlzEgZ7bKtjxhpey0TMiZkKl+brnk0phAZhifrVz+OjX/0N1E8/hmELB0andLjAUHkQALu1eMASVi/BbEJ8OeLFbNN7Nj3cRinQ3ef4+Gd+HUu1gyYHxyrsK5WCi4JOrKAUwXkPFQWeOT7jHAA+by77GFiEyMQAvPPQWmG722GxWJzAdvehAAAbVklEQVQvtoGQ169on/eglOrvCQsRZef3+RRVsfMORps+pTjUEIjhRXmU0Vif4GBRA2xg/C7wltVov/U7qFhDax+yCUkB4aKrkO/AABShvn8EoA6E+Rr8mX8uBQlplvapks7pHOSjH3vZnKi0udlrYzSMrZYlDqVTKYVMBCYDVz3A/OI38fnHn8LYBooZHgreBy0JxbDe4fnpCS+Xd/DVHQAVotmixjtvfh6ZRNFIZ/aPzAyuluh+8W/jL/2jf4lqQQA7ODJQMQzWE0BwUGxCxKzn8Lfk1W3bAsyoF6fDkZlTekOYr+eQUqvfvMFHHz1Cn8iiC0gAzwSthvX22raF8x7LxSK2Py3sYWiji4wIznm8efOEh4d7GKMjfef33yEROI6NfYa1HdTr1/j2//ldPHiG8hrWeyijwJ7hQSClg2WkDR4//gRQ+zyCU/xXyutjeKYo23Mym8KXZo8+ZcUreZY4+lZIQ736HA8vP42x2QSwArGKvhdGYy2an3yB5cuP0JECkY0ZaAqK6GIfjQR7nKKblYL7+HM8/srfglougiCRDjEdiNoT+0sWvZcEjv4lULsGIMZieS6+mvaB6vFXMGCtw+bHf47Vq0+hdRC+k/3yFLXuHlTTwjsfbvpUwDlBB1Owf/pFEdj82Q+x+vRFkj9xXtBDNwiAw85uses6qB98FzvX4E57ENWhxgARXFzYiEOCIkFjcfcQhH/kPde0hKdC6TsHgp4npADTTfCxbCX5PDf4f6zNlH3MaB+YYcR0ZMBThWCapW2jJeAVvDfw1QqVbQDt90UouCDoY4QP01+V3M18ilnZQ9s1oBw8MYiCNmP2veOIOIRt9k1oGC/GvVCdOa4Cg2KCDbOkexBADOvaPnrsrL1MIfhk/ytBwlGYPPZFM0/QQqHvgS6hz4HZAZAtSIntTj0e+AqMCt5rrJoG+t6ByYCg4SWxiOM4kAbpCqqq9uOc8eQxrVwC6SIx1ZTPM05zmg5M97ZtB5t5eahtWzRNg6ZpilaOdL+Q5pMTUX8PdJG2TZ6Re6ybppm0hZDsIKKQh+2cG5zZMnt4stDKwLcSPKp6B1aYUQ8iD9cxqN2h2baoaANrFQgG5GL88xnfFkGhaVsY5aFjCSqvCBqAt91Avo/1kQAozWi6HVoQatQAKzh0YCJoVtDeotOhF33yTTLhu26HYOafcx66IMZE8LECThWdZ7tuh6Zt0Lng0DqHJ6ehbVtYb+E1R0fcGWdcyCUDOGTnEYDOd9i1TRRKjk+cmwQGvIX2Dp2lMIetxQMZcKVg/QIaoZyYjgVBmINlo5VCZy2aro1lxoCmaWanqAL7fPT0jndg2iIhd6On8il79XzPboCQwC5OkvSF2+22v598SrGCVMienp7Qtm1x/nKugZumwdPTU5/OV+qgSxes5+fnQaorEEJFG8VYVAvYpgMcw1DYc3euAxNDVaFkFFqHp80z6M/vsFht0HQ1KgKM6+DIwtHpsdGqwtP2GUYZuMbCsYcjQq0I3DbYbDdQ7Ee1RL/ie0b7psWb1ztsjcc9OZAjOG7hNaDZwDiPVgenmfci6IKX0DRB0O3i9PipKDakKJS6chZdVQEMNK932NZbsNYFJ2xDr3tQHk2oz7f0CCW7TguoIkAT4KyL1XUo0OAMbG2Dow44u+i0tYUnh9oD1Gm0TkM3LQzX2CjAdTWUDlsbUuE0w7lQbMRuN3jzxWvgzRoaDkTAmzdv+nzy3HQv4U9r7UHBl5T3S3Cs12t473sHZZorL/8EDAC8ePGif2GqUUTQX758Ocl0T5+9u7vDcrmcXLxCoGka1HXd0+C9L65uktIwWnhCbLHego+aPdLgFcEpRts10LXB1z/6BG21xGOzRGUIIA+ccIik76o3GkYb3NWrUGWWFAwx7PYZbz7+GM/bNyedekopfPLRHT772ido6wVqHzzuUAtYxfBcofYaUNl5b38gDOy2O4AQ9sdn6BVaGAB7D6WDWdvaNT757COYqnwOOPoLQEDbtHDOYblcFnnuAYT5YR86ogiMFh9/9BGqxSJQGOzp0yg4ZKcRK/htqDBDdwtYy2hYobIWne/gCFBMMKRQVQaoNMz9HV68+AivPvtkPy7MeHh4OBD0kkg+YK/RHx8fy8ZgBLTWWC6XuL+/B3DaGij2updAul9If8rfpprt6XdihkwR8vSdqSXQvyMKQQcL0godO2gK7iwFgvIAdQzrOrTdJpiPaFCjDtpJbaFgYHC+Skg/viTFJsP33oXF7Jx6ZM94fmMBVCDUsSA84OHRAmBSqIjA3kCpITpC+N05E4/8T1tXnsToDhqVlayLjJZqODLQ0OcPCBMa5GDBew/nFJiroiQRBuAzpb9jjTtdQSnT9+/cZkT5sCizArxxsL4BdIsv+DV29RIrG04stDFg18FZF+m18M0unvmjX1BkPlPz+NKj5Ln+q7ydbMNTWRmd8bkEn2o3BWcuoLl5cxXaCL0vp9JhGDSpId+pYL4qX8PwCqgJNT4GagBEqHE3gYLjdd0VqZA80YsTxwUhngxw8CDQUsHBoWYO9mygGksOHWKVMnyy0EZcSvFZwYrdluDPwdGgB6C8DZVxSrpMcc5UXPgRrCBSTk6qSlBAY+go1uzDYix9K0Gkwvl4WKwJWlVQtIJdGqy2FbRfANTCWw2CAXQHhgU8gdQCihapcdSbygKXBnSdcqQdgzF+krZ54NsHm4rzPo4qjg0t0b6kw5CtCry9hS89wESHH4kO/jRoX/quMhh3CJYcY13n/adgv9BchjJaWJzMa7IW9see504G3gOvToUPVtBvcIMbXA9ugn6DG3wF4CboN7jBVwBugn6DG3wF4CboN7jBVwBugn6DG3wF4IPMXpuTFluK98OAgkiRsTZ9EzqCYw7ecfhwxuoQ3hptnAQF0n6U3xs9V4RRjX5pwQfg8s6n0XVzM9+uAeNBLuXxyHtEPcLDKLiSbhFAyiHcyw4QPPahZZJlNu3yxClwEFU4Ed47P8Qh78/IOZzFyzXZQcB9uI2H5Vad8aizk6+5goIq7ZckrxQ9ewlBbxO+DEEIU6DvTQyDHfxaqIU53o8uKZR7DU6T8HwlIYmwISCMoUdIWrEdbNcBSeZXeCSmgUKU33ui/QikySz5QpxX1x3Euo99FphSNSOPcZ/SPn1/mm+b4y3BcSrWfe5CMqeUECEw0L5WW9q+/N1Kq/5+dMlIO0bjMY031VqTsTo2r+fgVLs5dKTtJrUPJXjA4JDeSgiFJrQOyU6qBmOXmO0ScriPaSdKEnSy/uV9PgcpX6d9nNKvUE5rXKvn3w2KQ6aEy8BOvcc6TTEF9rW9LwnYV0rNwpO2yYP/r2GCFif7+FhgkfYx+44BubyxGMTqj8khewMz3ipK+4Usn4eU5rlzwcyT5yGn4xRt50DeLcw9qX1cFykxx5lDZp61FmQ1lOb+UU4/cLxG26O/wfXU+BaRk1kPc3AIjNWOy2PdDYDRy+mJ9vnom82mqGB/Sqi8+OnpCdba4nz0HHa7XZ+PPmUAUhrW6/VBPvoUaNsWT09PeHh4mNWeWGG93aAyBmQBD4YjgiGGb5pQ+ONMoggzY7vbYrfbgTXBUxvuWQegOCTjOLIgP8ymSrXDdrsFgL4IyBx48+YNVqvVpPlM6Wiapi8CMteqevPmDZRS0+4Wd4BXHqQItnPwzmLRuVAyiihkepFNJDxq3bgQdF1IbbVdKIDy9PQEYP5YSj56PgZTtPp6vR6Y7iLkUqE25ff+fvTclCDaX/aeXjg/Fdq2xWKxmC3ozIyu6wZ5v1PBWnuRoBMRlsvl/EvrmVD7CkaHYgAeDK0UDDyc7WAqA3vWx0uoTGhvjIlloijeERYMTU0Kio+nhckczu0HM/fjMHc+gZD5dcm94MvlEsvlchoOH8tsEaDIwtr9Vmi/J98DEYVKv2INKhosLovF4iKe0DpUGprNU8DoHe1jmWtAFPQ0bzUXdBGSOfspWVWEoNLKMCl47/vOzN2jd13X0zB5fx2fP3bpfekevXY1jDYwdRB0BkHDhzLOBQsYUZgnYzS00fGmhuAtRkxxZdJQsVRVSruAVAkqKQJyrI8yDqIcSiDFJXnSpcpjbD+cMnhO31E8TPt6ehw87KT2Jxb7slTi4OTg4FQK2hgYY2CMhiI94Ot8sSntExHBOTeYi6l8Je8XHPk4p6AEacoc1zzGusR7fupo6xTMcY6U0nDR2PRHPOIYCnXDZb9dgoATHHGXOP7kh+YiTuB90rbfhcsX+9gDKVYpHvbeJIbsfT/cU41zPF9sfxU7nk6ct04RklOe1Wud5V5jQSvB4dgC0ADHOmvkIktpKAr79VCsOQl44fSHD1XcWENx0DTwkSmVj+a7EiV/lqY5zri583BKqC8Z/7mO1SC0sY046EgUHPrS3XKshsQhPZWuS56fKm85jBaeuKYGP0fAlLapY+KSI7EU7zW0yVQcllpoVNC8iG0diLuoNRys0vFCiWRPmL6PQi1UsIbyLpj+XgGeQntysCCovObSDFrTdpcc/VyLjrR9ehI0F2d0og++EK0tXw8WAmAwH2PjcC2+SvGVQm6BH2v7QYbA/kUDBQI7D9IuFGGDBpOG5VCbbQmDVnXhHE6Yqlfs4UyNlIZHqDjryKMmBY1Q2tnEgJlbvMwNjsFN0N8BKBhY14YKo1SBoMCs4IjhCFh2Hs5qDC6D6Dfjcc+oNLRiaK3QgeFV8McpTrT4TdBvcARugv4OgFCh0gxWDM8ezhPYEaxiVNRh4Vs8aw2GOtiiEIUS19Aa7BwIHGpailC7oM1ZS0jsBxvVfIP3CDdBfwfAADr2IDhUVEMrAxBQK4ZvHLbewzsLhj+6F/bOom0JaIGqCjuA3sSnGNpJZ+8rucFXFG6C/g6AALCi/jgNYDA5kHVwjcUPVh9j+cWfQnkbPb2IJ+3Uh2GSrqA+/jqAClpwSBQXxUY3uMERuAn6OwB2FkweWhloGFj2sGyxhIa5f4W//i/+NXTr9+a4SHsv6AzngZ94A7cwUAg1yj1pEHHMsqJ4hfINbnAIN0F/B6CIweziWTjBM8GTBnsFq+5w/2v/AAZ1ONcBRjW6tS12P/4uWq2g2UORhxcPvQ/anZS6OeRuMAofpKCLQyo/q3wb5/0lMEbHtIy+kOJIMaxSEyHcBhLu+aLVp8idaAeYbQdefgrTm+oaWrLWIt5rwqWBHNeGdMynjj+AvYFEGB2rECAjIbDxNlLE2IaRZ68dfJXinBIscyztN8cxKujXPPzPnUtT0vjSiX3fcAkNwZuu+iAMDQoRboriBJS40AjeV6gQFg4Q9a14H80xm8ajtGdMfc1owrmL9ywaDoJk0u+SQCWWaj2+j2GILz14f77gvGtldEo2clpM/sf059jfTr20BKbgOdWJc3BpeGaK49xic42xmZIMcSlcQu+UxIuSMOh3NnZpsY9EgPvQ1/ALwhFGIuDyzAm68ve/K1lJM07HIuQOBL1t28GlcfLQbrdD0zQhB7qQEXPTdrfbhRdNzF8W2O12/b+52Wu73S7e4ukG+Ev71HVdPw7eeyilBnd+l+DZbrd9aqK8e4rQOOd6Go6FYUp8c2o9pe+RuZgK6ftkLkputc35AdjXPlBKzY4fFxomhZ4maaq2s7Bdh9ru8+I5ZBf1dQGU0kHmfYhjaNtucOtt0zQHGZkyByU0WWux2+36zLMxi/ccnrZtR4uySEGLg3z0zWYzSKCXyZHCE4vFoheSY5Ayg3SWiPDmzZs+TbSkeEWu0aXwhOSjl05uSsPz8/NFKYXWWjw9PWG1WvUCnpts53BsNhtordG27Wh/z42Ncw7Pz8/9XdjpSi6f80SGVMBkPpn5gIZjNMt7ZEHz3uPp6QnL5XI05zmHdEEUkMITea2zc7SkY/709AStdRC8CGfxOMBTCEG2nQPAoLYb8HXQ3HvtzcxwzsO2Lba7LZ6f1/DO9jQAGIzllJwMEfSxNqV83jRNPy+pEkvrSAgYAHjx4kXPaOmkbDYbbLdbvHz5cpK5kT4rRQJKcqDHYLfbYbVa4dWrV7PaA8BqtTro+BRo2xZVVeGzzz47mJjScdlsNlBKYblczqLBOQetNV69enUghKW0SIWZ1Wp18rmcwdL3MTNevXpVbKHl/CBW0d3dlCunD3G+ePFi2nxyuEueAXRth65rYNo3qOs6LFpOEl5iNiA8oILQmPt7vHjxAp++/LRfBJRSuL+/PygcUcoPXddht9vh8fGxvA8Z/PCHP8RyucTDw8OBJXCyOGTJnuoUyAtSbZpnGp3DN7aKSZkrYeoSbZJqvBRHSkMJLfJPNJAUTpgi6NIuFcq8fQkt1trRBTmnVyDXqHOcrLlpmt8Lfq5tzg/pmJbMZW65CK7U5J7ruxA8zjnAO1Q6pgt7D8ce7KM537bo2g7OMRTt+TrnsSk8npZuG2tb0h8TC2Kk43RsPAbFIY/t/UrNESLq926CS+pXlZojOYGCM92HTDH3APR1tHKmKt0CEO0L+Un/8v3wOVryip1TnVLyznO1vPO/pX0WIZkyBzk+6cdcfkiFvnQux/agk/kqVoGlNNSA0M+t0gbWbeHZhTJfyoTcftYwsaKN1km5Dzos2zRlQQ3VgsxF/NB13VEcefvRcs9jL5lquo+t4FNX3Xzlm7LaARg4znIcU+hJNYi8f4omSTV6+l3al1I8x74f609u1k/dbgjudB5lLEsvDzjGD+nfptAC4GA+i3BEh7p8JlBw0CWaWREBSvXC7L0P1Tetg/f7vfyYRZH2ZwpPHNt+leDI33VqfkftprFysXNhDnOl7dLPU03PMc10CT25U2gKHWNCONWkzsch7Uv+7xowtrimpw2XwpwFRz5Pf5kgiv9E8NP+EfVn68zhiI2ZkZ+tjS2gcxRZ/15MPzpNtz3peDjn0HXdwfMfZLLTmDBei3nnwLXefSmeUww+xZyf+673OQcpzBUqYC/nANAHGY4+tX/uXfe6dFskz44pxYMt3BXpu8ENbvCOIbcMmXk0xuEm6De4wZcYckEX/0kON0G/wQ2+pJCb+KdOH26CfoMbfAlBYhrkeitgGEGYwweZpnqDG9xgHPITlzQQDDis595///ZJu8ENbjAVTsVMiHCvVqs+7yCNWhzLS/lKaPQP5VjoBteBtz2fuYjNOLW/Chw7RpS9+N3dXR8h2HVduP45Pp/nIvQa/Vxk3FSYGsWWt82jz+acnZ4KUimFU2f61xinHPeU50qjp+bSVBp1VYpvDO+U9pfyQ2B3FWvsuXDTjatgodFVTSzF1YLJhaLaRGDl4ECwXiOkuwz7MxZ5CBya1GNwzHmWBj6JBhecaQixCDmA/pZda+3oDa2jhSfyz2O/nyI+D3mc0v7Y5E2JuRc8OTOM/V4Kx8I2S4MbxgIbpiwYY6Gjx/qXRmqNPTMlICOnb8p85nwwFgJbAqd4ohT2MeqxVDYDxOEqamsdiBmeEUpHMUORgiIFxw6KAEUE6y20Gr8FVvolEWulYbBj4yIgUYhpvsBut4Mxphdy0eJa6xiPr0cXQQPsUwfzeO7NZoPNZjMptVI6KnjW6zW895MLT0j73W6H9XqN1Wo1S9CFhjQffQoeICQPPD8/Y71eH13Bz4GkqaZ5/1NwWGuxXq97GnILY0wY03mQ+QTO576neFN80o/1el1UeELapnRIPnqO9xwd6bMynzKWJXi8dXBgkDLwtoWzOyxtB6UJCoxaacCHa6jZA6RjyK/zMOxBYHS7HSy3IFJ4fn4eTRLKf0+FOLVInHM9T4zhSb9TSvVj1jQN7u7uenmQf6E4RtvnuMv+XcAA6Ctl5IkC1treFJi0eiYTI3ngUwQ9Be99j2OKBkxpOHY/eikQ0SCffap1AQRBVUoNcqin9EfaluZg5wIGoG9bimOMPqFhqqDLZ3EWld6PPgZCw5T70VGFKnBECrZjWOXCwuscoBnsPJQyUe8zpNoUcbAG2DOMDjfiaq0PNKho8ZyWY3NsrYVzri+okj4zhscY09+nnloM6YIgGXFixg/aA+gnLV+J8ovWz8HYPk4ETF5cKmjp8cFcIRWBTAV9Dg0ARsdhyr5VBP3YxffnQNqOzcUxh03KMKJFpC9TIB2HfD5L2qb0yT5TlMvURA7hy2NjcQy8dyG2nRXIO4ANoBVaa3G3WMDEIlLM+9wWBkNpDSIN9kBd1ei6YJ1KMRVjTG9ip0KXjrsIZirQokiP8XW6vZGFpOu6XnuLUk5xy+9jOE2K9FJv5qkVbY4jrXQ/eQrHqd9LaSjFX4LvkjEuHct8wf7QYC5PAPMdoMNXxUw1BXilANIAS9qpB5FOnlP7vTtpeG/BzLi/v+9zwY/5gYR/pVjJnpbzjslUoFO8bduCiAZ56KmcGGNGF1B1bvDmDuxUh0vpe6fgy2mYSssxp8scWk49fy08l+C8dvu3gTtvN207GUtui3FOCtAay4dHdACsAzx7IBaQZAAeDMcMB6BarmCZ4FwQvNVqBWPMoBiIaG8xoeXvQmuu7c/1Nc/9FyEWnFIkM608pLU+qH0AREE/5SWcqxGuYR2M4bmGRrzk+behIa+N81LLQXCMfX6fkPdrGl3BLOegnkNKemXwyWefwYPgGSDieAOWB+JVDg4MVVe4//QlLNAXoEi93hKGKgLXdd1B3n4u6FLCalCF9ghIFeK2bQf1F1+/fo3NZjMQfmvtKL5BZNyUFeccpHsL+X1q+2vAJTSU4p/yzJh1MYWusTpjY7gvtWbG8F4C+b51Dp9dbqUA/e2zTNDLO3zyy38DVlUwiPt3UkA4OYcmBsiAHj/F4qd/dpCYLvRLSXRrLdq27YVShD0te5XORRrFJnMqGjzVzkA46Xh6esJ6ve4tCKUUjDFYLBZ9gUuhKTXrBXqPihDlnBu47adWmkk1sbW2NzfmOF5ynCmdpbTI0Z4MdO6gKgV5dsr7U5pzGqbSIaabtfaoMy3f++X7xSnzmY5/WhDzEn5IzdB831pCT9p+zFN9CkJlV4DAcAx0jnD/8Sus/ulvoflffwi9+SNYdQ9SDuSfUHMHjxrtwzfgfuFvgv/yL8Ex9cEoMr75MZfQKSdW4hiTBJTUDM/3+LmQizCnlWKlv7KAyHeyYNR1PcqjB67TdADlCGEupJE7c82/3FM9dVUnOixQWHo0lg6qTPCcRetcUchSQV+tVv2Y5tVd0wXkGA2XzKWMRXocNBXG9plzIPUqFws6++B/cx4LrbFYLQD2qL/+c/j7/+bf4rf/w7/H56+/jYY20FBY2Ed09Uu8/Hu/iZ/5V7+Fjpd43AGu3u+7j23tUn6TZ9JilqmFmeJIo95SfHk8hMDj42P/u4zrsZgV4rfpdbnBDW7wQcAte+0GN/gKwP8HjjkNzfrRe1cAAAAASUVORK5CYII=;" vertex="1" parent="1">
                    <mxGeometry x="172.86" y="572.5" width="136.28" height="145" as="geometry"/>
                </mxCell>
                <mxCell id="8" value="" style="shape=image;verticalLabelPosition=bottom;labelBackgroundColor=#ffffff;verticalAlign=top;aspect=fixed;imageAspect=0;image=data:image/png,iVBORw0KGgoAAAANSUhEUgAAAPsAAAEcCAYAAAABRMIoAAAgAElEQVR4nOy9y7N0SZLY9fOIOCcz773fo6rr+6qmS9MaNTMjkwSygQHJxMNkhhkIMJkJzMSCBSxYsYEFC/awxuAPgK0wE7CSFjDDQw8bE0KSmSQeElL39PRM96i7p6q+x703H+cR4Swi4uTJc/NxTt6vXlPp3V/l42b48YhwD/fwcPeQEIKKCMdAVbv3q9WKTz75hO985zsYY7q/ncKR8agqb968YT6fs1gsur+FELDWnsQBsF6v+clPfsJ3v/vdrq2IoKqIyCha3rx5g3OO6+vrjrZ+24wzf+6PAUBd1/z4xz/mu9/97qjnDXF677m7u8M5x83Nzcm2/XHO79u25fvf/z6//Mu/jDFm9Bz0cdze3gLw7Nmznb+Ppcd7z2/91m/xne98h9lsNglH/u39/T0hBJ4+fdq19d7jnBuN4zd/8zf5+Z//eWazWTfO+W/GmJM4lsslTdPw7NkzRGTv/Pd5ZN98/PCHP+Tnfu7nmM/no+juPyOEwGq1omka3nvvvdH9HtLygx/8gJcvX3J9ff1gDsaNZoJMWFEUO8w/dmLz76y1oybgGJ7hwjCWhgx94Ri+nnp27vvYxWkfjSIyWkAP4RGR0QKxj4b8eSoNfebK/NAfl6mQeaHfr6k0WWv3zuMU3hy2638eo0im8vQ+fjhHLvp4+uMwBJdX9mPQn9y6rtlsNtzf32OMwXv/4IGniFoul9R1TV3XHf4QwqiO9mm4vb09m8FWqxXOObz3O6v2IZrzbzKoKnVdM2b8hvgynvV63Y3hqX7kdv25CCHQti339/eThS33a7VaAVHL5H5NsRAgWjn39/c45zo8U/hhs9kQQtix0KbwA0BVVdzd3T1QRGOhqqqd5x8bh+FcqCrOOZqm4f7+nqqqJj0746vrmqZpRs3lPn7IsrFarfbylFsulycnpo+waRo2mw2r1QprLW3bdn8b0ymITN40DW3b7iX6FI6mabpODU2ZsbBer7HW4r3fYdB9plp/HPpMkMdhCvTxbjabzmQdC5lWY0wn7FNpyHRkGoBJc5B/n3+bx6EoCkIIoxeMvqDmechbwym0ZCZfr9edApkKdV1389BfbMbwg6pSluXOOIyFPt6+TIyF/PxsJTZNw3q93i/s3/72tychreua2WzGixcvJptb+eFZC8xms53VewyTqCpVVVGWJS9evACmm08Q96rWWhaLxQMa4KFGH/a1rmvatuWjjz6abHJmgV2v14gI8/l8ch/yXIgIL1++nLylgLjfzsK+WCwmzWef0UMIvHjxojPnp/QB4oLjvWexWOz0Y+yikYX0/fffxzl31jZgvYoK6ObJTRRAwIgQNICCiEFEUQXVAChiLKigAiYom6rm5csXzJPvYiz0ZatpGq6urkbN53B88kLx7NkzZrPZ+Xv2viMhM9nUAc2/997v3bdP1Qa5fV+7j6UpOwTHLDZDOvvOqSnQXzSyRj93nwZxf7Zarc7a96tqZ9nAefvNzA9VVT2KH7IJfw4/QKQ9L1p9pzFMWDA04IOPAh2UKsDcCS0B8WCNgAQUBTyYQAigwVJbuKpbKh8Xg7HQpy3zb9u2oxfuoU/BObezHRnCNO/OBS7w+xQqadmYNc+CofFKUT4jtMLGKzPZIGrxgBGLyozWt1y1NWHmonY3gQKYvux+cXAR9gtcAJjLFVYcBkNpS5Q7jLOE3/h1Xv+tv876puT5L/4Rnv6RP0Hz7V/E25JgAr59w0KvqcsrfGiSif/VhIuwX+ACgPEtNIE1VxShgu/9ff7uf/6f0M7gW/WPado5P/hrc/TJh7z8N/49Pv53/kPQOc68hyi4SnC2QOT8I+XPGy7CfoELAFZrCt1gzBXLn/02P/0v/1OW4Ud8tDRstMJTMNd79LPPWP/vf4E3xQ3P/+x/QIWjNOALmNVgzjsJ/kLgq7sMXeACXyA0VmiMxf/kJ/ze//bf8frTf0xwnsBTWnkGxVPq2XMoCqqf/H+8+r/+V8zbf4IF1tJipaEpDfoV3rRfhP0CFwAaKdiYGeHNZ/C3foNnWJ6Fl3gHVgs0BFp1VPaKVgLNmx9x/+N/SCFKEZQgNRsJfHV37Bdhv8AFgOhFFwlodYv/ne8jZoGEp6h9g5UlElpcqLCAkzlmWVH95J/gEVyIR2VlG5AzIzq/CPjShP2cs+E+nBsm23/+lHP9rxIMz2cfA+ecj39e8Bg6HssPTj0lLfiK1eoT1mVJrfd4D8G0GAOOhjIEjDpoPGZZoQiIRZgxE/lSBGps378Smv3ciXrsBA9x7QuHPAZfpJD0I9YeQ8Mw4OSxNL0rGAaInAOPokcFUUMwlmADLrTMZYm2z2nNNZE8xWPwRgnOo0YpBKyBgKOV8Og9+zkRiP12x9p/od74fuLAF6WZj9FyKgZ7Snz2FwVDWqaO5b725/bvnJyE4bPz66nkkzG0PGaeREAQVEnx/QHEpiiZ1E8FJUbYxTDa1HcFlRQG/SUsoGMXyi9Us78LIe/j+jJxvIu+HNLWXxQNfWH7suCxY3AK7yQQGK4XnSBp/JuJqwJCb3GRvOd//Nb0XfDDofajhP0YkinE9ePCHwP7NMLwb+fgHOLt0/quTeg+jneB55y2j9n3vwt+yM9+l1bau1g4cr5CV29ASAtBzDm3xu5mayoEQENgypMP8dSUrMPh+3dmxmdChoUfpgh7H8+5cIxBpiRP9BP9xw5Y/vs5CSxD4ZoyDofozFleUyG3eWwRkX56Zf+7KTQ8VuD7PDkc47G0xHRhj9UtTs3t03fee5SAeo+EQOgpBQPMJmYvDvt8Dj/AboLVscIw7tNPP51E3Gaz4dWrV1xdXU1eSTOBb968YTabdWWppmqCuq55/fo1T548eaCRx0IudLBYLLp2ORNun6NumLHWti2vX7/m6upq9DOzYGRcOc12s9mMdgZmWnItgVevXnFzczNayDINGefd3R0QswinasT8zM8++4zr6+tu7Kbyw3K5xHu/U8xkCg0iwqtXr5jP5zvFK6b4Adq2wRiHeO2EWBkUh7AWEHxoCRqz/e7v7vFtoHLw2aefEIBiZIrrkLbNZtNlreU06GP9zpCzSPM4AMzn8wfj6J4+fTqKsPyAoihi3m+qm3aOcyiE0An7VMeMiFBVFev1eoeGc5xFRVF0i1bGk4tCZHxDDZE/5woxY8ZviL//vbWWm5ubycJujKFtW54+fcqTJ08epHYeo2XfWGcapmhXEelqx93c3HQlsqYKex7zJ0+e7LSfcjT65MkTnjx5slM4Ygo/rFZL2sZHk70n7D1k0WmXNujWWMqyjApLobRQ3zzhydOnlCeE/ZAVWRQFZVl2SmxMv1V1p35jHoe+EsvgyrIcMRRbaNsW59xZ5mN+eFEU3b8pE5shr2SZhqlMmmlwzj1gjv6iccrLaa2dVLBhWP2kLEuMMZMqm+xommS2FUUx2nzs9zEv3gBT+SBDCKHjhyn96NOTK9xkGqbOp6o+igaIml1owG69dCISPfREbS+97yRtA13h4m8ETJqLsWM5zDvP1Xqm9qE/XnkM9uGYfPT2GAfIPuF57N79XDjWh2O+gMc4Ax/rmNyH45S593nQMITHOMQO7T0fQ8M5i3+fFkFAdi2ldAIX9/GQjtsEAYLEhWDqKOS+Ptah2F+8c1mwffCVCKo5B/ZN5mMHbR881gP/ecE5fopDeD6PcZsCn8cimGFK36Lpno7VGG7fgOieQ5PEh/gDFH0nR2+fN3xthf0CF7jANLgI+wUu8A2Bi7Bf4ALfELgI+wUu8A2Bi7Bf4ALfELgI+wUu8A2Bi7Bf4ALfEJgcVDNMWnhMcMy5wQ/9mPx9yQ9j4NgNqn26DgXYTD2/7bd7mAgTCCgBAwgSFCsego851aQbQiQFcKoiJraDQNs2KZJv+to99fqtQ/06J6HoXcEw5mCYXDIOR8xVRyFozGcXY1IEXUp7Iya8+BhTh9GY92pUaFOY7RR69/HDOdeA9d8fu01mkrDnONz+jZvvEsYw275IqX2CNwbPqbj8Q3jfVeTclgZiyHWM0gARajGo5NDNyHJGwKogKtACjeDEYQyIeLpczJHwLoJp+vzwGHz72o5dfPYlvkwNhpKUwiomXSluTRRy3fK9GCHe+cY2hh4QZVKFmtP88HgluO86LZd/NJa4Q5p0zEQPNdqwQ2MFadh+X7sp9JyyEPbF3x/SZoeese/zNlxSQHP9spCYyJAvEEQ0MhkmZmKJIYjQGqERSzCWRoWYkzVtLg+NxxQc+3COicw7pdHG8kM/vfXcSLooIIqEqNlDCASFoBYsiDGQqtTkf1tCE4604E0dv3PoPWXN7hu7UZp9aK71c7mnmrOHtgFj4dhCsY/mQzA044em1RDvuWbq8PfZItqZcAQCiA0EAoQ4MRoEEUXtVmMHAipt/GgahApCAFxn7Z+iZ99YTdmOHeKHc7Y3QwVwDj/s69NUfti2228fbWnTaIWZHh/2cuDH6ONjlujYcTjEo8eUoLu9vR1NnDGGqqpYLpfc398DdObbWCYxxnB3d0dZljRNM5nRROId1JmG3KGpTHJ/f9+l6/ZNv5xu2X/evgXAe896veb29nb01iMLexaMu7s7rLXpNlBFpUXV42xJU3uccSnnytMCYixGQEONIUAI+NWK9f0KVYOYHMN9nJZ+5l2ex3N8EHnBXy6XLJfL1JfpiTmr1arjo6n8ANHszvww5KmxsNmsUVVc61EMIiaNdZL+oGmHlawQjdd2393doz7QFoZNVXF3f0/ZNEeftU+x5Jtoq6qaNI5DBbpcLinLcueu+QxuuVyONnn7wr5er/dO0Bgcq9WKtm132g8H4hAYYzpBy9cV930IYyd5tVpRFMXOpfXZwZEH+pDGyM9crVbdgnOq3/m1v5darVax4AMGr4r4BqOB2TzwZrmmmJUYPMZ7mqAYV+JsQWhDqoFmuasMN5uGEBSDH2XG9+lZrVbd+6Gj6xTkRWu5XLJarbpFZAo/iAjr9Rrv/QPrKY/XKRxFUbBarTo8ec96zKczhLquEDGUdUvb+uSgS+WndpJiBFTx3serqpf3hFbxs3hd8mq5pD4h7EPN2x+Huq47vhwzdnl8snW1Xq+ZzWbdOOwI+0cffTRaM0GspmGM4cWLF2eZtCLCfD7fJv6z3yQ5BpvNhhACL1++PDiZp/Dc3d3hnGM+nz9ot49Jhqtx27Y0TcO3v/3tszS7qnJ9fY0xhsX1gqCKUxsd7BJYfMvjJU74HIslgILH0aiAEXzbcl3d8cHLp5RGEUpOnab2+yYiXF9fA3SvY8au3ydVZbVa8eLFix1P8BR+WC6XhBD2VtwZi2e1WvHy5UvKsjyLH5bLJW3TIK9mlIVBjNlWrNFA6DxwEbcrHE+ePOH9lx8iCLUBt17zrZcvKQc8tY/eTFP/fRb2Z8+enexzhizsWfjbtuW9997r+Lrfbzdm5RvubfeZ7lMdYvl1uH8dg2dIw76JPIVnuPIPB77/uo/2WLOsHfWsfXj6+CS0OG1RWYARRAN89lPKsAEcnoI2eYYFxRpQDdRtjdx+hg0fgXFEMsbTcuj7qXP5WH4Y/v4x/DBsPxaPyGAhrxtUBCV65q1JzlGFEJJ3nrh3V4WAslqved6zFMf0e19/x/sX5MHRaR6L/Pcdzb7v4WMeMiRwCo4+Qftwn4Kdyp8DGsbu9/rm5l4BlAPONJEHgzx1/PrPj20dXgo2RjDaUt79Dn/9P/7zfPTJb+JouBNDZZRCG65CS9lC5R2b5z/H7Ff/DPLxf4E+f4lYM+HgbXcMhk63KTjeBT8cYvCxeE45XMfwQxRgSVWQLBiLD5ZAS+s9oBhjE//ZbRs1GCtcLRY7RUynQn8uzikEuk+udjT7WVTx0JM6BaYy1L5n958/1NBTaenj7dN2qK7bVAfSEP+QTjHx2O1KIYhBZh/yB54EqvoJaoQrDPOksY1CKw2osBCDmylc3UwW9Ez/uX3p48h9G343Bcdj+AF2K/bs441JNKgAZmuxAOnkLZWoAgJ4E8c82IBB8Kon7KpdOKSgzhX0vuN1X5+/1PvZHzvBv28heYIRQc22bormfWPyBm9/fxnHzxtinbmHwvx1GvlLbPwFLvANgYuwX+AC3xC4CPsFLvANgYuwX+AC3xC4CPsFLvANgYuwX+AC3xD42gr72Cijrx/I4P2+w52U+PC1Ovg5DF+1uVQO09QPmhVlZ3q+Yt14AJPz2Q/9fmx45KlwwLHhkcfom4LnVFDJvljtQ3Hzh+AQ7v3tcspkqlqz/XX8nOR/KOi5ysoYOBVw8phQ1yl4+uN4Lo78m1NBPafw9OkIwRPUI5Ki4dKgS5oTurpCCmKwCrWA+rbLaT8G++ibylNDXIfC3h8VLptDRY/F955qfyxi6tzQ06n0HOrHWJr6fTg3au9wXH8v3jtG02CcxRgLPuB9oA0hMl+IyTKSF4Iz6Bj7/SE4NI5TItcOjcUYHEMmP4cfjDGxOo0RnLM4a1Ex+EC81DEoiHZXQwm9RSYIIRW4kJE8tY+2qTw1zDHZ124nXHbsCnJMC5wTptontB/id45WORQ6ew4tQ21zrF/7QkVPPWfMCi5Cd0stRjEhEIICHqORMQtrMVJgXQEp632MZu/HXe8TkrHwGE18qE0/JwEOhysPoS8khyzHU3i89zR1i3jSWPdwJXNd6BXrsNtiHUaizs83p07hh0PfTcGRr2w+ZW25fHn7GBARNpsNb9682UmJPGWa99sDvH37lrIs2Ww2k4VdJBavePv2La9fv95pPxT6Y3B7e0tRFGw2m+73edAynpxjvU/gvffdOIzVYMMrm29vb7HWsqliyq7BIoWl9EpVVQQfsDZeDSwaS1XlIoeeeH12s9lwd3tLu1qnrLjjMIyhvru7A+iKPkyBPOavX79+cD/7FDM0p7i2bdvNw5TKN8453rx5w9XVVXf989TFv65rrLHYELqyVCqGNNxpzGKZsBACTdOw2WxY3i/xbaB28OrVK9SYk/ezZxjOxXq9pqqqyfLUF/a3b99GnkqytTNOOYd4LFhrqaqKm5ubHaKngPe+y2fPyQZjTWqIE3N9fd3R0C9cMRZHvgf76uqq60MetGP48ndt23Jzc8OTJ09OPrO/WvcnNz/v+voqaRBDMGDrGuccrUBIhSsw28VQU1FK5xxmNmNxtYByMcpdN1xwMm03Nzd7s/xOgapyc3PzQNinQB6Lm5ubB8I+tv319TXX19eUZblX2E/Ber2ibX1cXE2sVJNmrdtWadCU5hq1eeEc88UcFAqB9dUVT25uRuez9/kBomwVRbEjW2Mg8xHQzcWwTgOAm41chTJ477uL789NZCnLsvs31OxjIITQXToP01MqMw1FUVCWZYdjKIx9593Q9JYkbGVZjhL2fZq9LMtokpdl2qgbvFFM8LHCqTEgijEhJ1xHhtOAB1Q8orG6jjiHMac99PtoyOPR7+9YyHPRn4+p0DQNIYSOhqnCrqrd84uiOKsfbduQ/G2JFyGXocqXr5tUXRZ8t80qiiJmw6WtV5H4+hS9+6yNrPhOtR/i6Vc/yjTtwzE56+2cPdkxHOc6ud419J+/j6ZzvdaH8D38UX7Z3XuK9PZwql3BBFEwXdG57Jw7PYbH0ie/7DnINEwR9GN4poDq9kQjhGxGJ2uqc8jF32j6+7mSMOSrx8rU2K3r2Smu505GZuJ9Av9YmLKij9kX7XeePT73+hj+/t9CCDHVFTqT0ohsU2DZnsTHUtPv7vlfFOR5OFV56DH4x+FL9fsVVNPxWd/hxXYx0L5pr1Gta5yER9P62Dk5Vr9/dFDN58EYj8H5eQrc2EF/p1ZOh0p3XiPzG4zk46n4tywgIYRuIZj0vN7ncz3o72rBfhfj+BjLK2EgW+zSWUsZZ7KqhO6iCJO2VSQfSrL03wlMtRiHbQ+1H63ZDzmqpsLUs8Rz8D/298MjjH19fxeQx0Ig3v6isHWpRxM+iXwX1RUUMFGzSIcj/mbsM/e9P4d2mH5UtA/P2CO2c3CPF5y0hRKQVEo69AQnTo+m7wAVQpq7YDSG27yjrcc5PNy3ig61/9qGy17gAheYBhdhv8AFviFwEfYLXOAbAhdhv8AFviFwEfYLXOAbAhdhv8AFviFwEfYLXOAbAmeFy35eQRBTnr8vpn4aTiHeouhBY9KDptIjGogJKZrOXvtxL/k7L1hsSn+MOLxILGigCkFQEYLZDnL/PHQYa093Vi4pJtt0UXGqCsEiJoANeJ3hPBRWqaSF0CDep2tLRp63I+ms3uRj/WlDR+xm/3UHpuALmSKZHpkyoAWGfLATgngQjA/Y1ser7lUxatDgwQqiHi+KxXSxDgaDSIOqEACLJ5x+zC7pA37oxyycIx+n2o0S9mGk1PDgfipx7yL2eRjjPTWaS7DEyChPFrJAwKigmoJY6F0pxHYiY7x0TD4IgFdPoTlwNTOeogG8AbdHAA8FQGj3oIgvhmYGFIsVjxpP8CUSBHUNlbPUgAUcijnBbl0f0gcRTetLmHhPXCzqEJHkYNKwE0k2Lkg1LrKS2vfbTcETaQg7cza+MagRvLO0olSizCRFzRmwQWm7YJuApiVSaNFUuKIg3us++oFD8uXhHYKj6B6stMfau5zPPAZhvjB+vV6T73Xva9gxICLc399TluVODvWU9nVds1qtWC6XHX3DTp/Ct1qtcQWE0KIac4EDLYLFhAIjFZWL1Ur6gq4qGBGaqmbVVGzWd6wFFlVcwLworcR70o0KwQpV2I04y+/v7+/jghF8qmkWU1xd08bc7qDbLCwiM6MtxniCERqUxjjWPqB1jdNwel/WS7hRlFWd8vltr+VI9aQaU0nrtmG52eDarDt0v7Y/QMu6jrnXsnE8SC8ZgUdEqJqG1abCeZ9rTfRX55PW6NpXtBJQWtaFMBdPaQNGFNQguLQGC8YIQQNNVbHeVFRVS8OGalNxf39P09RHn9Xngf77zWZDXdeTBL4vP/372ffFyLvb29uTgpEJMsZQVRXL5ZL7+/suPntsWGJOIb27u6MsS+q63muOHwORmEt+f3/P/f19l+I3dWuxWlYUhaFtaoIajBiUGqGgkBKz/hmb2hNISQ5k3olx0W3dsH7zmnX7GdX7Pw+bmE9cG09lGowqM7Wos/jWd+PXT0e8u7vDWosPHg0hWhuFYR5iHxWwxmCB4C0hWCAmxxiUEJRifQc//QG1L1mnJeHU+HWvGhkMgXY+Hx36KgiSFYC1VD/9Kfe+wXYVcLKeP4FH4u+rqgKUdj7fyUXPuI5JvCA4Y6h+9nvcNxuMtZ1N3wm9CF733xqcoW1WWAL2s0+Y2xJLdGh5DRGdGLz3qI2prqFtWN/fU25qNn5NLWs2mygbdV0dfVa/bkCf9/P97GPCh4fhytlavr+/j7UQUiGQPh738ccfH0WaIRO1Xq+x1vLhhx/ufD8FcpGBnGA/Fcdms0FE+PDDD3f2O1Pivu/u1jgnzOYzUNIK7kEK1AfaH/2Y8Pd+nbBeIsagknkoavYyBML9kvv5NR/9u/8Rs/e/BSbWMAt4CIpTC0Z2LLs+nU+ePMEYw9XVImVRgUeRTcVsNmOzXKbiFQERh5gZQQ0hCCYohQbsz34b+dv/M7M2mpenMq/6d3cDSF0jIl0e+JhFV1Xj4iSCNYanb94wf/o04oNOA47BA2CbBoCyKPG5pt6JOO8+GIGnb94yu7nBSG/BS74Q6VKBD0NTN2iwmLs3vDBXBF/Q+IZWAxbBWBCxqYpNS11vKJsN73/rCcIT1GyoN46XH37AfD6+RsQ+zf40jeXY9rDd/3vvef78OYvF4sHYTUqE2cm0OmCKjIHc/pyUxtzOp0vv+5qqv1KegrZtEBwgYFIfkjbydc3rH36P3/1L/w369mcY51BjujznWHNMqKqGu/WCj/7Mn0eePKExFsVh0JiCqiOERrPhqnTZbWZXA0eLIJrb4iyiFjEG4wP3v/M9fvOTf0JY3mNCe3LHaKyhK8oAtL5FEKyzaKq9Nrzj+wHdMQOno221WvE6VWzpdQ7Cce0Ui3MIwXsQ6aoEZRCB4I/TgoBxjs1m86Bgw84W8QSeoJZgriiLOTcetCzBldFW0orQ1ljjsNYgKrS+obq7i2tIVP207fTSXkN6p7bvy2AIAe/9wfmb5I3Pk9t3sE3JLBoSNYS+iXuMhj4d+bv+38eASCBnlUX3V6QniFDMStjcIgZcWWKdi551slMKnLFYZ7l69XvYosCbqJUtxIqvqiC7ZZoOe1+jqWig511OiyFxj2jMGoynxVH5itrMmc1nmKrFNSvmcyXIPDmJDkN/6wVg1HVjOrZCjKridWuKXplrnHO7eOV01ZztYld0GXxDj/SY/avXwJW7frDYdyZuTkk9Ak5agi6pfEV7c8WybWlaxTmYiWCNUNcNiFA4wVpB25q29TjfwhyKYhYLipyAoZ9qSPM51nLfEjo0h5O98cPVp/957J67L6h9GDOx+XnZwujvb6ZodiOKaECD4m10fDkvqAGsYWHAWIdahxqLpr17LmDgjQUrzK4M2CIyhrFYSYUSEVLpuL2L0e6RoXmw2+4mP+3N4zISBWgmoKYFcVg3R31NW8xQf9oxZqxEz3UeK4jbFE3ecGPwp5AIGBNZJ5almkVNbzRZy8kKPDEHItFKEMkOww49ecd9khaiAVGWJd63cUtmJJ1qaIfQn0ATjCMgBIQVBmOVmbZYUfAGHyyuKBAJaFsTxDM3FutM3M/TjNbsQ/4c8scY/h0uCsPTsX1ycNYlEbDrZBhqqjG4+p3ad/Z8CsdwYRh2+hQuTT52AQyCEQvC9qy0rTFYAgVBIxOQz71RVIWgylsTWOK4MXOsl1jG3QJFXEzQ0Gn4YV+7MdPOlUTfkx37Ej8HuUa0oNAWyxrfttTNGouLi4+3pFO04/1O58ggydsfLz8IGlAVwI5w84GENE4eTK7o2hMuOF3HPvreEi29sUEEHfgWDuJQUN9i1HxxaFUAACAASURBVNH6PJY2khBi7b4xOtK3ClIwM4ZVrdy4FqMVGgyVFmBm2+O9tOWYz8p43Kjgg8c6F48xJ8rTPs0+BoYykDX6IRmYfElEn+BzzOdDuKbiOKXBT+EyalCxiFGcaty/W8WiiApBSkIOuhGLaK8ApcbCEgbFYChJ1XEBI9vglrhltw9ofkB7fp9lxWTTPiTz1uBkg9MGG4RWPJvC0ug1C20xumJDi8MxqjhVdMRHU1Q1yYRgTKqeekrYk5/BWkvQdNRlt8Uws4CNOn0z0m1jrDFb554ZWedNwDql9husSx5zooWhRjsiTuHJlWeCekoLQcAHG/0oRghao2oJEs/Uy9kMffY+la9ZyJxCS2pTxZiBkXw8tJDz6zmylNsNHbB9OLsG3WPhMY6MDMdWyNMEZCQQeSJ6zSWZj/F8XXtablt6SNJ70g7Z5t+JIDb9Qg2SzOUhzQ9iAugzo/ZeIy4R2BgDOBZqMDRYL0gwFGpRKTFujtGedj3Y7abTPrmP+XGRLoPocbZQAohP24Fk/ifjRDVgxMRjxHBCK9P2gmC00+6dIa8BQ9F9PoRFpY0LRqJNJI9i9sbbGBJ5DCRV7U0Wa1BDIDrjRBQhYIPgJdaVV+ew108oxEEQDJYKf/K48cFjJ/q8TsExXF+asF9gGojGCwsUT7Ax+MNIDtcNFBgic58yIYvuSAqNzj8Ugoa0iJmTe4G4v3aEIKhaBIcPPjrk1MR/wog9hSXfsrI1f7Xbv5vhzYl7cYAGg7Uumv4pArJvW6jKaVpSKSqR0H02xnb9FRMXEk8MnRXjuC7nGGPjTg2lwJ50Sn6ZcBH2rwmUGhAfUlSeRUWxRlEJtOIJYYmMCNcUsck5l0z5LGg+OsuMIcaEH8dCdsJhBKx0bocQcgHGbJkcJaYLHEIgtCHSItEfErXeCVokLQ/W0LY+34fZOVIjBeGkH0LSxRCQ/ADpXregOYRXUNOi4rEenFqcKVCB1kAhylUosCeOW79MuAj71wRMVH0EDEFKjLa4tiGEBi0Ev1phxJ7cxgSThFCTozExeKxSqyCWU/EB0XSP/7PG0jZpC2UETeGqBnMST4xqUDQ5lvJxrFoTnYciJ7cCAGoC3ltC28bTGfKmII6ZqmJ6vpO9OIS4n4N4QkP0JwQfCKoYI1gBp2AqsHOP3bRI2xDcDI9gm5OG1ZcKF2H/moAKqA0ElMYKtB6jLf76KU++84eRjaK0J7lt6xHYMjYMTklG0BOd+oo1hvW6opwVvaCYfNvpiT51+/T4Of++f2PNybPEREtTN8xsjH0Q0s2rCakGPXnOnkty5+AiRTESw5uzsBsMGgyhBfvsI+TpS2gDzmhacPw73X+/a7gI+9cE1AjgkdYjVUCCg8VL7K/+q3z07/9nzJ6/jGfop/D0THARoarjtUdlma/z0pMmL0BIPgQIfPrpa54/f05R2OgOEJJT69TCE2mp6xjHPZvlkF3IbsvTOMB74fWbtzx98oSiiBpck18i793NiUWwblq8V+bzssObRzOkPplWkwUQEA1442jUYBuPFBVlkXwgX1G4CPvXBEy7wPo5QoW1gtEWrV4R6lfMF4LV6EE+ZYEHfNwSJOZvmzUKlLNr6ETrVHCTpgjEqBHXm1veN0/ScWz+jXAqmi+KVKBp1vjgmc2epi1CdgIqjPBDWBNYrd/w7GkvHjz1T/LidoKWtm1o2orZPCavxoy+HKGZLBXXRgcdLYgn6IxZuMJapZaCyl4xIu/wS4OLsH9NoLErGlsjqrRmgdMCfEMThGAsXsBpjBM4BibYdI6fRCiexOGC3Z4BysnYt+hxBwjg1x4bDDZ/p3QBKCfxYKBR8IoN6YrkLC8dLSe0uwp+5REvMaKN7R3r8bRBT/ZJ2gA12BD9HuIlZtDFB0TV7h02gBVNoRTxJEOtoUaom/arbcaPOZvud2AYezsloaX/uxz9c25CTB/nWbHExmzDRLNrWkI0lyUmVxiiVzh7iNHkw5EUCCI5hNbQaBODWmR7XBOdYCF+OhDK233uhjg9x7gUkhoIwafz3hJCwPkNKgbjShaUGBbQJXadiI2XrLGS/symv+mZvifiu3NorYik/AG39YLv8MppPCJgCxvpiJfWxmNAEcTIyf4kTNjCpOOxOJfSrTua8Jw4pbAW4wKS+NKk1GNr4/IpAmoVsVtvhKKQMmqvZUZZesScFvZ98fsdHWcG5GR5yve07w2XffXq1SjkmZDNZsOrV6927jXfR8AxHG/fvmU2mzHv5VD3kzGOgTGGpml4+/Ytb9++7WLk+88fM2DLuztMWTKvZpgQQB1GPK2FQgrevH6F9z5N6358CoTgqdtAWK7QRgneJxOwiINOSxb2fI92pvP29jbdd7+JTqCUz140gaqqYpJFkbLe0tmWEQsmhaIEaOqa5XKN37RxHE4F1aju0HB/fw+wU0hkLGSmev36FTc3MRnmHH5YLpeEEGhSqmsOxTb9xfhIe+cct7e33R3xfR4aqwjW6zVt2+4kaOXryfPzc7ZmP0w147bWcnv7BufMqCuX9wnker2mqipy7scYHJku56KR/urVK0RkJ308gxt78Xu/U5vNhuvr652/T2GUtm0py5LFYtG17cfYn6Kjrmuurq64urraYYZJGj4ETFGyuCqRoIBDJERzWCz11TVvzfEiT0JcfJw1UJYYZyGFj5p0ng2erJ0yo/RDG40xXN9cJa+4RQ1YU1MUBd7aGIWnncXYrTsiAiYy+mw2Q4sZvT8fhD4N+TPAzc3NpDnsM9r19TXX19cdw/XxjoWMJ7cdyw9AqgkQ+aF/P3sf1xgcbdt245CPAvsL4zDhqv/eWstiseD6+prZbFw++5C2fOf79fX16PHr8xHQzcVisXiAw40lLIP3nnLEhfPHoCxLZrNZZNIJ2hjiAOUV1zm3026KsNdliXHx0nqjSdBQrIDFUBRZMx+HELIp6nDqEIrkBY6hqKq2i8Qa0leWJcYYynKWNLIhoEjw3bFT1tZiYjUdQgzX9KoYsTgRnLNIWUYv+AlxH8bn13Xd0XIOhBAoijiOfWGfAlmjZl6cui3Lms05d3Y/vPdpLrbthynX+4S9T6+1tuPtMTDsZ7YcxvShT0ufziyb+3BMynrrZ2rtE9JznBP7Bm4MDPc9++Lkj7c/7vYZkYIBPDyf7pv9sn17HAdbn8BOLH3aP+clR/XhUZT2O6Lj6e7aTvi+I+sAPwzn4THOqmP72lM07+ON0/xw3Do8pJSO/fYYHOPdsTj2wXDb03//1T0nOALHnHnvzBuq3X9OENM9uAsQ6WeO7WP+IY3a+y8Zh+ZU17RfVN2Gbsq2JsBW83x5XuDHZDzC4+ds6DR+V3in0nDuOAy3ouc8e0zbSSmuuUOHOjYGz9AyGLY7Z8D62nUsnqEWPhe0K70kD+Qty2p39DsQ/J3J0d03qrHOW5BtJNjQRO/GkmxZvJuAjnP5YYzWG8I+Bp2K55BHeypfHfOMn7IODlm7p6CP95BMjMGx73X4/uxLIqbuq4Zt+zimdvIxNAww9f7lb3oDP2KRNSaKWC7D1Cn6HJfdw394u6HbM25iYEosRWUQS65wH3EGjXt5VVCPZA+8wpjkrkOm9jmM2m97jkYatn8MP5xTYfgYPX2/xtixGeNBHz5n39/G8vU+Oo/NxWRhP6bZx7SFhxU1puI6ZrZNw3X4t7JzNKvdB2W3VTdx9H/bX2X3R4DtaMTBTlw1Ov6CBiTE0JTMRja1jYuLjeeqJuMZ0ePBqn/uHOQ2ecwfa5E9xro7xA8wjSeGOI6Nzb5FYGy990MWw1TZmjpOk/fs567iGR67v9sHn9feLJAmQEFCKl4hWwYSjZVqhIDtcpljxJeqdtdJTX1qrC6r6V9y0nX7suQTOLGKH4LPY6zexZ77XcJj9r2n8Owz179I38A+6C+6x+Br6aC7wAUuMB0uwn6BC3xD4CLsF7jANwQuwn6BC3xD4CLsF7jANwQuwn6BC3xD4CLsF7jANwRczmc+Bv3AifV6zXq9ZrVajY4Y6uPJt362bfvgNtix0DQNq9WK5XIJ7I9cOoVztVphygKvbYxCw0JKcS1NwXqz2Z6npv88OE2VeOZd1Q31ahmzWbVNETnbSyf3JXWIxDzuGIiRz24FNULRtnifil6QyjR3/YqRdCIgGtMwq02V7pLU0RF0+XW1Wu2l8xT08WR+GBtUMsSxWq26rLP+92PBGNPRkPPyj4W+7oOcz55TWkW22WT7Emv6fYBt6vdyuaRt21H97rcXibUiqqqiKIrRfe/jMMaw2WwOyqZ7+/btaKTGGOq6ZrVacXd39+Da5DGZRc45lsslVVVR1/VOZ8cEJxgTr/hZr9fc39/vFK8YiwOgWq0xTUHdVGgbL2gz4vHWMLMlm/U6FpsgVznd1kaPz4nCqAKbqqW5exvlPCWrpPtcMSYQwjY6q03ljo0x3N/fx/6EdM1uEKSwzFXwPqRgGtAQUihsXBikFyfvvWe1XlOtNyevSO6PkWrMwV6tVqhqd9Xv1JjsvHhnpTGVH7KQZF6ayg8i8W75TEMuXtFvO2bxqOu6a5eFvP96KJou01yWJVVVcXd3x2azOdnvvLD1C3VUVUVVVd0zx/S9P17WWtbrNcvlkqZpHuBwH3/88Umk/YHbbDYURcGHH344OZ46d+zq6oqyLLtqGlOhqioAPvzwwx28U+KY729vMa5gtoj57CIxn92L4rAsXrzg3rnjxSsEiqLg6ZMb7IuXuHTDSQ61U1Vi7bNtBFzWYCLSCfviapGC3wUvitlseLVYsF6tCOrjAhIlnHhXZKy4LihFWfLs2TOYzXHmdN34DHnMsmbPlYemaPb8WlUVL1++xKaabVNpWKeFdWwhlX20bDYbXr58SVmWeyPcxmh2731XOGJYZGQYxtp/Rl4U2rblW9/61sl89j49fdybzYa6rnn69OlZ45DxPX/+vJOtB4kwp1bQvjYIIXQm+PDvp6A/eP3Vd0rYYdZC+d8h0/EUruADavfdzBX72bana4CrQrWpaL1idfe520j1/UyWxzK/39EcQjdGYgVjLIFUEklIlyHGZxhJ97dbFxNvRsxl/5n7NMhYjZrnMPPDsFzT2PnMYzEUqrFWWgihs0yGCTVjcWW+nkJzf85CCDvWwRToL5z9cRgD/f7lPvQt7j4to1NcdxI35PCVycegnwCzzywaS4e1FmPMXk0yOunBxsovRlL54zQmkrSwsfme9WO0QFE4nJVYRUZzbLzk//f/E5/bS7bYYezkN9BUhqq7fz7Tl2RyWyiTaAlkJg++uxt+VP+PJCNNwdE3Q8/hieFzz6Uj/9uXSDJ1azIck3107fs85O2pzzv23Rg8/XHYpwRHVZfN0E++OOa0OAb9VXgf7lNOnv7q19cm/RVsDC35euFun6iAaFd3PfjTK7QqNE17sDqMpueIbC2Y/oq7Yx2lCxYlO9/yhEsqfZXvIlPF+3iZNKpYiQuNMXZUys1wzPpape+IHQP9uZi6Rz6Eo89TY/ihj2M4X1N5Yki/935vuyHf98dwLP4hnvw6lK0xuPp0HMPhHrvqTYG+VXDuanboN1PpUc1FH+j22drPRx85ccPH7qz46Qf97zLz7owFcVFANRar6K2DMnhGpDtenWgk4ZvQ9X1aq0/PFDhXm+2j5ZT2HAP7zOsptBzT2Bn/PvqnwiHr5ZDVPAbXmHkYtWcfEpXb9B90Do59hE3d7+yjZwwe7f4jIA8LVYyp5SakOt1ISjtNdBjpUGaSDq3Wkc58k0oUYIbCnYnVdGGSSFcsQ4kWRtAQb3o5AWPGafxCt18QpvLDkEmn7LXHwpiTgWM07vs8tIT62vUY9C28c2jdR9ehtpP37GNMi1Gm88Dc2WdmjdXuhwRnLJ5oKueGdGZ8lrSxJZ405ZdvNfDhSehPct+ZpOk4LRO2Q7rEBWDH7SexJp1qQEJIJbayn+D0XPbf9+di7NiNWSCm8sM+3jhn/zvEPYWv+nQ8Rmuf03a4FZlixo+Vy1GVas7t+D4872qlzvjOxd2vBZu+ePBZyMJMt5fvj0QgXhIBW8MgC7wOfjvcrz8w9xN0/oN9f0vWQ/6yv68XmVaB7jEm6TGhmgLHNOFjTeQ+7nP7tg+OLXTneOH7fHvOtuWQxb0P11nhsueuXofwvIu9z77P4xHt/2qo+IG9NyL3WL973e79D9O60/+9NzJmU7Yv/7rFyXn77H00PAYei+Oxe/V9eKbiGvPbd6X0DuGa6mvYJ+jH4Gxhn/KQzwPe3TN1K5F9kIHmPwAied/cLQdpj5AFdMS5LXSriOyY8V35y62pDqC7Z9Pnwrsaw99f/LCFvt+gr30PCeq7XAymQD+C9Bgdo4V9375q+P5cOMf82UfDJDw9ta2dvG/rvU8F7Qnm7iPO37poiOWk+3v7vJhIdjp8SQx2ih+mOPn6r1Pa7qNl39+m4HiMg/ic357jmziE51QfRleXPeQ5PceMfBc49l2uB6cdFruIiIKT2/bj3kbiyEdnRmRr4vc21n2n3XEzbY8JamJ0nBXBa7oGKo2d7mk19BPsg6mm4hg8j5nLPo5zaRvyQ4apgnuoL30N3//dOU7AU78/x78w9qjOjT0q6Ds8hiF9xxwt+2C4CvVXtzE49mn2ocCfwhNCQEL/+alt1s+hv1M/DNtbP6OhrRrSjavJ7JZtUE2+xTWbXTvhsgAqqCga6Hlmc9Zb1OJbCwRQTV75VHb64QniXugnWvRpGDqMDsEhfugz/xR+6AdJiezGoo89hjrED2MtjRzslQNpMh3Dix33OViHY3hqa9WnrU/7oYCzY3j6dGT6+3PR77c7x4lxKDRyijZ8TGjjoTZTNIw1vXrrQiclWbePudNbidFtfTYSY2K+myakvb1/Du/NY5dDfs2Oppadx3bXMJuUAaeBnAZjRLBpHE3KkBsL/fu8YXf+zuWHcx1tw3HJn8fS8uB0Y4/VcZIfklD3nz0Mxz7Ed/sCpcbAEG/HDyPbDxew3HYYkp3BjdWkueG+vcE5psfwjHXKSt6nK/+bmoSRj7hUAyEoMTMtxAsWGeOai78pygJBYlCLmp58S8/3t+3rvvzozsGn2RIA5yzOFWAC4kOqQb99cp+RVcEH3wXanOp3n4Zz/S8P+tDTaFP5YUjD8H72sfQMterQ8hwLfU3bz28/ZLkM+W8KzYe2CqP4N0GmE7YLz772Ll/ePgZxzj2+u7vj9vZ2lMkyxCMivH37ltlsxnq9fiDsp0Ak5oRnGvrm35T9+vLuDjubUTcl+ABqEfF4K8xsydvbW0Jnoh/vU9N66rt7aBRCSBa3A4SgDVk4+0whItze3mKtpaqrGLOORQpL6ZW6bmJWX0plzTiMMYT0TQgBnwp5tFUd4/BP0DvMTst56LnoQ6btVJ9hm0yT5yILxhRmB7piC/3CE1OEvSiKjgbn3NEt3iHIxSv6efVDM34f/Rm3c467uzuKojiZ4trn1z4/rNfrLn17yuLkvacoCowx3N3d4ZyjqqoHONyUHOIskPP5nMViMZmoDE3TMJvNdnBMMR2rqtqh4Rxh19ZjyoLF1QwJSrxYKRCM4MTGfGBjogMvr7ZIss41pZnGfbKzUCyukRJQn47dbDxO021e8ZC+XBnl+voqjaNBDdimIfJATsHdVrNRVfKxngDWGGazklm52H+EOOz3gf3m9fX1qHHbhy/PxVDQxoKIdLnk+2g8BcYYFosFi8ViJ599Ci41hqZtubq6QtUjeHSzQYoFiKGJrIDVZPWpohLiPwQnhpvCcXN1RXmiTsOhvb9IzOjMtQXGQn9xLMuSxWKxt1aEG3txfIa2bSmK4uxL7wFms9mkS+uHEELYuXD+0OAdg7osMakfRqOwK0oQsBjKogDTM4q1s8y3HvvkwzMCZVEiToAWEBQTTXJ2zbs+nbPZDGMMs9ksOdyEIAHR7PzMGp3O1FdND078bIzBOYcpy1FbjyENdV0DPGouMj84N/nqQIBOo5ZlOUnIM6hqR0MW9qET7DSSQF1HX41z8+gCtQ5vZ1g8LjtaVaIViE0ZESFaWgb8fIGbzUaP5T4HnaqeNRcZV1EUB62L82bnAhf4/QbeI62Pd/f56HtR5gTxiChFGxCjBLFo51CV5GcJiFrU77/E86sCF2G/wAUAr9CqwRpH8t3igYIGpUTVIB7EGjCBQIsHEMECTmEWwJwXk/OFwKWU9AUuAASxBOuSla6EwhMKWP7g/yG8+gSl6fw1hIBoi+ARFQRL0IAWfJUV+0WzX+ACEMOUQvBICKgBxLMInh/+xf+Wl7/8q7g/9DH2Wz9H+ezb2MV7UFxRGI1lyKWhVajVs6+q4VcFLsJ+gQsAYgLGNPjQ0riCJcIHbYX8zV/nk7/6a6zmFfM//Cu8+BN/hus/+i/Ai5/HzG6YmStk5nDO0PSCo76KcBH2C1wAkKCYIFjjIMCVcWA8zayhLVuq8p7w23+b3/pHf4dKA/M/8It8/C/9OT78l/9t+OA7SHB8qwkUX2Fpvwj7BS4AqDhCOtK0IrigICVehdA847l9HxPuacvAwlj4vd/l9f/wX/PpX/yvWD39kPf+9J/D/rE/yZMPn1Nw3n0Inzc4CCmV0rB2LbN2iWuf0ZaCGABNJ8dQBLCNMgsxoKQKDc5aLILoiGOHdEitAUTz4TE7tdpGgaYjj348u25fx4BHkOhPpZXogXXpkgaPp6gDNsREE0FBlADp/BxUBcEQI9UNHo/FIhLHQVQIQQnaYm1cUw+Fb2r/8B6JF0GoxGdoPM21UtJqRU2DtVfMmxrRFU0xI6hAC8aeHsf+WGkAQorFz+Ts0HIYVFOykIDBRFxnarVIx5Y21Yn8wC4/9flAkK669zGwXigUggvUEijEsQaCA9U1LQ41QiBexCHOEYxFNTDb3LH8K/8j+ht/ibezBR/9yr/CB3/qz1L8oV+Bm+dIYRDV6MEXQxEENQYvCsS4CqMGEwTnbQzViDFWBOvjW01xHaKEFMhj2V4TlRN3YHteP4wv2Gp2FSwGayOCIOC0RVQoQmRgFVhb4Q7lAxFKKRAvsRqqzdQcm5E86B7Ek2Z4yO2nQTyqLbkMayzXnNpnITqZCBNTR40GEJNKM4d4xmpb5mWBEcH3pSCTKemShl7cew6/CT66aIxJCS6yDfk8GPgjux9E+rXQU/ycbzGqFG6GyozGNzgjtFS07S2zWYuwALUcg+75EodITA53ztdWhZ1AoIMgoGnJDNoi0klsL5JvxJwO+SFRMdWtHTI/SGL0XuJyCk062r6lpcZzg1IGwQQwErg2hiqvZP1oNwSMxHP5ENBmg9Zr1nd3vPobf4nq7/464eZ97B/8FZ798/8mz/7pfxF5/iQqGHEdjpj4FBVII7AySmEDhhooMRhMiEMEEHWNie0GU70vIakPLuqtWKfUBUVMQWOVIHU8YvAFtSjeeBxQiFJIZIkggpNO5vZXVtoHxqLYLukkLyRjQRGCSlf8SXOmWDYRRuBq2oAYC9ikpQKiPsZCY1i1oRvfTtV08fsxhFYBH3TnirV8P5skgmIX9+c+d//oR7pq0m7bVwXUNBjTomJpG8F4sMUVhbnCmQXIHBXLqc53Y9V9TqG43VzY0XMhJkUdqqRAk+189l9OgrGp25m2afyA0vFD/tc9P16SdxJfcIZAjIk1pDkUpW3AtBCcooZ01LYbJi4mam4R4VvAer3hk+UK3rxh8fonVN//m/ze028z+7lf4sUv/3Nc/8l/HZnNMK4Ea7dk2hYpGqDFtfEcT0y0sL1Nyl40neXHJWyoSI5BXmIQK1g1oAYVxRKioWvi6uOCYFXxqtjQYtTHME4NqDVxdTrFaJ3StXFSlE7LTAHtBD1pU1VMbzbHoNteuhCLTuRMtcj6htoVhNSnrihUFtQcrSpCWRQpRXUbwtoRsbMI7IZvPsgezDGxZK0r29x6VTwOpMAoOFVKJ1Q+0FQeI45WShwjAicGBpDm8dS8CI0YvG4MJVbSSeMTkiBMwRHpMGnRiEVAJvMD2uOHfMcenYSPokcV1IMGfFqkxTS89cpTazAS6csWgu403X4KLRR2jplZVD0s11Rv3+B/9ANWv/l38P/4rzL/O/8T7Xsvmf3iP8OzP/qrzF7+AlosCB5cqxRBMMGCCwRpo7kvgngTtyuDMdqX0rsPXN6Pqpi07warAUNBEKFJAmExCAH1Ne3qHrO8BQt1vUGtjRlbp2cFALNeIrVF/Ww3NTAP+gkwVU1Z3yLLV3EQWo9YszXf5DSecH+LLx3KdbQeTZPs5RngqX288JBO4NPHXi+FlM/et1qTmp9gyMY1WmPcdb8sdT/X3mAgRJM5SKAulSUOawPaLJFWoK7RcDpTDxHUh/iM5SrSaKpIiDUxc+8kitSzECiqt8jqdbJqxo1/7jcKZrNBvUdZI3bXNh2TWCOQ+OEKaYuYxSiS7NW8kB7HY5YVtmlBFLECasDcY2+eYNZLfKhBbOKHQT96aalrazFGsdJE814ctpxRiNK0K1Y/+yG3v/2P4eqG8h/9Bqu/+0sUH/4Ss49/GffhL2A/+Db65P141m8ja3pVXJIwRfBpu2TZf5HnQTM+UhnvJbdpE2CDgDpaA1Aj9z/l7W9/j+WPfxd3e0v72ad8+vQab5WAJwRPEY2fkxMDsN6sMWIoZyVGzEOteAK896xvb/ns/ffBCKH1iDG7+/UTk3u/WmNKS1XOwSve1Bgb0HqOLQvq7/2fSLVOE5zVYY+RE34fBntEs2MjP5D2fjpv/99DercqWDVgBQhCCwQDFTFj7urtT3n9a3+BYAVTV+mu+RMgUSOLxJtDEahmc4LG4g06tlKKETQom08/5c2LF9sO99JUx0Bd1/jgWc9mWOtQDZP4QUTYfPYZr58/w7kiZUHS0TKGH+q6IfhAuCrx1iGhoJ0HrtTjQ4N3Nu2V9z8/WxPWgQ8tPsTsRzGCNdGZq3aBWItcNxht8T/6Hm+/+aVpSQAAIABJREFU/w/R4prZR7/A/A/+EezHv8j657/L/A/8Uzz56DuYJ98iaNrmqI9z17vf4KQ/qAduuVwSSylZRC3BtJRe8VrQlmA++R7yf/8vvP4bv8bP/sE/4qZpmannd0NFYwLFfE7TNJggO6b03klJlWGapokPd27rRRw7uekRTdOwKkty4QiRbcmmnR8eAmMJRuPeNwiNq1Fp0GWBu37Ktf8EKZ+BK7ee3WRq95/grBB8y2q9gjbZACKASby/dQXnVM7sRFmtVilnOy8YFrWCa5p0v7ZiJGn6oCgGa+cYG6jrhpl6ih/+Q37n7/8faLjDUiBDr82BMZSk+dq2jUyaymUZY1JJrsOQbRdjYh83VUV7fYX3vbvz6DvJDpCR+KFtYykl5+y2ZNYEfjBi2FQVq7KIyqN/0jGSH4xGJ2HjwAfHrLlmeTPjuV9RhxZmT6ND1kfe3edkDUBZV9HkLxxBhOA9ja8xYvBpm3EVCrwadFZQzAIEj//0B7z9yfdQhOK9Dyj/+J8k/MIfx374XfyzF7j3P8Y9eQ6uTGPsd63MpDTW63XMouxZGxncmzdvoznXRgIat+SJBu65wc2U6q/8Zda/9t+jr3/G+1cObgxVaBEpmRuHqjCfL/DdJB8GTQ4HmyZTsgmvE8ohp0VtYR1NGwtDGCOddu2shBOy7j14AgszoxRHa1aI87j5FTUlK32KoUg3pmqn7fqTrEQzflM11Le3hDpEj74xiLh0NNXGI7Q0GX1hXy6XGGOoqg0+BKw4TOmYK2lBjALlRFBfxbvaxQKe4ITKOgKBplTsvAQ97Y3vFkdjosMnpOuqEAi+56g7hoOdRW/x9Do66NIWQkaMfx4/EYNFOzoQA2O2Ij3wqlw9v4mpsqpbazGJQ9DejTuH+hRKlIK2aDA+8HRdoGGDu1oQmjWhbQ8uXgpocrS2tqVVEAosBUUwmHT1dmMMrXWEtkr8agCDFaFwjsIGgrbo6i3NX/t1fvJX/jKtFeQ7f4z5P/uvYX/pT8B7H+LmKb3b7Z7n54Ioxpi910e7b3/746hB0n6xsdeUBBZyhbn/lJ/88P+luv8p8l4sFCEoxs5pgyKmxNZCUQlt0RDMcaENIWCx6VnbDKGs/E5pAth6qQtn8D5qEIuNzh1D2vdy8hRw5ixtCNh4rQsQ70orxRK8YGQ3t3q4kmd+ds5yc7PAffAy9q0zH9P+O3/ujUH2U9zf32OM4epqkawSiRc7bjZ8erVIlXwCTevxzoIpcS3YuuWpNbR1wHrlunyPpW5iHvyJ8TMihGSFdWWksmONeK4/Bvqao7CGtm2R1LedLdUJHNJ5R+OgRismfhy7DfA+UBSGEECDYmzkkez3COjJfrnQAg2N1Hjx2NkTrG15W3vKwiB1qk+QFAu6tRlC3xlrPkDaBm0agqlRUUK6HpzQ4qqaYGf4sC1jhkIwQrAhhtyqstCW4K4gBNyP/gH++3+PVXGN+6Vf4YM//W/x/I//KYz9AHt1g13coNaRb/l9/t5zZvN5nM/eGLpY4QK8eFptmDcGNQuuRfjsr/46m89+RLEoMY2AD1hnKZ1h1a7BbrDzIu370sOOgRHEGkKq4Bl0W9bKSDz2OGUdSNaK6xXz+Tyt5imYQLcMcorVgm8RLI0Yauew8hSahlorStfStAaxu1cI7a2X1gYMAScuBXbsFq/o+8dzGaKMb6ekV8cwkeND8ITQIlZw1mKCR7WKu0ZnWDrDkpoPqGBd4WeC9QUSjjO1DwExsTS1tTFbK2hegMbFdmeNURRxf1y3Dc45QqOdozQudMdpUcB0v49avvVtdNrZcfwAUM5nLNcrynIWA19C3kakZVZO96sqYwLM3IM2DW+ZcycVH5v3ueWWBo9RSYVOdqGf1qp+uXXbJIe3kmoO/f/tvUvMLEl2mPediMysqv9xH923u++9PeweDjnDmaFF07JIgRwJpBayBRMwDAmGYcCADG9kbb311isD9s7aeW3DCwOGN4atjWGAMCDv/ABEGZZJkxxq+nHv/6yqzIw4XkRGVlT+WZWZVX+/eOs0bv/1/5Vx8kTEOREnTpyHWBCL8aDOUzRFQb06XF3hqRHTLFxUqFrIF9TmDJtVzLWi/uf/hD/5v/8X/h9vuPzgl/no9/9N3v/9v0f5/vcoZpfU5Qr1da96ldHYmlSEuWRQwD3CoixZf/E59e0Va1ljzgxGhVVVgQfNDVYytIa8OMc7N3jWC6tb423XXGMY4l2zNGWLB2almTgrGerAYBs7THNGVEYZ/JyWYCrEZG0yAjGK4Km1pBYlZ7Y1YFt3qzJGD3lEMBZQ1CvWCwtT4F2OdXOse467rjH5Esx+FdhI3E1Cymqh2YV9vDYzDOUVjGOOF9SBNRmiBiO2mVttjGwD5+SGH4DWA85g22PFKH4AfK1YyRqfHoNN+EEYl9ba+gJchnMrivkMB5zPLT///OcUF475WYHWBa4+PipcTIWIpxRHrYoUFpvniMzQ2rF2nvn8KerXuPouHGtMDmRYZ3lCTimG6u0VV//NP+L//Uf/GcsX7/M7/9F/Tv7Jv8JaZ2TOknduw0MVV5XmasdTm+Aeq5ly/vI55eKMq7cadgKx5GSIyai9DytVpTgM3lboAKMJBPW/2dUBrDVou8vptjW7D5pdwGRCpetWZVQJKmo7sQN45maBOKirkNTR2nBerF1IZHA2O8P5upfxD0mddDRoHs7TWqLUGOOANaW9g/OQUcVXw4ataPn3hGdjffc4H0YMOpCBIfY++Lw5MpMFm01zhevVh4uLcRfcra0laj7GmHDLMYYfgNp7TGao1W00u+T9qn4EX3nIFZ3lXLMmzzzVsqZ4+pLMV5Q3JWI8MsL+ub+3cO00+GcYj1WHOIcslcznzHyB91DnFYVArganFmNneGCta9SWaF2iXMJv/hv8+t/6d7E//An2xftUX3zGpanIfUFzP9dChmrwzcWiJkNxnHtQMdgf/yrlP/6AzP0p88Lg6zowgyilq5AiQ3MBLMZbxA+PhPeKtaZVBa2GlTy4mY5Q/Ro+tDYkCMysbS2uKdMM4Vm5zZlb1FN5BzZD81mwhNcVWXvn3TmvR7V+sLePB95XIT+eFZQcr5B5wXllVTusUTLywevP9oomHp+wiAQ33/D72PTNIT7CkpNp1hbLEBVEx6eUTufKOx/cQ7GId6Ov71SD3aZ2dSfnejgbjcEjeNCayltyYzCre85rx1LusGKxC9vYBA6rrZeO6XsuBwwl0iTMkLD4GihsjajDmTWVnSEuZ+ZqzP0XrGtFX/wyz/7Kz3jvN38H+8mvYs+fsnj+ET5fYO0M777Eeaitw4ohdX3OVDT4tRMmyja+uKW12Jc/YPaTv87dn/8Zq9t/wTzPsMbg6orcCiKeyteIGFQKvO5XcURAbXCz9TFNcHuFLWy8yPaACTt4Dag1OLO5DpPmzLmxw+7DY0F9OBcT7i89DcOJYZaZIACJx1s6afF66esCEYfBg8mpxeJqj5Ucmxvqes2iudpxQ9efcbdrhMKb9PfGNXdo7CSKkcEYoUbxjTONEOIBRg1NWEnbK01vaY9UPtypjTjWBe3EAd5ET87Qk+aA0MTB7O+TFY+hJicHLOocBRm4EqeCa9xaHyO1U22Ds5R4sN6h6nF4nPGsbeizXWZ4f0tlHPmrT3n+0z/gwx/8q9iPfoXZi9fkLz5ELy5aN13jQFSZeSVTj5WHNxCZSqgvYhSkUowV6sbZvihe8OL3/oCFrPnF//o/8cXP/4wZNbkNO0O9LMnF4JwHWQ76H0frYJmU2HGw5fMwVFgxBKcIZVmR51lz5JPGyi2Nv8tmEdkJ9iycCd2qUc9yKjW4WplbRUqH5gvENLFCsrk/jqN46Cp/EBiCYBgNQl9XFCpobvCuxN1VOKMMrLfBHZXogBF8+zU607BtZd4FUYgC9xvWqzJoSNF7Dja2k714pEODCeWsos+EMEiPAGIzVqs1WWYbdT1oHTT4vR/mB+drjPFkWc6qzEMMwnzBZX3NbW7xZo71YUEcgtQ1ug9KG7wzrQkGVSFcrzqvrFf3qM159v2f8vpXfoT75IdkLz5h8b0fMvvgU+z8IkRfqsc4aSL6wlXUWoR1keNt8JlpvUkbyIg2y8i34qlMiHQza0PxSz9m9rf/bbJPfsTsz/4Ud3dNdX/Ls8szvHMUmLCS4wbvy6OA393dkxch5W305No3OF0cznlubm559uxJe87zE/Hcrqom57pFjKJYKm+w1pD7Nbd/8s+o/vn/hdbBISJAZBrd/P41gcHivUN93VzTQJmdI9//Pu//8KeYusD64TmATa03MSYUJdCQ+12ZtoDF8X7z9oonlxdbpZNgeB4iP6xWaxRlsVi0NzVTcBhj+OKLNzx5cokx0vpGdLWyfbCsPRWOi0WGr85CgMo8o/rv/ku8Kcm1aIKf6kF6hsBkl7j1EkuNK0vWajBP3mf24aecffQps4+/z8WnP+b5pz/Cv/xlTL5AmwWslhCgJQi5Nhem2lg+xONtDcY395fbFrpMEIxaRMFlgJTNOS4HB7XNkY9/yrOPf8p7znH39gs++4s/5+Nf+hgkxDF7m22S5w+C8ObNG+aLOfP5AtS3K5BuNs29sF6XyBdf8PL167CjW9OEuY4iAIA3X76hKCwXlwsUcF6ovWE+s7C+5U/+8B9z9xf/H3r12calNfYgMQJ9XaCagzOgKySrMTZjlRVkn/yEj/7ef0iWf4Bx2ha02I2H9tpPjHB3ewfAxcVFWPNd0JCGCaK5IvS4n/8FH3304cF5429v7/De8+TpEzT6tU/gB4DyT/+MDz/6qNUwUs/pMU5Wt/eOVVXy9KlQ6CXegDNL/ui//68opeSiDpGOj2CMxyyV9UpZfPCCxacfoC9eI69+SPHxTzj7/q/z9Jd/DWNsuJpm4wPSajnR+Cg0qR2CcTtHKZzDNMfPbp+zxncKleBzjSpFRLiwWKMYCed5NRazeEL+pESeftCUIWrcLDsCsQ+0Al3MkbOzrYkY7Xm1XFHdV/DkvbbN2LYRcmaY3KLzUGhCsJjGoizFAju/IPWBjybAbWgGnE2EWnRPSaidRlhUkht1u42TR8DkZFpjCRbcen2Nub4nL97HZE9hYQZfFb+W4JRAM9vw5DL8fSK56jzVm3v08n3IDxN2lSLYRy6fbr1/ND94pVrcoJfPIY/z2cDIvmRSMi9LsvMM7wtcptQUlKxRWVMbwXrT5EwJnm/R/KXqwm1GLOWEEA7HTQCxV2rnwFrm5+eYJy+Ry/c4+9Fv8t6v/xaLX/0r2Gcfcr/2rNYlviniSRN92tyTYGy4/s40GqkETLgpQ4LDGpqDLxDNHwp7HBCxkCMgSekZC22dkcaYomLwYkEtthHubGTVyRatNU0RQpodfZNQYRw02WNU2+u2MYEAW+Ad6kPctFENLpuieFFstuCsWmJd1ThDbGKk462UNpPgNZiCnDaZatoTbWM/wDcurvt6A5tDajRKtazU9GsdNCkMFRlOIC9McD2WOZo1Rp+hkdsa64021C4CUwRdw0YQ/LSH68ztAtvUuD+YH4SEH7Yt/KN5wtb4zOHNBSIe1TULZkhRsFhnuMyBCS6uvs1apGGWFGp1YAVTN9V2XY26GrKcbHGBzi8w733A5fc+Jfu9f58PfvBDsrNzaiwqtvGjv0OrFTnnzWgYHpgEGzls+4ZgyZJNoTG497Dc15qDLrVkH1ITLMJWtNhR0LBYVPXav8Xx3I9foQn+AK9hZVWiV3YjSCPvmqMjUKzP7pxrK7MaoXFYkkaFMxhp9pbGkj32KnDXNeIhMPY8vAu6/HAsLcfxQ3D2srWCc+gspIcp79bMqozZxSV4g1VFspLSrVjXFT7PKfIFmRq0rimdY55lLLKCujiH91/y5Dd+hxe/+3eY/ei3WGUL5vfXyHwedlgfeUUa7XhYO+vre4R98/GNCPu3AZe2Ynk4CFAUGUaEzGStj3nzgmEa4qKnSWIMQmaSTUKCRriNgppmXQpRYs5XSFVRO4f1rtkhx3PKsYvuY8BWAo9vEO7tktvinnm2IJccWRswlpm5YJF7RJfUIjjxGOcoRJjPL3DklKVSuwrFIasK/8knLH7vD3j/d/+A+cc/Qc0sJEgxysIt4fy8OWybMGfJlB2zXg2N5Shh3zcR3XRL+yDNqHEM9N15T1Xb4tl6a3Bk+Lpoiw5gvW4irRpDYzxpN/rkA7q7tAV1VZud24ZYZd1YmY0JK368ngpnw3CtZK0ly/MmNHRE8pAODcdoSLt4Ygo/HEtD+s4HmX8mwqVbMK8y3Jmhtg7khjM9x2dLvixv0WKOlRzvZjgvFK5icXeF3l1R2oLipz/j7Ke/y+t//d9h/uxDyBfIbN66OdN4DyDh1ico6bJ9uQONg83wfX43RmPM+E3a2eOkpEntpqhy+6LIDqGjD8doJmuEKGra4Qp9Y8GUEXYIAWazHCvRnSf5YgfdfT9BkrNzc/Zu/uCcD6mfTIwh2FipNwscON94TE0QMqDjcTYN4twfyw/HCnza/lAclYfSCc+8Qb3DW/C6QmbKQgU85LXHL69YVrfw7Bnzv/77vPjtP2D+49/FL57wizfX8N4nyNmiPcJ5aW61Yzx7E/wSbRSijR8AYS6615f7+hwhDdSy1u6c0+zLL78cPSDhTnTFmzdvuLi4CDvNjrS1+wh8+/Yts9mM1Wo1+awmEsoMv337lqdPn7Y0tNdJI/Hc3dxgioL5umhcRzOMOGoDueS8ffMG59ze3VKBqqpZlxX+9g7qeE+thHU0pJI2xrYCkEa9XV9fY62lrNZ45xHJkMxQOB9CRkWCBdZIE2duGit6s094j69rlsslrmz8+Aev3nSLGW5vb4EQPz91R4yC/ebNGy4vL4NjzoSdNc7V3d0dzrmQSKPp11TN4OrqivPz8+C70bEFjMF1v1qhtaNwysp51u85FvkF1/fC+8uCalVy/+Erzv/q3+TjX/tNZj/4DeTl96kXz7ibz0HX3LoV793ecleX3OmaGkdhLIW3uBJKyTDzOYZVSITbWNW1cQgr64rlaonbEzvfHbvI/9badhysta1spZCdnZ0NDkaqmokIZ2dnW8Xep6puZVkym81YLBZbEzK2fSxYH9sfQofWDlPkzBez4HKoFiSk58rEsj4746pJ8LALBLCZCZ5bswLT+NmHIIy4QjtI/M2jsEOoSx7i2c/wXhE1qBVsWWGtpZZwQm8FqNUgGg1LLGIteZ5j86KNINwHqSAFB6Xg075YLDb9msAP3vt2LuKuNJUfvPctnq6AjsWxWCxYLBbk+SaX+hQ6jGRUlYeLOWfqmbMiuxWePP8Vnv3uj5n/2k/xH3xM9vw1s/deYS+fI3bWJCxxYHNmZ09ZXVgWRc655gTDuGDFoDNl0QT2KLN2oUxtNWa9QhTOF2ejNMvYxyjsQDsX6XxGyFKhHQPe+7bo/VSVKQ7+rClYn6bPmYJLVSmKgjzPHwzaWChnBSbLmc2KJka5SYssYDFt/wb3KNWQgz4vsJlN1PHoa65Ikyop7qqR3rIsMcYwm82bO/1wrSNtmq2mTee+uT27i2+znDCbNceSYUFNx6wsSwCm8kGEyA95nm8J2lhQVWazGd57ZrPZFo1TcESeLIpiMg0AUtasvcMvMnIVFpWhzIVP//5/gHz8Q85f/jK2OG/SoIPgEfFQCCI5SM6MjFk2Y57PMRJO5BJPhuLx+CZ5ZLa5Pmu0NNGQwsrnjvlsPiraL+1/HK88z1vZ6sJka/wxltP0PHeIkHfpOMrQ56PRBDYH9e3vg7eSNG6Sm8nZOHtEw5qGXbZxp4gH69TYt49WgU06qHiYI8SEx3iC6K0XMWrE39gZAnMNw/HXlQ/hsSzpUzW8XTQcwhtePCqOEBgqYAvI4dnf+DuUssD4LIko9I3RhO0sYK5mphm52E3BoqCcNcKd1hTYop52ZoMxZhLtW/3opKJK4Wuv9fZYzNaHZ/IkJ7Oh3b/rJhs5NOerdqdv3uOjkGljWRVCjEDjYiJxh58CcTHc1FOSJqeaqjZXOH0Mcxh801dej+MvsZuvxvKEE4M3GfOmvBcWclVEnjCD1jwexqu5DycadxttKZbvkWTNJn4QTIcbWtqinJtuw3EwVrt9jIi9E5zgBN8BOAn7CU7wjsBJ2E9wgncETsJ+ghO8I3AS9hOc4B2Bk7Cf4ATvCJyE/QQneEdg8j17N+DgGOeYQx1juvHPB0XTde8ztflfdJZonVi0dYRos7NJk9CwcXZRTHtT38a9RQ84tgs79kWdPSCsvf83bX/j80Zo64o9dA6YPpbHRptFHN3AjGNxH0JH33un+Nh3A0i63oa78E0J/unS2ZWBqYFJXWeife0nCXv0w43/vq7J7NKQfu4uOhEGfcRjEELjvRR8G9LggsT7Lca0NfIUnaIgRKU5D54mLVAicDGP/T5aWtdXgsvkZs0xjRCRRNRFX/mkj9ueG5Ogy2iHLL4pTxzjoNPXdiw9fYEvU/mh276vTR+NUwV9iJapgWF99O3CMVmNfyxvp75dbUq01LGeV9seaH2r9RgcNP7w2wITo2VbL8ktvPLg9wd7e9QqEg3GJ5/TPgihTJJz7mim+yYW7/jevh1prICm/PAYfThkoTgUHhN3d+N7EPXW98d9yESkDafr83Ufi2PXjjyEZ9ekTl04YmKI4F4et8pNgUFrQ+34vVgErJH+hSHZjLtqW5fevWpnEvGGgPomvCahLbrwjqlx1/sO+mkcgyfyQ4xp74tCHENLl5+mwGPwQ9qmT+MZwpsuWFPGr8sPh4xDl38iHV082d3d3SCyNDxztVqxXC7beNm27O/IVdgYw/39PVVVtbvRlJBGkRCptVwuub+/35yNJ6o+q9UKcTlOHeI9Qg7iqEUpTM66XIe63nv7E+LA12VFtVyGpP0aA2GaATfbandasvn+/r6ttRbi4EOIa1ZWTcZeg1gw3jeBMoLEWtSNPaB2jqosQ/bZGGG1l+btyLv7+/ves+kQjvR8uFwuWS6XD+LZh3DF9y2Xy5A7oHm+G4Y7BMaYloYYsjt10VitVtR13fYhjkfMsT8UpGOaHPz39/ctDbsgHZ/YV5GQK6Isy62Y/CFIZTP2Y7lcbn0XIXvz5s3oVS8Web+6unqQvGIKjuvra4qiYL1eP2COwQqixuCc4/r6msvLkP64e14cQ8v6fomZFRRFBs4jZIhx1AKFybm5usI715eks9srqrKkvLnBrx3e1ShgJA/ag/XELqXCLiLc3Ny0yStc7TCSIbll7mG9XuO9I9MQWRHHJRODsVkIuamhXK+5ub2llPuQO3+I2mYOIiPf3t6iqtR13TL00BxESBMmxOQVh/DD/f19yKnXCEm6gQzRIiLkec719TXz+ZyiKLY2IRjJD+t1S0OaDKUvIUdXAxARsizj+voaERkMs00XshRHFHagTeSxD0e60aVzISJtf7Z29o8//njUChxhtVqRZRkvX77cq97swiMinJ+fUxRFG2A/Fc96vcYYw8uXL3fu7EN4bq+uMXnGbDFr49kRxYmSYVl88CHLLBtMXpFllvOLc56++IAMG8IgmyinQJdnEyG1EXZV5eIiVFE5Pz9rDHOCw2PWa748P28qpTi8j+WyDKq+qeUtGGYszha8ePE+Mj9r4+72Qfp+EWkz1Zyfnw/uXimkx7fVasXLly+3UipN4Ye4G15cXDxQPcfiWa/XvHz5shX2LgzhWS6X1HXN5eVlK+xdLahvQ0mfK8uSDz74oDeWvEtv2jZ+Xi6XlGXJ06dPB/scIV0YI77nz58zm80ezGU25nzQPb/0paKaciYawj8EcQXuGmdSGMITUziFthCPu23+bT9s8FJoUleF/PWiyeRFtVr6z+TbdosEYVOvzjlH7eqgxseFAx9q8jWagbTi3fzU4XSZu65m9tlRdj0fnz2WH3btnGPxRBr2pUgbnMuOhrlrztK/pYuA9yGV2JhbiX32hbFaUWyXzmdsm47B1s7e9/IxL+kSOAXHvokZe0ZLkxymNIw9L4ZGsS2bAnldARxCEc/j7bVdU84qpv/eQUc6MfEuv7WvS3J9omFCvYaiFMZIuyCoKl5juYLpZaRTxtrF6GNwHMsP+xh8LJ7I+F0mH2uL6Fu0uup6d0GK36cCN3X8ujR07SFT26eLTZeOg5NXTDGqdeGYAYnv7q5eUwxMwJZPjUBwoompgLYMXXFXJVkIFDGCeo8Vg8E3xYAkVgwOAy66la5gF53bNIeXiyiyyWkU3t0IuHrdrE3RYeeAdBaTF8cdOGLf+vszDscx/NB9fx9vTKGli6d7xu579yF92LVBHSro6ZGjj5Zv1F322Al+VJD+X9s/j7B0P86rh9TN5hnVwWdPcIIUTr7xJzjBOwInYT/BCd4ROAn7CU7wjsBJ2E9wgncETsJ+ghO8I3AS9hOc4B2B76ywj/UyOhg/bMWttzkl9jz/tYKkngLfbfiq5/Ix4Vt1XTwRRoW4jnFFHeseOeQOONY9ch99Y/D4JDCUJm2FRglvBFuiE4s0FV6Upu5ayFQTaml7FIOjRrCgwgaNgOyutt1Po2lWDgNNwSERmnJVjWuvmAcYx4a3wkNHmKmuxt02x/LDvufH8sOQU89Yd9kxTkZdR5huP6bKUx+NU1xmuzTtwjHZXbbrlth96Zj2+7yNDlk5D3G7NWLa+uy9dBjZ6eravhdwTU24NB2VNC553nsUj7XbotnnH7/dn+j6qKgEITaZwYgFF+ICnIaqrzGkLrrZToFd7586B4/FD4fS0sfkk/mhxwV7H+zCf4gnXV/bKf3e5c36wF127AqyL8Bgqktil9DUxe+QXWWX6+x+JOGfRme00LrNPTemP0KIegsbr8eoaX3cIfixa1KuuY+2PjpFwFpDZi0Yj2kEX3Bhv28DYTJslkGT/mrMzp76XQ/tBEN4DtlBd+FKccZIrrS89T5IhWSXpjBmZ09MpXtUAAAgAElEQVQ/RzpiiOtQ2z6//CHYpxFNwbErPqEL2du3b0chhTCoq9WqjV9OXzYFrq6umM1mW/HsfZlOdtFQVRXX19dcXV1tdXYKHXc3N9iiYF3NMN6DZojU1EbIJcQm+4EkBADqPVXtcff3UIF3dZNTzjZqvMOYTd3y1H/5+vo6hEZWZQg9xUJuKGpPWVZ49VhjwtEBBQ1FJJFwVPDO49Zrbm9vcKs1qA56yHdpuLm5ATgorVWEq6srnjx5QpZlB/FDXzx71CDH4LLWcn19zfn5eW/ihzG8cX9/38b0x2e7wr7v2GOt5ebmhqIoBkNc03YprtVqxXq9nsTL6aIUeSrPc8qyfKjGz+fzyarLfD7fquc9dXLLsmQ2mzGfzxt11bdq1BhhN8awWCxaGtL447F98VWNyXPm8xniPZAhOGoDGZb5bI4YM+oYbIxgspCsQiiaNlF1d4RSvfIglrwsS6y1nC0Wod9q8BYyqbDWUhEEGo0lgmNQThB4Yw0mz5kVM7SYjzLXdWmISRLiXMQxHgOxT5EfsmwTVzVVS3DOsWjGYQo/RDoiDUVRPEiGOkZ4VEMCj0gDhAWwT9i7dEVhn8/nLBaLUfHsKT90+5LSMAaisAOtXKTyGWGSsEfEs9mMoigOtkyu12uKomgZbF+kTh+oalt0Pv4+Vdir9ToIyqxok1coHitB2GP/hoZcJOSyy4oCmyavUGnCTz0i/Tt7WZYYY5jN5815wuBEMQ3zGDHBwKdB0CWJa3desGHLJ8szpCgwZjj2LRV2CGm14DBhj/iKoqAoCvI8H90uhZgdprv4T+GHuKOmySum8IT3nqqqtnhqlxrfdxQTkZanxyav6NIWf5+qGaSLRhyHXmE/5Kx9qLqX4ogwxSAxBJNw9AaNbS7bhtNAbBC1UahR3e4I3Ci6OraCuINHa/zW7wcY4yJ0Y68n0/kVQ9TcpkKfQKY/D6FjH4599qsxuNPPx8rT2D4eHM9+KMQB6RP4x8A9DV+PcSxKnfZ/v+ud8Wlp/yYYEdoA94G2fd+FpJPJs6Lhd2Oai7lNxppwhJgGxzLZY0Hs61QNbyzusZbtXQtG+kwXHpPeYzfSdBz7YLSwdwftmA6mAn/Myns8NCb5zYa+9U37HUo006uwJVRxcYjJK8C3C4U2ePeRGiYmtaTHvPPJPS6CmDBWRg1OFe9rjDjwHk8N+EDBAK8okR5N/7I9AGOs+lvt2/IaD1+2DyRl8F5VaxQtxCIfDR4JK25Lo2pX1+rHAX3Cpu3ivdkAfJMZyKDYDW4/ithhSo6Qi30Lxmhh71vlDiEoqmmPvYKn+EeBJnduUdZi0yBteIJ1W5rfoxUcDZlq8L7JEOMTYdfNWb+TqaaP1ijM2spbU26qyVTTiDwejxEFtfg6x7s1WREy5XhZo5yFe3cd6L/Z9FWbfkRbAHEMRghpGAbfLkwhbdZmPLd+DuAK/Y3LhT5cfwYXsHBV570L6b9l06QV/CFa2gaNJd55jDVt/9IrVcQh6lDJcV7IjAlZg/zIPu+AqUeP9PlUK9rV/mtX409wGKircU5DssncInnGGjBeUJ0jmuFFxmxhGxComvz2s/S4MfLIHHwIHKVavLGNF8BmMRm77tYYHODEsFGFEpVoCI8KlVq8yfASaYjLZOPRONCnWiw1vu2DF2n1leAjKa3AK7OQY1AVfNzlBezE8f+a4STs3xHIsktUDFp7xHkKa/BOsQ5yb7CVoBmDgipabUmh9euAn2gBFnQwW35w8EHAeUfml2RaJcykqNpBCRMcoGRaIt6TUW80KO+bq8/t+nl9tECN9Utyqcl4KOxBI9vfp4wapQw0ELSFViuLiUgV1IGqgDUYAWtc2NLFspbxZt1vAk7C/h2BvF7jqSi1xhvwM0+pwuW5BynDkUF96z67EzRrGTf4/DQs4CMrKEI1QI1p8ICokGkRfnfZRtPFgQ7hsYBFNMeoB2cDXQakNpAZhJr9urGgZEidhfZNf2TzNeAH+yQejM/bPkh3GBW81DgjqNj2eGCahz2Eqj2nnf0Ex8IKgzczChbMHbj7NVeAqQqoFDfXUC5qYGv3skl1DUBzNa5mw92i+9ki1JpzCILDwcygRnFSE6rPAhrceffjIUhVo5F4E4pqGDE46xqteLgmj1cHM0EtDQ0dQ/IIWsRaUIc3oV9qe/zrqcmahdI7wTkPmSCNt6Q43b8ufcNwEvbvCJisRq3D1wbnMhwZ5uwSe/acUh1CTSHZsLss216BJg/qu49nW8LRcz8OCbXlACeW+fkTVCy+EfToGzB41G5wSRYcm4LNweIAb4L757Cog8eyuHgKxuLFtn4PbR9H0GLyHGOaPkS62LYVqguHBBujDjNLLVArzPCcGYf9Fkv7Sdi/I5CVFm8EZwSXGVTWWPcXuP/zf+RP/4s/xlQOMXbYKmbSc6Xi3LYfujEmePjuA9HGqU+oa0dZVtzNN/XNREJ1nEEruihiQo17rxoCf+J3zTFZ/LBe7MWzXpfczorN+6XxYNTGCWnglsKrR0Wx1uB9qPAD4DR8Dhd5QftxGOTZR7z3mz/jvb/2+7jiPZwYqvrRbt++EjgJ+3cEjDFghFoMuViQGusV/9mf8+Yvfs5ZfYcT2h13F4gNRSbS6xpjDM47vPNkWYYfIezBX0hCQUpruYNWuOJZXgcETAnXW8KmZllcdDZRfDJwnRiE0FpLFb0M4+6c+HLowKIhhvau3vtIl+Cc23j0icUoVLWHjz7l2UcfIyhewoJidGj0v1mYLOyP4S4Lj+uUc5BrpMhWjfONB0zza3io2Sk3/7YcasQQqi81DNl4rAQ1VxFtqroMqdat10fzHo27k2l9elweYtvFObyCUYuRBWozrAGZn4Uz+9A9u2izazYFCcMlN8b7QK8x2FH346FfttmRfXMNFaV9TH2atmSVCJI6WWlajXY/pnAP7rFZ1vHCi24UgZ4hlg1VtRpB14Any3LEaYhtaOY682AsmGLOzBhcfhmOPgStYBoL9j98qA/LULtJHnQRjnWwOVbQd9EwBb+I8EDTTBylxDbhpBqENrxj82B0tBETHW027T0bNZRE1ruBGVsOENEfpXUkC6WaFcWrw7tw8My8Bm+6ZsfzUpEJ1GizYA303TdXW82u6aPDEE0+Aa8jrswinYFol+quulkgx6wZKR5o3t++aBweQUJ0YHTM8fEM0FyXjSDER18eEYyxOFcTE5KE2weLNxVOQY3F+DVueYUzBTMFg6eWHD8x09uxnqndjXdfXEF2f38/GmGM1CrLktVq1X43VdhXq9WDOt5T2ldVxXq9fkBDCkP4lqsVuAwVT+YBgjW2NkpGhqtrVD2irjFehZ22fR/gcejMclevqdbLsDuKbybcYPHgCWpeZMRkrJbLZeNNGD3HDN5AVtYhttpHzy2Q5nO4Nw7OsYjBx/E3BvE1QdXYA1FV6AqAJD91vx6vDR0xi87mnUFDCWvcCCnrm6K4QMI4Kd0irF0pg9ag8ay935MRorDbZj4UyQucerx3ZFZBa4wJ46zOUS1X3L69Il+tUAWvFatqxXJ5jx84B6U8kH6O9dmH6rtv0d2E88Z/6/V6Z0x89vnnnw8KRiTIWst6vebt27ecnZ1tOd2PUe1j3O/V1VUbipcuFmPil40x1HXd0hBD/LphjUOwur+HPGe2KrAehAzVilIcOQWrt29xCtZmiMmCQ0u8n9agUntV1q7k5u4GkTdIXYF4RHIMGYYaX3tqNv1LwxFvbm6w1rJcLYITiWRIZphrSNChBBXZYhtPrcDEtVcUB03orIglMxk1ITfePhCTainbu2jkgsHzbdzsOgt9ez4m7rD75yBs3A8dUbbmT0fslOK3aAi4pbNm7McTPOQsKuB8uP5T1+AyIN5RqwPNMBjquuLuzRtmV2/BGRxLbu/vyIwdDPVNBTQ9isbkFTGJxt4uRyNkYuswxvD27VtUdSt8PEL2ySef7EUaIRK1XC4pioJXr15t/X0KXF5etrG/h+BYr9dYa3n9+nU7YFPVofvbW8gyZvMCq0o4dSlOPFYtdx99xMoq4itMY4fV9uyn4Q7YOXIsHz5/zvzFq3DWo8b54CxizWYnjpDSeXt7izGGs7NFcNX34ESR1ZrP53NW9/dtrLfBNtZ2MOLDfbk4fO1Qp7iqiW8fOrInanI0gkU30A2NQ3ORBp7wQNBa+8MAHpHNLtwa9rboUMb57m6vKv3hp0N9CkcapyBZjlNPbrPm9Z7a1XhLY1sI5/qZFT56/33E5DhWOGP48L0PmRfj4tEDXQ939idPnkxqD9tz8Pz5c/ryVEwKhFENGUXiytOniowl8NAQ12gtjWmUuuffscbDuqpRINe8SftEs7sFfFVV4TTDmBmYHNcog9GWZowg4nDLz8i8YDxQO8Qq1gRHUIdiZbeBaWscJFi3jUhjGd70y5hwZlQ1KC5Yn6UpF52HjDXilXLEmTFeH0kPXRtahgQsBL6I2Q66kLRPMiL5hGhngaA9dzcEMUbYRR4eBx/w14CwZ+IQLam9J7MZd+s1MlvgVYOV31hMJmQ+wyi4RnMQa6Dhyaqst20OE+EQ43fa3ygXbkc6tUnW+KjKx3xX8W9TCIwLRrfwPUBfmp4+GqIAxGcPMnAIQbBEwg7TOcZ6rzjvURfSSmlzRg07hEc1uHbOirPgnaXS6HsN7uacn6rLqdqWTqxXj2o45be3AVFbobmOwuBVmgxVwZBVuarpQ2NQMpahGFdVv3fOgmFxaD43tPfhCXSP8RPfnb55mi2on57N52HDZSXh2kyMbXdu46uQ4RfBZjMqX0Jdk6tpbCaKdzWGGSKGzGSj6O1bmNLPh2jL6bl9V5afydb47uoz1ci2j5gxGUrSa7duiqVJNwIpA2jTP/WoDQyf5RniK1y9xPmyNdBFZw2PUteOSpXrsuaZKDYLZ2jvgmoauiO9i9H2laF5YHNuJx8ahqtxGo4PeZ6BWpbrktJasDPu64qFW5MNesRsxjH+POTqMl20fDDpd5KGjsumE+Yy9DRl2KlMH8+u0V2372p2H6zJ8NkZi8zg7u9YFDl5ZqF2VD5Y+zNryazBu5rKO7A2uNkCFourxiXt7NLT5Y8pC0Yfjl1jN7pIxK6rru7kDEHvtdOODkyh5xBcbXqD1rpsCDnj4Pzigvd/42+i6yVIcA81jQun8w5X17j1imflF9izOWsRZhLOdK3WEMy0kG1PRDpeYZFpDqwNVVHuQ5/C98aAanB8caJ4LE4KFu99yLOXH+Oz2ahz6ebdwWstntnDmEZhHbCsJfhUffARhy1t66G5vx9UU17aFlbvFWOGGd/7TV8CDZuFUiQcjYb4oa5rjDqkvOdP/+n/wZkxuLICVazNQkEQH3Z/azOywpLNZ3gRxIGxBmuytrDIPujj1e7OPga6eLp5Ih5Y4/sajYWD1OeR+IZgaNUfwuVpY65IVTxLYLbsR7/NBy++30aRRcaJwlJVFW+//IIXz8/wl88CowKCbZiWgNdsBjwV9C364udE61T1QeVuHHvC+20rjB4lMznmw+/z4u/+Q2R+ho7xzE4N3Sjr5vpyPl8MGve2cYQFStXz2eef895775HZSN+mH2NwhZTiPtAQIRgAoGPg7Guvqnz22Wc8f/48aD1pg9bot39kyvUKX5f4P/sjsv/9D9H8kkpByQGP8Z5gMQnZfu3sktmLT4NwG8VhQtSBHCYL3WPIVByRpzYazhFq/GPDVENEH+xbIQff31wQtZnbGn5ozVbvf8zi/Y9bvF2VMKsq3v7855hf+iXsluAmRxFh2+BEv41jmxWjRV3bv4qYmAgpVIWRsOMYFF1ckv/or2Hm5+Nkq2snub0FYHFx0fv9EHjv8bM/ZvFLv7SVSnoK+Ls7vPcskloEkw2+8z9m/vp1m112qvFYlyFvvEEx1RLVczAG1QykDNOi4EVRdRQ2w549x6jgTJgbGXRWfkh3Lz8csXHuk6uTb/wI6L/KeRy34W8bHLMrfZdBVVHvtwyq0CzO0ugGxyuv3yh8Z6u4ft3QZyeIKtN3EXYZXN9l2L41Swyo3wg1jw8nYT8QvqsC0rXaPhYci+ubHs+HO/r2d9/N2d6Gk7DvgW+aAb8OeIw+PpagH2qcegwQSew1fdDemnx34STsB8I3wZB/GWGfc84heB4b2itSvvu7+0nYR0KfM9F3UeC7bqRf95XpFBgrwF+FoHfne9gH79sPJ2HfA7uY+LF2o28bTO3PY/X/224k/C4u6n1gRnmaJd5eXXfXKROVnsmip9WWJ9kBcGjb7q6W4hny+47trR2TDnHk4tB+JY0nmMU0CSS996CbFIjeb3svtvRPoOXQ79t3Jc/18cNYPJEX0niLvriJfdDnNXbIwtU6pBgTxj9165awt8diESqKNGHHxofYCTuy8mxXQ+z2ZSy9sW1aonrbZXkbsrdv345CHglZrVa8ffuWi8QJo4/ofTiurq626rOnkz50nWWMoaoqrq+vub6+RjUE1qQdHDNgadH6SL9qiLePgxfxpl5vEbdzjuvra8aOX/RuSks2X19fh9xpdYWqhkCYzJBVIYmj8w7bRJZpmxjCYI0NsWs+1Lq/v1/iYsTVCGFOabi5uWn7OlVAYp/evn3L5eUlWZYdxA93jVNNjNaK49/mo9uDKy66Nzc37ZxGHprCD1VVIhhM7fEueC9qUysruhNrsxCr99R1Tblec3d/jzpYW+XtmzeYPKcYUXI55YcIy+WS9Xq9RftYPHHjubq6Isuyxiux4y7bV8d5F9JIxGw2e1BDegqjxPZ99dnH+BWLSIujuyOPXRnLsiTP862Y+lQQoD/JQATn3M462LugK2ixPvt8Pg/JK7Cobdx4bdxZtj3sRDauu5jA6HmeY/NisKhjlwbor88+BtJdOM5F6kE3BVdd12199ohzLD9A2AAiDUVRbG0Y43lik2k3tov/dXJ8IEaw1pBlWfDY88FltpjNmM9mFCN5Is5F+jtMm4uusMf68H04ssVi0YdjL4Hz+XwSk3dhvV4/IGiq+lIUBUVRPFDFH0PYU3yRtq7qVVVV236K6pY+mwp7uNoxeAk57yIdMZGjGENIcOmbqDswZFhjyPMMmc0b79z9tMQxij/rOpQ7OnQ+o7DP5/PD3WWbXf2QZCZx3vI8b4W9+/0YXN47qqpGbJMfIAY4NPfvqiErb/SiM9IIex7TV4cxnC8WzCYIex//jpmLlJ9SDSHORR+OyQa6Y8/YXTjU+LHv3HMoHV1adlmrd0UVDeHf+V14oN+XPn1fewGk2/NwYPcfY9xSreqbNLL12VymQJjrFtnOZzY5EBreSJ1vGtvKNwn75mF0iGvfc30r07EwBsfWYPe0H6P+dY2Ou2joWwBSGqbQ3N1V2/e1/+9Ev4WWiNAklvShzKGYJvVxY4xpGm2VXj4CDuWHqXj2PTd2HiM9fQbXKbTEnRvdGAg3Js/ENz7lB93+GI2kY2neR+chG8mucYwwKcRVuqvajpcOQXf1SdtNoaX7eQqevjbd73YN+KEW1F3W//CHzQdlo9qGhNK0cffJj8Z4FBjRyLhc7VPpHHpuH08cqrVN5Yfu4nkIb27t0lvPhtFXws7tUbRJ/eSb/PLtyO+RjX3v7RPwqTjiz+7708+TDlnpbjjlXLWrfd/qPebMqaqTr2f20dL3XUpL98gQ378r19cufLu1CN2SaJFgdLLGYhqDnQqoGvAhq234V6N1jdcmt70Mi/subWyq7aTb9hCNotv+EH6I7dMMw4eCyCb/Xzyzx2lRbQpoiMGp3U4UoeNpjfSmP7vfjeXrrqY4NA6Tc9Dt29nHtIeHGTWmrmIi/amtpgr/LtVv1w4V8cf3j71n37XTtP86SalUY/YVH3LOscmfagnJLlUFwZJlWTMWZtS+3l31D5mDtH06Jo/VfiquXfwA43miNcB5wk9trjqlCXFtpN43yTbjrh54Rkar793+pYvbVNmaOk4HG+gOhUN34n1wuEFmj1rdg7u70381Binf7C7a/Atn9M27H2pIUyx0XwXNx/LDY/PEMfwgrS3Etjsl2mTCl1DXDULSE28EUcFLWIRlRAqtrwL67EB9cHKXPcEJ3hE4CfsJTvCOwEnYT3CCdwROwn6CE7wjcBL2E5zgHYGTsJ/gBO8InIT9BCd4RyBbLpeDD6V3eLHY+2q1mnyfqRqiuVar1YO49Sl3rWVZbtHQR8cQvtVq9SAOPtKX9neXx5lzjrIsWS6Xo7z++jzDVqtV45xjGs94waOYusapQ03wzlIJ97mCNp6ceShV1DjdrMsa45dbLrX7aOnSALSx6GMdUGJ7VW3nYqyTUXdc4lxkWTb6zjgFEWlp2BWXP4YfvPMY5/eWpIxusV6VuqpYrVc4VdSalh/8CD/8Pn6I8exjZLKLD4KzWhyHvv5mn3322WikxoQOXV1dcX5+3lu6eYioLMu4ubkhz/O2egc8DCPdR4P3vqVBVVu31bE4ICQKyLKsTZyQCnn39+6CEPt7d3fH559/PviuuIiIhJDSWBPt7u4uLH7LZZOcIpRvyslY+hXkBikdTqBQC1LirCB6TuZXiL9n7ZQ3t3eY6oYaP1jIIPZFNSTquL+/B2gX4ClCFvt0dXXFxcVFO3ZT+MFa2wppmnBh7FyKCHmec3193YbZpq7UY91Pq6rE2ox5WYVy1NIEFvnoUGPAh4LYvunn+n7Jm7dvqEuHn+fc3tyCsWR5PtjvOHZxw4mCWpZlW+V4TN/T8bLWcnt7S5Zl3N/fP8CRffLJJ4NI00FfrVbM53NevXo12Z86ClEU9kNjqNfrNdZaXr9+3eLtCuUQTXFQYhKOdEfpKx3dZbwotK9fvx69s0PQCOJE397eYozhbHEWdgojKJ5sveILO8O6CvWKlxo1wlor1lqT50I2qxH1+Avh8r2nLLJzMvsgQnYnxDGLwh4XzkP8u+u65tWrV+3OPhXHcrnEe99mP5oKqiG/wMuXL8nzvDe2YYimu7vbkF/gyxlZ049NHzcxDNpEFuZZxpPLS55/9BEGQ2kgX6958eGHg8krUnpS3l2tVpRlyZMnTw4ah9jn58+fb/F1hNEhrmkASMws0v1+CCIO5xzW2t5JGYPDOUdd163g7HpuH8SkDd0EGN226TEhXVC6O9FUaF0x4zsQnDYusqqot1hnMAhrFCdB0Z97mJUllPfU6pmt4QwwFiCWP94NXQHopnDqfh7qQxT2vgVyTPv403u/xfhT6IhBSZGv4KEL6RAuY0xIaSUbfCpJEgvPJjBGQyASzY4ck9nUVXVQQM6ucRgDaf+ibNZ13fJ1SsvoENetwA2RBxM7BkcaANMXgDGWjqgG9+0kU896fbSkfevz3U4DL6b6dqcBG23bJroyE7Dewd2XLFGub78gc0vEeqzJg6rvhZUvcN4ji6fkZYFUgikITDmSlH3BSFMYLc0XN1XY+/AdQkfsyy4axtoh6tqhbjuhJ0mQkvo0TdVm8zOYMIedMR0Du8Z/arxA2v/u3EZ4lBDXqepf35lkrPqdvj/dTfoCVsbQ0vcz4tjVr+0glPHvSXGmOzv4kIqqJpQIvvyQH/+D/xSDQSTDO0VqxYviJWQxRUqoVnx+n8MsA78CWzB0wdKdt119H9uvuBMdEwyT4ujSNmYB2TUfU/oU1XRjQloqYy2IIZSe1zbhpxEDuhEo01TtFdjKkDv8rm2apvJUt12qfe/CcVCIa5fQKe1To1f3u7E44KFaduhK2MV3yKo85bnurm6MaQ7aIeURCNiCy3/pt1ABwYK34eAogkqGignn+HINf/I5a2uZG8+UoKvuPB46n31zOXbx747FoRpa+t703Qf1KbbTJt2khqORsE1jy35CG/paVdWgJb5LV9+OfoxmsK/tqDN7H5LuoI7FMbRgHLNDPAaeKUeaMe/qaj994xh0QEWsoI6Qy2z2FMUhGMDgfIWKYKTAuHDGpyiw2RJBqEXIaJJY7IGuIPbRPoUf+sZrCj/En12a4t++Tn7QRkPXRsuIMetBRRdUfTCYeo/RztUxsjXX+2Cf1jiW1rHjPvnM3l0xx768D0/fz7T9IcKW4hqLp+84Mob2XYM8FbZUrkbgnYAaxaiiZGFXJ8RLY5okCSogDoPDYRHnyQgaQMpwQ/1IaYifp47dvkVjKj/08cahu1yKZxpfPcQnTeGndJ5aujSc76M2YA84s6f0psehKUepsXI5So0/hPivA75KuvqEYNczU/E+xNeo74QdRDScA41ujHdB8MNjIgJiUa/UpgrZa5qFYQodh8I+oZqK55Bz6ljaYJo9KcURxlgwGDzb/QzoIk4lOjdM7cWus/tUWrs4dy04ByX6PnT16qoZxwprV0U+pO2ulT+ltU81OmRSUkNKeqSJ7279z2KKqYYkExAk2Gyzk1doHp87zH5wzPm2D8+h7fs+f+14OlPaqvDSHs2Tx7av3poGk2hN+QEe3pBMJn/g/QcL+zcNj7lo9OHedy4/xJDymLQ9Fg2PtaN+2/jhEIg7tgSdPCzoATMgiDGg/uG4a7JGfEPjsGvz6MLoi9Fd1zTbV0iHEzuVji4NU/FMoanvnDuV5sekL6XhMft8CA3xcx9tY6BPszj0+qmv/VhcwSD3cAMJ7bedXkJiSt208XFJGE9v+vmYc378OYYnRu/suyynhxhR+nBMbd91fIkwRaXvU93Tn31W4fSZsU4ksU18/rFU5kOPUsfS0MVzrPrc5YlDjmRpEM5xBlNaddwYg1dBtXFrRRAxuMZuYkQwTbBSUPMPX+AOob3LV0OQjVmFU4aPDhCpS99UQ0tqeUwtu90z/b72favjru/7ILradrWStOjhLgNKOg5jxw9oC/DFd3Z/DkEqEKrauoimgTtjxi/t95bLbucMOURH31jE76fwQ5enphZ2TPsR+9KlYUyfrNn4xG/O6xJy9nsPJkQehh3db2kCjuCB50cEsXQ3k0hbdNM9hB+ALX7o63c2ZV4TDq0AAAwlSURBVGeOu1mfW+IUPGk97l276xAdfb9P2WGstW2l1F34d+GL4zD13Bx3n/jOXWPZB11mTedi1y67D+I7U5fjqTtrqmV187YfQkuXprG0dBf7vvEYwhP7EEs8qWoQcAmHcmMMSqO260PaLELW8NNUjS/doXfxZF+fu2CT9/f1Oxu7k8aGfWeDQ1SP7nlj6kqetu3ScAie+DMNbe2uvH0C1/f3fe/pxst3aRhDI2z7g39dNHSfTfvf1dLGQh8NaR+n9GsXX47hhxhcZZTWX0Eh1H8zBL93DRZ4sXZLC5DminTqXEToao5jcaQaQXcj6WufvX37djRRMeb29vaWm5ubvYaRXSAS4p+LomijxqYIuzGGuq63aIhqX5cB90EMsy3L8sGg9bVNGUgkxCHf3t4yZvzSRSM9t19fX7f9GXsUiOMV47bv7u64ubkZ1ef4TLpz3N7eAoyioY8mEWnnojt2Y/HF2OuYeCLlhyE8IkKWZdze3rZhyyk/xGeGaFmtlqDCrE4XmlBQUxIDXSz8WNc1q9WK29s71ClVLtze3ZJdz8mbhCC7oI8fAg2rNqHJlHh27z15nrc5Eoqi2OLrCNmUmPKIvCgKZrPZpFUohVhHO8bcTtkNIhOkNEx9P2zXZ0/7sY+O9Pu6rsmybHQt7e5iBGEcYn32qbuqMaYN6ewL0x3TB4CqqlpapkLsU6yNbjtx4GMhnjMP4QcIglkUBUVRbMWzTwFVj3ehGk+AYHJr6VBP8ICPWYUMJsso8gyXh/nIssCTxcBY7uKHeNZOZWsc7ZtkGNbaB3wdIVssFqORRoJSQT0E1us1RVEw9d0pzGazB8wxhUlSYY+wS7Xt+1tVVRRFwXw+nyxo8WdVVa2wTwXVYKCLfRh7TuzSEOP6D52LKKSz2YwsO8hto93Vp4xlClFA4ibS1fDGnfs9VVlBTAXWJ2sSj+tNrb88Z1YUOAOKUMwCP8xGzmf3mAhhAT2UH9JNsA/HKeHkCU7wjsBJ2E9wgncETsJ+ghO8I3AS9hOc4B2Bk7Cf4ATvCJyE/QQneEfgJOwnOME7ApOFPXrsHOIp9ZgQ6YCHbryP+Y70c9cN81C3yKnuvLtwRU+xXSWP+uAQF+chfDGI5ZuGrsdcX078XSAI3gi1KrMSRC5w3qJFTeGXGA81Qu4tc6fU3FOJQzUU9rBOwC0b55tx0PXh77t3n4Ir9QTtwzFZ2KcEOPRBKjSPKZhTg1KG6Orzrz7Ul/yr7nNK5zFwKG3dsZm66B7idj2EJ+WHMWPjvYaU3UZwRZsHiLxUnDU4MYgaVELJqiJbUBlF1GOcAV9RZUWozzexv104Zi67AUlb341F0vXySf8+ZXKPXSz6aEjpewyGTVfavgVgFw1jaO0K55SxOIaGMc8fQstjaQiH0rGr3VR+EDVYH6Lelnjq+p7MWvLSsiKjMoJg8OJZodRVRqGAeIwavFV8cYbKcHHLXf071HtwbB9HC3vfQMa/HyLAxwj9sbt4hGNV/2Oju1IaDsFxSP93HUEODYIZes9j4BqLY+p7UzAqGBWcd/jag5QUomieoWoQG7zlUSjF4bznvBKaMDmcyXBlqM03hd4Ix2h/Y/v+KAa6x9pdxnayL2nEIQtAH44UdsWKH7NAPMZZvfv7oee8YwV+F75jFqEUz1Q7RBffFH4QARWPz+Di4n1yUTwVS+Mo1GJ9DRry9WfimeeAyXAIGFAM1t0h6ka9L6X9mCPMLn7og8lqfB/TH2IcOuZsPeZvQyAie883+95/jAp76Jmy+/4Ix+6Kx9CR4thF31QauvjG0tLVlCbzhIAaT7Y44+J7P4aVp7SOSipmYrB1DeLxRshrmOczypcvcdhQytnDPKsw5rhj5CH18tK+7xu7bGzhd1Vt49mrqmrjZVOL+BgQkbYW+KFCWlVVS0OkbSqUZbmzWuauQUv/FqtlrgZil7vt05LN6/W6zU5ySB+895Rl2eKZahSLNKjqVnaYKe2Bdi668ehjIfLDVBoiRJ6IPHnIWK7Wa6q6Ii8uqX7wG9z9sz/CPxMKCbt+YTNKPA6oXEZ9/hH6Kz8MtFcl3p6zLuumL+MFNtKa1mc/tDqwiFCWZSg93ZPEIvvFL34xCkn8V5YlX375JYvF4kG+rCEC44IRE0ccEiYb47gjDaoh1DPSOXay7+/vsdY+qM8e6ewzpKWfnXO8efOGPM8H3xX7DZvcd8aYtj577Mc+6O68kYYvvviiDQ2dsoBGmu7v71FV7u7uRgtpfCb26csvv+Ts7KylIX3HGBqWyyXOOc7Pz0fR3qUlz/N2LvI83yoSOZYfytojwGW2wP7LP+P+f/tDXqx/wZubt5jzp1gBlRqpoH76mvtf/atk/oz7z39BXq/Q+Svu7yzwFpvdDvY7zmccr66wj8lj1+UHEeHzzz/HOdfGxKd4sk8//XRwINLBWq1WzOdzXr161Q7qWHU4dvLm5qY3Jn4ss63Xa7Is49WrV1vt4uSOwXF3d0eWZRRFATxURXcZJOPnKLTf+973Bt+VQlp5Ngr72dnZYLs+hnXOISK8fv16sgoY8d3f3wNwfn4+aUdOF0bnHK9evdpKdzU2j5qIsFwu8d4/EPax9KiG/AIvX75sk1ekC/MYPHerNWXleHq24NmH7/GD/I5/+p/8x5y/eI9y5TDWgCq5s7z62e/z0d//B6DvQ+Fw1KyYI+tXvHj5jNl8eANIaY90rlYrqqri8vJyUtsIcdyfPXvGbDZ7sCBMLv8UJzfdrcZCxBOzYO57zz6IK1Z3ZZvCrDFpQ7rgpItG92/d90QGmyogqUBMcUTps95COI4cetaL2sGud4yh5zH4IU1J1R3rsdA9Tqb0jcFjvMP4CpUZtlhgf/Z3+cl//Tf4k//hv+Wzf/I/84Ia8+Pf4/y3/zbPfvSr+PwSj2LJsC7j3MK/sEu8XALjhL2rfahqy5djoG9DijzZNxeHpRb5SwDHWp5P8JcL1NVIXWKMUDPnnhny/Jz3/61/yPv/2r/HzChGDTJbwNkZtYLHkwVTPOo83jlGpo7/RuCdFfYTnCAFtQaXZ4AhU7BeUG+QxRNkcYlTEGpElEoEB9joQGNAxFBkliMuRr5yOAn7CU4AIBmq4GpPZkHEg23yxosiSrhTJwMRTFNaM5R4BQRqNz1D79cJJ2E/wQkIjnCZxnyTihMPIigGUEJqeINRA0hYA0ItZzChakztHd9iWT8J+wlOAKDOgaswjeAKhuAaZ8AFV1ljCIUiUqOfNI8Bxp7U+BOc4NsPAirCxsIW67rVCCAqiIbrt6C2S9MmFJJw6rFij/Jm/KrhJOwnOAGAMagNVVuReFujeDySBdXekiE+7uhNzVbZFKYUrydrfB8cuwI+RkDJt3kV3gePaQT6ro5BF44dE4enUocHMhWMWlCwJtjgKq3xTQ04IRjtPIoQyjYbsVhkdI32bwImCftXZWmc6ks91vF/H/Q5qfTh24X/mHePwd/3vr52Ux1ZHovuPpqOgW6A1TFBRoeARSjEkJnNWdx7jxGDAWaSikrjuJM4xcDGMH8MTJWD6JyV1hDcBZM45TF241RQD4VDorS60K0Pv++ZXTQ8BhwaIXZM+7TtsfNwDKTj/xi0HEPPGDq63x3q7TdEx1RIF/x97b/WhJOPMamPCSktu5hl7MQf8/5D8XzT7R8Dvg00dGmJsEv766P1Meh/jPncR8toNX4f08O4le0xV7+ulnCoCpi2S32V43f7cE3tz65jwmPgOaTtMRrSY/DDsTR03/tYGkKKs8sP6c/HOBL10To2+KdL5y58EUYJe5f5uxlcxg5ul8kOhcdgkBhm2jdI+3b49N2HBn50f05p26XT2sOuew4983dxdIOHjuGHb5In9o3lEM74/SFz0T0KjJ2PvkUp9mEXjuzt27eTCFsul1xdXbVheGns8FgCr66umM1mW8kGpuwEZVlyfX3N9fV1S0M0VKTv2Qc3NzdkWdZGCcV/1tqtiLqu9hD/VVXF9fU1V1dXg+9KmT9NMnFzc9PG5w8JSFcDie0iDVMMfamQ3d7eEqOtpsxDuuvFuciybNLOGt91d3e3FQk5dcc0xnB9fc3FxQVFUTyIqR+Da7lctmPQGtwSw1eKL/0Zv480jM3T0KcBrVYr1uv16AUzPhcTf4hIS0OUrRT+f7UW4pSYpTwJAAAAAElFTkSuQmCC;" vertex="1" parent="1">
                    <mxGeometry x="453.74" y="570" width="132.57" height="150" as="geometry"/>
                </mxCell>
                <mxCell id="9" value="&lt;span style=&quot;color: rgb(102, 102, 102); font-family: &amp;quot;microsoft yahei&amp;quot;; font-size: 20px; background-color: rgb(255, 255, 255);&quot;&gt;PN结指向内的为NMOS管&lt;/span&gt;" style="text;whiteSpace=wrap;html=1;fontSize=20;" vertex="1" parent="1">
                    <mxGeometry x="170" y="535" width="240" height="35" as="geometry"/>
                </mxCell>
                <mxCell id="10" value="&lt;span style=&quot;color: rgb(102, 102, 102); font-family: &amp;quot;microsoft yahei&amp;quot;; font-size: 20px; font-style: normal; font-weight: 400; letter-spacing: normal; text-align: left; text-indent: 0px; text-transform: none; word-spacing: 0px; background-color: rgb(255, 255, 255); display: inline; float: none;&quot;&gt;PN结指向外的为PMOS管&lt;/span&gt;" style="text;whiteSpace=wrap;html=1;fontSize=20;" vertex="1" parent="1">
                    <mxGeometry x="453.74" y="530" width="246" height="45" as="geometry"/>
                </mxCell>
            </root>
        </mxGraphModel>
    </diagram>
</mxfile>